<svg width="280" height="280" viewBox="0 0 280 280" fill="none" xmlns="http://www.w3.org/2000/svg">
<path d="M183.579 22.1254C183.579 22.1254 142.447 10.0182 101.819 34.5126C61.1912 59.007 40.5048 104.697 22.736 141.349C4.96716 178.001 14.8176 213.914 45.5952 228.995C76.3728 244.076 97.5464 218.573 140.89 215.253C184.234 211.932 195.849 217.33 231.963 191.957C268.078 166.583 274.96 110.499 246.854 70.6326C218.747 30.7662 183.579 22.1254 183.579 22.1254Z" fill="#33941B"/>
<path opacity="0.7" d="M183.579 22.1254C183.579 22.1254 142.447 10.0182 101.819 34.5126C61.1912 59.007 40.5048 104.697 22.736 141.349C4.96716 178.001 14.8176 213.914 45.5952 228.995C76.3728 244.076 97.5464 218.573 140.89 215.253C184.234 211.932 195.849 217.33 231.963 191.957C268.078 166.583 274.96 110.499 246.854 70.6326C218.747 30.7662 183.579 22.1254 183.579 22.1254Z" fill="white"/>
<path d="M25.732 221.665H257.555" stroke="#263238" stroke-linecap="round" stroke-linejoin="round"/>
<path d="M25.732 226.979H257.555" stroke="#263238" stroke-linecap="round" stroke-linejoin="round"/>
<path d="M42.2632 132.574H28.9688C27.6915 132.574 26.656 133.61 26.656 134.887V148.181C26.656 149.459 27.6915 150.494 28.9688 150.494H42.2632C43.5405 150.494 44.576 149.459 44.576 148.181V134.887C44.576 133.61 43.5405 132.574 42.2632 132.574Z" stroke="#263238" stroke-linecap="round" stroke-linejoin="round"/>
<path d="M61.7008 132.574H48.4064C47.129 132.574 46.0936 133.61 46.0936 134.887V148.181C46.0936 149.459 47.129 150.494 48.4064 150.494H61.7008C62.9781 150.494 64.0136 149.459 64.0136 148.181V134.887C64.0136 133.61 62.9781 132.574 61.7008 132.574Z" stroke="#263238" stroke-linecap="round" stroke-linejoin="round"/>
<path d="M81.1384 132.574H67.844C66.5667 132.574 65.5312 133.61 65.5312 134.887V148.181C65.5312 149.459 66.5667 150.494 67.844 150.494H81.1384C82.4157 150.494 83.4512 149.459 83.4512 148.181V134.887C83.4512 133.61 82.4157 132.574 81.1384 132.574Z" stroke="#263238" stroke-linecap="round" stroke-linejoin="round"/>
<path d="M100.57 132.574H87.276C85.9987 132.574 84.9632 133.61 84.9632 134.887V148.181C84.9632 149.459 85.9987 150.494 87.276 150.494H100.57C101.848 150.494 102.883 149.459 102.883 148.181V134.887C102.883 133.61 101.848 132.574 100.57 132.574Z" stroke="#263238" stroke-linecap="round" stroke-linejoin="round"/>
<path d="M120.008 132.574H106.714C105.436 132.574 104.401 133.61 104.401 134.887V148.181C104.401 149.459 105.436 150.494 106.714 150.494H120.008C121.285 150.494 122.321 149.459 122.321 148.181V134.887C122.321 133.61 121.285 132.574 120.008 132.574Z" stroke="#263238" stroke-linecap="round" stroke-linejoin="round"/>
<path d="M139.446 132.574H126.151C124.874 132.574 123.838 133.61 123.838 134.887V148.181C123.838 149.459 124.874 150.494 126.151 150.494H139.446C140.723 150.494 141.758 149.459 141.758 148.181V134.887C141.758 133.61 140.723 132.574 139.446 132.574Z" stroke="#263238" stroke-linecap="round" stroke-linejoin="round"/>
<path d="M158.878 132.574H145.583C144.306 132.574 143.27 133.61 143.27 134.887V148.181C143.27 149.459 144.306 150.494 145.583 150.494H158.878C160.155 150.494 161.19 149.459 161.19 148.181V134.887C161.19 133.61 160.155 132.574 158.878 132.574Z" stroke="#263238" stroke-linecap="round" stroke-linejoin="round"/>
<path d="M178.315 132.574H165.021C163.743 132.574 162.708 133.61 162.708 134.887V148.181C162.708 149.459 163.743 150.494 165.021 150.494H178.315C179.593 150.494 180.628 149.459 180.628 148.181V134.887C180.628 133.61 179.593 132.574 178.315 132.574Z" stroke="#263238" stroke-linecap="round" stroke-linejoin="round"/>
<path d="M197.753 132.574H184.458C183.181 132.574 182.146 133.61 182.146 134.887V148.181C182.146 149.459 183.181 150.494 184.458 150.494H197.753C199.03 150.494 200.066 149.459 200.066 148.181V134.887C200.066 133.61 199.03 132.574 197.753 132.574Z" stroke="#263238" stroke-linecap="round" stroke-linejoin="round"/>
<path d="M217.185 132.574H203.89C202.613 132.574 201.578 133.61 201.578 134.887V148.181C201.578 149.459 202.613 150.494 203.89 150.494H217.185C218.462 150.494 219.498 149.459 219.498 148.181V134.887C219.498 133.61 218.462 132.574 217.185 132.574Z" stroke="#263238" stroke-linecap="round" stroke-linejoin="round"/>
<path d="M236.622 132.574H223.328C222.051 132.574 221.015 133.61 221.015 134.887V148.181C221.015 149.459 222.051 150.494 223.328 150.494H236.622C237.9 150.494 238.935 149.459 238.935 148.181V134.887C238.935 133.61 237.9 132.574 236.622 132.574Z" stroke="#263238" stroke-linecap="round" stroke-linejoin="round"/>
<path d="M256.06 132.574H242.766C241.488 132.574 240.453 133.61 240.453 134.887V148.181C240.453 149.459 241.488 150.494 242.766 150.494H256.06C257.337 150.494 258.373 149.459 258.373 148.181V134.887C258.373 133.61 257.337 132.574 256.06 132.574Z" stroke="#263238" stroke-linecap="round" stroke-linejoin="round"/>
<path d="M42.2632 151.726H28.9688C27.6915 151.726 26.656 152.762 26.656 154.039V167.333C26.656 168.611 27.6915 169.646 28.9688 169.646H42.2632C43.5405 169.646 44.576 168.611 44.576 167.333V154.039C44.576 152.762 43.5405 151.726 42.2632 151.726Z" stroke="#263238" stroke-linecap="round" stroke-linejoin="round"/>
<path d="M61.7008 151.726H48.4064C47.129 151.726 46.0936 152.762 46.0936 154.039V167.333C46.0936 168.611 47.129 169.646 48.4064 169.646H61.7008C62.9781 169.646 64.0136 168.611 64.0136 167.333V154.039C64.0136 152.762 62.9781 151.726 61.7008 151.726Z" stroke="#263238" stroke-linecap="round" stroke-linejoin="round"/>
<path d="M81.1384 151.726H67.844C66.5667 151.726 65.5312 152.762 65.5312 154.039V167.333C65.5312 168.611 66.5667 169.646 67.844 169.646H81.1384C82.4157 169.646 83.4512 168.611 83.4512 167.333V154.039C83.4512 152.762 82.4157 151.726 81.1384 151.726Z" stroke="#263238" stroke-linecap="round" stroke-linejoin="round"/>
<path d="M100.57 151.726H87.276C85.9987 151.726 84.9632 152.762 84.9632 154.039V167.333C84.9632 168.611 85.9987 169.646 87.276 169.646H100.57C101.848 169.646 102.883 168.611 102.883 167.333V154.039C102.883 152.762 101.848 151.726 100.57 151.726Z" stroke="#263238" stroke-linecap="round" stroke-linejoin="round"/>
<path d="M120.008 151.726H106.714C105.436 151.726 104.401 152.762 104.401 154.039V167.333C104.401 168.611 105.436 169.646 106.714 169.646H120.008C121.285 169.646 122.321 168.611 122.321 167.333V154.039C122.321 152.762 121.285 151.726 120.008 151.726Z" stroke="#263238" stroke-linecap="round" stroke-linejoin="round"/>
<path d="M139.446 151.726H126.151C124.874 151.726 123.838 152.762 123.838 154.039V167.333C123.838 168.611 124.874 169.646 126.151 169.646H139.446C140.723 169.646 141.758 168.611 141.758 167.333V154.039C141.758 152.762 140.723 151.726 139.446 151.726Z" stroke="#263238" stroke-linecap="round" stroke-linejoin="round"/>
<path d="M158.878 151.726H145.583C144.306 151.726 143.27 152.762 143.27 154.039V167.333C143.27 168.611 144.306 169.646 145.583 169.646H158.878C160.155 169.646 161.19 168.611 161.19 167.333V154.039C161.19 152.762 160.155 151.726 158.878 151.726Z" stroke="#263238" stroke-linecap="round" stroke-linejoin="round"/>
<path d="M178.315 151.726H165.021C163.743 151.726 162.708 152.762 162.708 154.039V167.333C162.708 168.611 163.743 169.646 165.021 169.646H178.315C179.593 169.646 180.628 168.611 180.628 167.333V154.039C180.628 152.762 179.593 151.726 178.315 151.726Z" stroke="#263238" stroke-linecap="round" stroke-linejoin="round"/>
<path d="M197.753 151.726H184.458C183.181 151.726 182.146 152.762 182.146 154.039V167.333C182.146 168.611 183.181 169.646 184.458 169.646H197.753C199.03 169.646 200.066 168.611 200.066 167.333V154.039C200.066 152.762 199.03 151.726 197.753 151.726Z" stroke="#263238" stroke-linecap="round" stroke-linejoin="round"/>
<path d="M217.185 151.726H203.89C202.613 151.726 201.578 152.762 201.578 154.039V167.333C201.578 168.611 202.613 169.646 203.89 169.646H217.185C218.462 169.646 219.498 168.611 219.498 167.333V154.039C219.498 152.762 218.462 151.726 217.185 151.726Z" stroke="#263238" stroke-linecap="round" stroke-linejoin="round"/>
<path d="M236.622 151.726H223.328C222.051 151.726 221.015 152.762 221.015 154.039V167.333C221.015 168.611 222.051 169.646 223.328 169.646H236.622C237.9 169.646 238.935 168.611 238.935 167.333V154.039C238.935 152.762 237.9 151.726 236.622 151.726Z" stroke="#263238" stroke-linecap="round" stroke-linejoin="round"/>
<path d="M256.06 151.726H242.766C241.488 151.726 240.453 152.762 240.453 154.039V167.333C240.453 168.611 241.488 169.646 242.766 169.646H256.06C257.337 169.646 258.373 168.611 258.373 167.333V154.039C258.373 152.762 257.337 151.726 256.06 151.726Z" stroke="#263238" stroke-linecap="round" stroke-linejoin="round"/>
<path d="M42.2632 170.878H28.9688C27.6915 170.878 26.656 171.914 26.656 173.191V186.485C26.656 187.763 27.6915 188.798 28.9688 188.798H42.2632C43.5405 188.798 44.576 187.763 44.576 186.485V173.191C44.576 171.914 43.5405 170.878 42.2632 170.878Z" stroke="#263238" stroke-linecap="round" stroke-linejoin="round"/>
<path d="M61.7008 170.878H48.4064C47.129 170.878 46.0936 171.914 46.0936 173.191V186.485C46.0936 187.763 47.129 188.798 48.4064 188.798H61.7008C62.9781 188.798 64.0136 187.763 64.0136 186.485V173.191C64.0136 171.914 62.9781 170.878 61.7008 170.878Z" stroke="#263238" stroke-linecap="round" stroke-linejoin="round"/>
<path d="M81.1384 170.878H67.844C66.5667 170.878 65.5312 171.914 65.5312 173.191V186.485C65.5312 187.763 66.5667 188.798 67.844 188.798H81.1384C82.4157 188.798 83.4512 187.763 83.4512 186.485V173.191C83.4512 171.914 82.4157 170.878 81.1384 170.878Z" stroke="#263238" stroke-linecap="round" stroke-linejoin="round"/>
<path d="M100.57 170.878H87.276C85.9987 170.878 84.9632 171.914 84.9632 173.191V186.485C84.9632 187.763 85.9987 188.798 87.276 188.798H100.57C101.848 188.798 102.883 187.763 102.883 186.485V173.191C102.883 171.914 101.848 170.878 100.57 170.878Z" stroke="#263238" stroke-linecap="round" stroke-linejoin="round"/>
<path d="M120.008 170.878H106.714C105.436 170.878 104.401 171.914 104.401 173.191V186.485C104.401 187.763 105.436 188.798 106.714 188.798H120.008C121.285 188.798 122.321 187.763 122.321 186.485V173.191C122.321 171.914 121.285 170.878 120.008 170.878Z" stroke="#263238" stroke-linecap="round" stroke-linejoin="round"/>
<path d="M139.446 170.878H126.151C124.874 170.878 123.838 171.914 123.838 173.191V186.485C123.838 187.763 124.874 188.798 126.151 188.798H139.446C140.723 188.798 141.758 187.763 141.758 186.485V173.191C141.758 171.914 140.723 170.878 139.446 170.878Z" stroke="#263238" stroke-linecap="round" stroke-linejoin="round"/>
<path d="M158.878 170.878H145.583C144.306 170.878 143.27 171.914 143.27 173.191V186.485C143.27 187.763 144.306 188.798 145.583 188.798H158.878C160.155 188.798 161.19 187.763 161.19 186.485V173.191C161.19 171.914 160.155 170.878 158.878 170.878Z" stroke="#263238" stroke-linecap="round" stroke-linejoin="round"/>
<path d="M178.315 170.878H165.021C163.743 170.878 162.708 171.914 162.708 173.191V186.485C162.708 187.763 163.743 188.798 165.021 188.798H178.315C179.593 188.798 180.628 187.763 180.628 186.485V173.191C180.628 171.914 179.593 170.878 178.315 170.878Z" stroke="#263238" stroke-linecap="round" stroke-linejoin="round"/>
<path d="M197.753 170.878H184.458C183.181 170.878 182.146 171.914 182.146 173.191V186.485C182.146 187.763 183.181 188.798 184.458 188.798H197.753C199.03 188.798 200.066 187.763 200.066 186.485V173.191C200.066 171.914 199.03 170.878 197.753 170.878Z" stroke="#263238" stroke-linecap="round" stroke-linejoin="round"/>
<path d="M217.185 170.878H203.89C202.613 170.878 201.578 171.914 201.578 173.191V186.485C201.578 187.763 202.613 188.798 203.89 188.798H217.185C218.462 188.798 219.498 187.763 219.498 186.485V173.191C219.498 171.914 218.462 170.878 217.185 170.878Z" stroke="#263238" stroke-linecap="round" stroke-linejoin="round"/>
<path d="M236.622 170.878H223.328C222.051 170.878 221.015 171.914 221.015 173.191V186.485C221.015 187.763 222.051 188.798 223.328 188.798H236.622C237.9 188.798 238.935 187.763 238.935 186.485V173.191C238.935 171.914 237.9 170.878 236.622 170.878Z" stroke="#263238" stroke-linecap="round" stroke-linejoin="round"/>
<path d="M256.06 170.878H242.766C241.488 170.878 240.453 171.914 240.453 173.191V186.485C240.453 187.763 241.488 188.798 242.766 188.798H256.06C257.337 188.798 258.373 187.763 258.373 186.485V173.191C258.373 171.914 257.337 170.878 256.06 170.878Z" stroke="#263238" stroke-linecap="round" stroke-linejoin="round"/>
<path d="M42.2632 190.03H28.9688C27.6915 190.03 26.656 191.066 26.656 192.343V205.637C26.656 206.915 27.6915 207.95 28.9688 207.95H42.2632C43.5405 207.95 44.576 206.915 44.576 205.637V192.343C44.576 191.066 43.5405 190.03 42.2632 190.03Z" stroke="#263238" stroke-linecap="round" stroke-linejoin="round"/>
<path d="M61.7008 190.03H48.4064C47.129 190.03 46.0936 191.066 46.0936 192.343V205.637C46.0936 206.915 47.129 207.95 48.4064 207.95H61.7008C62.9781 207.95 64.0136 206.915 64.0136 205.637V192.343C64.0136 191.066 62.9781 190.03 61.7008 190.03Z" stroke="#263238" stroke-linecap="round" stroke-linejoin="round"/>
<path d="M81.1384 190.03H67.844C66.5667 190.03 65.5312 191.066 65.5312 192.343V205.637C65.5312 206.915 66.5667 207.95 67.844 207.95H81.1384C82.4157 207.95 83.4512 206.915 83.4512 205.637V192.343C83.4512 191.066 82.4157 190.03 81.1384 190.03Z" stroke="#263238" stroke-linecap="round" stroke-linejoin="round"/>
<path d="M100.57 190.03H87.276C85.9987 190.03 84.9632 191.066 84.9632 192.343V205.637C84.9632 206.915 85.9987 207.95 87.276 207.95H100.57C101.848 207.95 102.883 206.915 102.883 205.637V192.343C102.883 191.066 101.848 190.03 100.57 190.03Z" stroke="#263238" stroke-linecap="round" stroke-linejoin="round"/>
<path d="M120.008 190.03H106.714C105.436 190.03 104.401 191.066 104.401 192.343V205.637C104.401 206.915 105.436 207.95 106.714 207.95H120.008C121.285 207.95 122.321 206.915 122.321 205.637V192.343C122.321 191.066 121.285 190.03 120.008 190.03Z" stroke="#263238" stroke-linecap="round" stroke-linejoin="round"/>
<path d="M139.446 190.03H126.151C124.874 190.03 123.838 191.066 123.838 192.343V205.637C123.838 206.915 124.874 207.95 126.151 207.95H139.446C140.723 207.95 141.758 206.915 141.758 205.637V192.343C141.758 191.066 140.723 190.03 139.446 190.03Z" stroke="#263238" stroke-linecap="round" stroke-linejoin="round"/>
<path d="M158.878 190.03H145.583C144.306 190.03 143.27 191.066 143.27 192.343V205.637C143.27 206.915 144.306 207.95 145.583 207.95H158.878C160.155 207.95 161.19 206.915 161.19 205.637V192.343C161.19 191.066 160.155 190.03 158.878 190.03Z" stroke="#263238" stroke-linecap="round" stroke-linejoin="round"/>
<path d="M178.315 190.03H165.021C163.743 190.03 162.708 191.066 162.708 192.343V205.637C162.708 206.915 163.743 207.95 165.021 207.95H178.315C179.593 207.95 180.628 206.915 180.628 205.637V192.343C180.628 191.066 179.593 190.03 178.315 190.03Z" stroke="#263238" stroke-linecap="round" stroke-linejoin="round"/>
<path d="M197.753 190.03H184.458C183.181 190.03 182.146 191.066 182.146 192.343V205.637C182.146 206.915 183.181 207.95 184.458 207.95H197.753C199.03 207.95 200.066 206.915 200.066 205.637V192.343C200.066 191.066 199.03 190.03 197.753 190.03Z" stroke="#263238" stroke-linecap="round" stroke-linejoin="round"/>
<path d="M217.185 190.03H203.89C202.613 190.03 201.578 191.066 201.578 192.343V205.637C201.578 206.915 202.613 207.95 203.89 207.95H217.185C218.462 207.95 219.498 206.915 219.498 205.637V192.343C219.498 191.066 218.462 190.03 217.185 190.03Z" stroke="#263238" stroke-linecap="round" stroke-linejoin="round"/>
<path d="M236.622 190.03H223.328C222.051 190.03 221.015 191.066 221.015 192.343V205.637C221.015 206.915 222.051 207.95 223.328 207.95H236.622C237.9 207.95 238.935 206.915 238.935 205.637V192.343C238.935 191.066 237.9 190.03 236.622 190.03Z" stroke="#263238" stroke-linecap="round" stroke-linejoin="round"/>
<path d="M256.06 190.03H242.766C241.488 190.03 240.453 191.066 240.453 192.343V205.637C240.453 206.915 241.488 207.95 242.766 207.95H256.06C257.337 207.95 258.373 206.915 258.373 205.637V192.343C258.373 191.066 257.337 190.03 256.06 190.03Z" stroke="#263238" stroke-linecap="round" stroke-linejoin="round"/>
<path d="M66.836 124.348V37.9342" stroke="#263238" stroke-linecap="round" stroke-linejoin="round"/>
<path d="M72.5704 100.576H69.496V118.473H72.5704V100.576Z" fill="#263238" stroke="#263238" stroke-linecap="round" stroke-linejoin="round"/>
<path d="M64.1816 100.576H61.1072V118.473H64.1816V100.576Z" fill="#263238" stroke="#263238" stroke-linecap="round" stroke-linejoin="round"/>
<path d="M25.732 124.348H257.555" stroke="#263238" stroke-width="2" stroke-linecap="round" stroke-linejoin="round"/>
<path d="M204.982 124.348V37.9342" stroke="#263238" stroke-linecap="round" stroke-linejoin="round"/>
<path d="M203.022 100.576H199.948V118.473H203.022V100.576Z" fill="#263238" stroke="#263238" stroke-linecap="round" stroke-linejoin="round"/>
<path d="M210.437 100.576H207.362V118.473H210.437V100.576Z" fill="#263238" stroke="#263238" stroke-linecap="round" stroke-linejoin="round"/>
<path d="M69.9664 197.489H76.8488C77.4563 197.489 78.0389 197.731 78.4684 198.16C78.8979 198.59 79.1392 199.172 79.1392 199.78V221.385H67.676V199.78C67.676 199.172 67.9173 198.59 68.3469 198.16C68.7764 197.731 69.359 197.489 69.9664 197.489Z" fill="white" stroke="#263238" stroke-linecap="round" stroke-linejoin="round"/>
<path d="M69.9664 197.489H76.8488C77.4563 197.489 78.0389 197.731 78.4684 198.16C78.8979 198.59 79.1392 199.172 79.1392 199.78V203.733H67.676V199.78C67.676 199.172 67.9173 198.59 68.3469 198.16C68.7764 197.731 69.359 197.489 69.9664 197.489Z" fill="white" stroke="#263238" stroke-linecap="round" stroke-linejoin="round"/>
<path d="M70.084 204.629V219.049" stroke="#263238" stroke-linecap="round" stroke-linejoin="round"/>
<path d="M73.7184 204.629V219.049" stroke="#263238" stroke-linecap="round" stroke-linejoin="round"/>
<path d="M254.128 190.624H199.466C198.498 190.624 197.714 191.409 197.714 192.377V219.912C197.714 220.88 198.498 221.665 199.466 221.665H254.128C255.096 221.665 255.881 220.88 255.881 219.912V192.377C255.881 191.409 255.096 190.624 254.128 190.624Z" fill="white" stroke="#263238" stroke-linecap="round" stroke-linejoin="round"/>
<path d="M253.641 192.578H241.618V199.013H253.641V192.578Z" fill="#696969" stroke="#263238" stroke-linecap="round" stroke-linejoin="round"/>
<path d="M244.362 205.033C244.362 205.337 244.271 205.635 244.102 205.888C243.933 206.141 243.692 206.339 243.411 206.455C243.13 206.572 242.82 206.602 242.521 206.543C242.222 206.484 241.948 206.337 241.733 206.122C241.517 205.906 241.371 205.632 241.311 205.333C241.252 205.034 241.282 204.725 241.399 204.443C241.515 204.162 241.713 203.921 241.966 203.752C242.219 203.583 242.517 203.493 242.822 203.493C243.23 203.493 243.622 203.655 243.911 203.944C244.199 204.232 244.362 204.624 244.362 205.033Z" fill="white" stroke="#263238" stroke-linecap="round" stroke-linejoin="round"/>
<path d="M247.716 206.567C248.567 206.567 249.256 205.878 249.256 205.027C249.256 204.177 248.567 203.487 247.716 203.487C246.865 203.487 246.176 204.177 246.176 205.027C246.176 205.878 246.865 206.567 247.716 206.567Z" fill="white" stroke="#263238" stroke-linecap="round" stroke-linejoin="round"/>
<path d="M252.61 206.567C253.461 206.567 254.15 205.878 254.15 205.027C254.15 204.177 253.461 203.487 252.61 203.487C251.76 203.487 251.07 204.177 251.07 205.027C251.07 205.878 251.76 206.567 252.61 206.567Z" fill="white" stroke="#263238" stroke-linecap="round" stroke-linejoin="round"/>
<path d="M244.362 210.896C244.363 211.201 244.273 211.499 244.105 211.753C243.936 212.007 243.696 212.205 243.415 212.323C243.134 212.44 242.824 212.471 242.525 212.413C242.226 212.354 241.951 212.208 241.735 211.992C241.519 211.777 241.371 211.503 241.312 211.204C241.252 210.905 241.282 210.595 241.398 210.313C241.515 210.032 241.712 209.791 241.965 209.621C242.219 209.452 242.517 209.361 242.822 209.361C243.229 209.361 243.62 209.523 243.909 209.811C244.197 210.098 244.36 210.488 244.362 210.896Z" fill="white" stroke="#263238" stroke-linecap="round" stroke-linejoin="round"/>
<path d="M249.25 210.896C249.252 211.201 249.162 211.499 248.993 211.753C248.824 212.008 248.584 212.206 248.302 212.323C248.021 212.44 247.711 212.471 247.411 212.412C247.112 212.353 246.837 212.206 246.621 211.99C246.406 211.775 246.259 211.5 246.2 211.2C246.14 210.901 246.171 210.591 246.289 210.31C246.406 210.028 246.604 209.787 246.858 209.619C247.112 209.45 247.411 209.36 247.716 209.361C248.123 209.363 248.512 209.525 248.799 209.812C249.087 210.1 249.249 210.489 249.25 210.896Z" fill="white" stroke="#263238" stroke-linecap="round" stroke-linejoin="round"/>
<path d="M254.145 210.896C254.146 211.201 254.056 211.499 253.888 211.753C253.719 212.008 253.478 212.206 253.197 212.323C252.915 212.44 252.605 212.471 252.306 212.412C252.006 212.353 251.732 212.206 251.516 211.99C251.3 211.775 251.153 211.5 251.094 211.2C251.035 210.901 251.066 210.591 251.183 210.31C251.3 210.028 251.499 209.787 251.753 209.619C252.007 209.45 252.305 209.36 252.61 209.361C253.017 209.363 253.406 209.525 253.694 209.812C253.981 210.1 254.143 210.489 254.145 210.896Z" fill="white" stroke="#263238" stroke-linecap="round" stroke-linejoin="round"/>
<path d="M244.362 216.793C244.362 217.097 244.271 217.395 244.102 217.648C243.933 217.901 243.692 218.099 243.411 218.215C243.13 218.332 242.82 218.362 242.521 218.303C242.222 218.244 241.948 218.097 241.733 217.882C241.517 217.666 241.371 217.392 241.311 217.093C241.252 216.794 241.282 216.485 241.399 216.203C241.515 215.922 241.713 215.681 241.966 215.512C242.219 215.343 242.517 215.253 242.822 215.253C243.23 215.253 243.622 215.415 243.911 215.704C244.199 215.992 244.362 216.384 244.362 216.793Z" fill="white" stroke="#263238" stroke-linecap="round" stroke-linejoin="round"/>
<path d="M249.25 216.793C249.25 217.097 249.16 217.395 248.99 217.649C248.821 217.902 248.58 218.1 248.298 218.216C248.017 218.332 247.707 218.362 247.408 218.303C247.109 218.243 246.835 218.096 246.619 217.88C246.404 217.664 246.258 217.389 246.199 217.09C246.141 216.791 246.172 216.481 246.289 216.199C246.407 215.918 246.605 215.678 246.859 215.509C247.113 215.341 247.411 215.252 247.716 215.253C248.123 215.254 248.514 215.417 248.801 215.706C249.089 215.994 249.25 216.385 249.25 216.793Z" fill="white" stroke="#263238" stroke-linecap="round" stroke-linejoin="round"/>
<path d="M254.145 216.793C254.145 217.097 254.054 217.395 253.885 217.649C253.715 217.902 253.475 218.1 253.193 218.216C252.911 218.332 252.601 218.362 252.302 218.303C252.003 218.243 251.729 218.096 251.514 217.88C251.299 217.664 251.152 217.389 251.094 217.09C251.035 216.791 251.066 216.481 251.184 216.199C251.301 215.918 251.499 215.678 251.753 215.509C252.007 215.341 252.306 215.252 252.61 215.253C253.018 215.254 253.408 215.417 253.696 215.706C253.983 215.994 254.145 216.385 254.145 216.793Z" fill="white" stroke="#263238" stroke-linecap="round" stroke-linejoin="round"/>
<path d="M236.88 205.861C236.88 213.354 236.32 219.425 235.62 219.425C234.92 219.425 234.366 213.354 234.366 205.861C234.366 198.369 234.926 192.298 235.62 192.298C236.314 192.298 236.88 198.374 236.88 205.861Z" fill="#696969" stroke="#263238" stroke-linecap="round" stroke-linejoin="round"/>
<path d="M229.415 193.48C228.603 193.441 227.78 193.418 226.951 193.418C212.503 193.418 200.794 199.181 200.794 206.298C200.794 213.416 212.503 219.178 226.951 219.178C227.78 219.178 228.631 219.178 229.415 219.122V193.48Z" fill="#696969" stroke="#263238" stroke-linecap="round" stroke-linejoin="round"/>
<path d="M53.1384 193.698H39.7152V197.893H53.1384V193.698Z" fill="#263238" stroke="#263238" stroke-linecap="round" stroke-linejoin="round"/>
<path d="M34.916 196.773H58.212L63.2016 215.913H29.9264L34.916 196.773Z" fill="white" stroke="#263238" stroke-linecap="round" stroke-linejoin="round"/>
<path d="M63.2016 215.768H29.9264V221.659H63.2016V215.768Z" fill="#263238" stroke="#263238" stroke-linecap="round" stroke-linejoin="round"/>
<path d="M58.324 197.193L58.212 196.756H34.916L34.804 197.193C36.484 204.753 41.1152 210.179 46.564 210.179C52.0128 210.179 56.6384 204.769 58.324 197.193Z" fill="#696969" stroke="#263238" stroke-linecap="round" stroke-linejoin="round"/>
<path d="M40.8352 210.756H38.8752V214.39H40.8352V210.756Z" fill="white" stroke="#263238" stroke-linecap="round" stroke-linejoin="round"/>
<path d="M45.3096 210.756H43.3496V214.39H45.3096V210.756Z" fill="white" stroke="#263238" stroke-linecap="round" stroke-linejoin="round"/>
<path d="M49.784 210.756H47.824V214.39H49.784V210.756Z" fill="white" stroke="#263238" stroke-linecap="round" stroke-linejoin="round"/>
<path d="M54.2584 210.756H52.2984V214.39H54.2584V210.756Z" fill="white" stroke="#263238" stroke-linecap="round" stroke-linejoin="round"/>
<path d="M122.08 49.9686C122.08 49.9686 110.079 54.0286 107.206 61.2974C104.334 68.5662 111.602 73.2982 113.63 74.4798C115.657 75.6614 117.18 81.7598 115.489 89.5214C113.798 97.283 108.73 100.161 105.179 99.8366C101.629 99.5118 100.951 99.159 100.951 99.159C100.951 99.159 101.461 108.287 110.421 112.341C119.381 116.396 123.284 114.873 123.284 114.873C123.284 114.873 138.662 119.605 146.44 118.233C154.218 116.861 157.92 114.542 157.92 114.542C157.92 114.542 162.148 116.401 168.235 113.187C174.322 109.973 176.518 105.073 176.518 105.073C176.518 105.073 167.726 104.905 169.753 95.7766C171.78 86.6486 172.29 69.0702 162.473 58.419C152.656 47.7678 133.93 42.1958 122.08 49.9686Z" fill="#263238"/>
<mask id="mask0_12_5606" style="mask-type:luminance" maskUnits="userSpaceOnUse" x="100" y="46" width="77" height="73">
<path d="M122.08 49.9686C122.08 49.9686 110.079 54.0286 107.206 61.2974C104.334 68.5662 111.602 73.2982 113.63 74.4798C115.657 75.6614 117.18 81.7598 115.489 89.5214C113.798 97.283 108.73 100.161 105.179 99.8366C101.629 99.5118 100.951 99.159 100.951 99.159C100.951 99.159 101.461 108.287 110.421 112.341C119.381 116.396 123.284 114.873 123.284 114.873C123.284 114.873 138.662 119.605 146.44 118.233C154.218 116.861 157.92 114.542 157.92 114.542C157.92 114.542 162.148 116.401 168.235 113.187C174.322 109.973 176.518 105.073 176.518 105.073C176.518 105.073 167.726 104.905 169.753 95.7766C171.78 86.6486 172.29 69.0702 162.473 58.419C152.656 47.7678 133.93 42.1958 122.08 49.9686Z" fill="white"/>
</mask>
<g mask="url(#mask0_12_5606)">
<path d="M134.238 54.2134C134.238 54.2134 139.278 71.6406 149.918 77.4478C160.558 83.255 167.838 90.3278 167.838 96.639C167.838 102.95 168.09 112.554 179.704 108.511" stroke="#6E6E6E" stroke-linecap="round" stroke-linejoin="round"/>
<path d="M137.519 50.4222C137.519 50.4222 151.665 54.7174 158.732 65.0718C165.799 75.4262 163.52 80.4774 166.32 86.3126C169.12 92.1478 173.141 92.1254 173.141 92.1254" stroke="#6E6E6E" stroke-linecap="round" stroke-linejoin="round"/>
<path d="M136.007 52.1918C136.007 52.1918 148.126 58.251 152.673 67.3454" stroke="#6E6E6E" stroke-linecap="round" stroke-linejoin="round"/>
<path d="M129.92 58.251C129.92 58.251 128.912 50.1702 137.245 49.1622" stroke="#6E6E6E" stroke-linecap="round" stroke-linejoin="round"/>
<path d="M113.277 72.1446C113.277 72.1446 105.196 68.3534 109.738 62.2942C114.279 56.235 128.173 56.739 128.173 56.739" stroke="#6E6E6E" stroke-linecap="round" stroke-linejoin="round"/>
<path d="M126.661 62.0423C126.661 62.0423 113.025 66.3374 112.773 67.3454C112.521 68.3534 114.285 68.3534 114.285 68.3534" stroke="#6E6E6E" stroke-linecap="round" stroke-linejoin="round"/>
<path d="M131.712 51.6878C131.712 51.6878 129.942 49.4142 122.366 50.9318" stroke="#6E6E6E" stroke-linecap="round" stroke-linejoin="round"/>
<path d="M101.92 107.755C101.92 107.755 115.052 110.555 120.355 94.623" stroke="#6E6E6E" stroke-linecap="round" stroke-linejoin="round"/>
<path d="M111.507 114.313C111.507 114.313 121.358 114.313 123.883 103.706" stroke="#6E6E6E" stroke-linecap="round" stroke-linejoin="round"/>
<path d="M155.45 97.1487C155.45 97.1487 153.681 115.836 165.53 117.869" stroke="#6E6E6E" stroke-linecap="round" stroke-linejoin="round"/>
</g>
<path d="M122.08 49.9686C122.08 49.9686 110.079 54.0286 107.206 61.2974C104.334 68.5662 111.602 73.2982 113.63 74.4798C115.657 75.6614 117.18 81.7598 115.489 89.5214C113.798 97.283 108.73 100.161 105.179 99.8366C101.629 99.5118 100.951 99.159 100.951 99.159C100.951 99.159 101.461 108.287 110.421 112.341C119.381 116.396 123.284 114.873 123.284 114.873C123.284 114.873 138.662 119.605 146.44 118.233C154.218 116.861 157.92 114.542 157.92 114.542C157.92 114.542 162.148 116.401 168.235 113.187C174.322 109.973 176.518 105.073 176.518 105.073C176.518 105.073 167.726 104.905 169.753 95.7766C171.78 86.6486 172.29 69.0702 162.473 58.419C152.656 47.7678 133.93 42.1958 122.08 49.9686Z" stroke="#263238" stroke-linecap="round" stroke-linejoin="round"/>
<path d="M113.148 125.692C113.148 125.692 104.558 124.975 100.268 129.808C95.9784 134.641 75.3872 167.395 70.7336 174.048C66.08 180.701 66.08 192.483 74.6536 194.096C83.2272 195.709 91.4536 186.043 95.06 181.563C96.8762 179.225 98.8501 177.013 100.968 174.944C100.968 174.944 99.3552 168.14 104.188 157.22C109.021 146.3 112.426 137.709 114.033 133.056C115.64 128.402 113.148 125.692 113.148 125.692Z" fill="white"/>
<mask id="mask1_12_5606" style="mask-type:luminance" maskUnits="userSpaceOnUse" x="67" y="125" width="48" height="70">
<path d="M113.148 125.692C113.148 125.692 104.558 124.975 100.268 129.808C95.9784 134.641 75.3872 167.395 70.7336 174.048C66.08 180.701 66.08 192.483 74.6536 194.096C83.2272 195.709 91.4536 186.043 95.06 181.563C96.8762 179.225 98.8501 177.013 100.968 174.944C100.968 174.944 99.3552 168.14 104.188 157.22C109.021 146.3 112.426 137.709 114.033 133.056C115.64 128.402 113.148 125.692 113.148 125.692Z" fill="white"/>
</mask>
<g mask="url(#mask1_12_5606)">
<path opacity="0.1" d="M106.4 152.141L108.959 134.781C108.959 134.781 89.7792 171.337 84.3528 178.937C81.0824 183.512 75.7232 189.526 74.0208 193.905C74.228 193.961 74.4408 194.017 74.6592 194.057C83.2552 195.669 91.4592 186.004 95.0656 181.524C96.8818 179.185 98.8557 176.974 100.974 174.905C100.974 174.905 99.3608 168.101 104.194 157.181C104.97 155.441 105.706 153.761 106.4 152.141Z" fill="black"/>
</g>
<path d="M113.148 125.692C113.148 125.692 104.558 124.975 100.268 129.808C95.9784 134.641 75.3872 167.395 70.7336 174.048C66.08 180.701 66.08 192.483 74.6536 194.096C83.2272 195.709 91.4536 186.043 95.06 181.563C96.8762 179.225 98.8501 177.013 100.968 174.944C100.968 174.944 99.3552 168.14 104.188 157.22C109.021 146.3 112.426 137.709 114.033 133.056C115.64 128.402 113.148 125.692 113.148 125.692Z" stroke="#263238" stroke-linecap="round" stroke-linejoin="round"/>
<path d="M125.322 106.361C125.322 106.361 126.398 111.91 124.964 117.281C123.53 122.651 124.068 122.651 120.484 124.079C118.129 124.974 115.656 125.518 113.142 125.692C113.142 125.692 106.523 143.052 101.511 151.289C96.4992 159.527 95.0656 168.649 97.0312 173.303C98.3044 176.221 100.003 178.935 102.071 181.356C102.071 181.356 104.933 191.559 103.32 198.156C101.707 204.753 97.776 214.267 96.1632 228.586C94.5504 242.905 95.4464 259.19 95.4464 259.19H189.403C189.403 259.19 189.224 241.113 187.253 226.257C185.282 211.4 182.958 210.179 179.76 201.225C176.562 192.27 176.176 191.917 176.176 185.657C176.176 179.396 177.968 162.562 177.43 151.289C176.893 140.017 174.21 131.241 169.557 128.016C164.903 124.79 153.804 123.536 149.688 120.68C145.572 117.824 148.075 99.5566 148.075 99.5566C148.075 99.5566 141.098 104.037 135.369 105.644C132.114 106.62 128.683 106.864 125.322 106.361Z" fill="white"/>
<mask id="mask2_12_5606" style="mask-type:luminance" maskUnits="userSpaceOnUse" x="95" y="99" width="95" height="161">
<path d="M125.322 106.361C125.322 106.361 126.398 111.91 124.964 117.281C123.53 122.651 124.068 122.651 120.484 124.079C118.129 124.974 115.656 125.518 113.142 125.692C113.142 125.692 106.523 143.052 101.511 151.289C96.4992 159.527 95.0656 168.649 97.0312 173.303C98.3044 176.221 100.003 178.935 102.071 181.356C102.071 181.356 104.933 191.559 103.32 198.156C101.707 204.753 97.776 214.267 96.1632 228.586C94.5504 242.905 95.4464 259.19 95.4464 259.19H189.403C189.403 259.19 189.224 241.113 187.253 226.257C185.282 211.4 182.958 210.179 179.76 201.225C176.562 192.27 176.176 191.917 176.176 185.657C176.176 179.396 177.968 162.562 177.43 151.289C176.893 140.017 174.21 131.241 169.557 128.016C164.903 124.79 153.804 123.536 149.688 120.68C145.572 117.824 148.075 99.5566 148.075 99.5566C148.075 99.5566 141.098 104.037 135.369 105.644C132.114 106.62 128.683 106.864 125.322 106.361Z" fill="white"/>
</mask>
<g mask="url(#mask2_12_5606)">
<path opacity="0.1" d="M142.24 122.153C148.299 125.613 156.89 127.226 165.446 126.073C160.126 124.141 152.813 122.892 149.643 120.685C145.527 117.824 148.03 99.5622 148.03 99.5622C144.918 101.519 141.649 103.216 138.258 104.636L138.617 109.827C138.617 109.827 134.663 117.785 142.24 122.153Z" fill="black"/>
<path opacity="0.1" d="M167.233 157.231C167.233 157.231 165.424 170.621 168.678 173.157C171.931 175.694 173.746 174.602 173.746 166.281C173.746 157.959 167.955 155.422 167.233 157.231Z" fill="black"/>
</g>
<path d="M125.322 106.361C125.322 106.361 126.398 111.91 124.964 117.281C123.53 122.651 124.068 122.651 120.484 124.079C118.129 124.974 115.656 125.518 113.142 125.692C113.142 125.692 106.523 143.052 101.511 151.289C96.4992 159.527 95.0656 168.649 97.0312 173.303C98.3044 176.221 100.003 178.935 102.071 181.356C102.071 181.356 104.933 191.559 103.32 198.156C101.707 204.753 97.776 214.267 96.1632 228.586C94.5504 242.905 95.4464 259.19 95.4464 259.19H189.403C189.403 259.19 189.224 241.113 187.253 226.257C185.282 211.4 182.958 210.179 179.76 201.225C176.562 192.27 176.176 191.917 176.176 185.657C176.176 179.396 177.968 162.562 177.43 151.289C176.893 140.017 174.21 131.241 169.557 128.016C164.903 124.79 153.804 123.536 149.688 120.68C145.572 117.824 148.075 99.5566 148.075 99.5566C148.075 99.5566 141.098 104.037 135.369 105.644C132.114 106.62 128.683 106.864 125.322 106.361Z" stroke="#263238" stroke-linecap="round" stroke-linejoin="round"/>
<path d="M125.597 113.618C128.943 115.101 132.732 115.235 136.175 113.993C138.544 113.159 144.262 109.071 147.403 106.747C147.61 102.793 148.053 99.5566 148.053 99.5566C148.053 99.5566 141.075 104.037 135.346 105.644C132.098 106.616 128.676 106.861 125.322 106.361C125.718 108.759 125.81 111.197 125.597 113.618Z" fill="#263238" stroke="#263238" stroke-linecap="round" stroke-linejoin="round"/>
<path d="M187.253 226.313C186.458 220.321 185.606 216.546 184.66 213.584C147.14 226.951 112.666 220.864 98.084 217.095C97.2285 220.906 96.5817 224.761 96.1464 228.642C94.5336 242.961 95.4296 259.246 95.4296 259.246H189.403C189.403 259.246 189.224 241.141 187.253 226.313Z" fill="#263238" stroke="#263238" stroke-linecap="round" stroke-linejoin="round"/>
<path d="M143.086 257.359C143.086 257.359 151.166 239.103 165.486 231.801" stroke="#6E6E6E" stroke-linecap="round" stroke-linejoin="round"/>
<path d="M140.218 254.749C141.678 249.086 144.549 243.884 148.562 239.629" stroke="#6E6E6E" stroke-linecap="round" stroke-linejoin="round"/>
<path d="M106.316 231.022C106.316 231.022 111.009 240.665 119.874 246.142" stroke="#6E6E6E" stroke-linecap="round" stroke-linejoin="round"/>
<path d="M176.154 185.657C176.154 182.638 176.568 177.178 176.938 171.097C173.51 171.225 168.571 170.805 164.881 167.955C158.614 163.122 155.394 153.815 156.285 143.791C156.901 136.931 159.359 128.979 160.849 124.645C159.466 124.253 157.797 123.833 156.458 123.446C155.68 126.313 154.605 130.967 152.706 136.455C149.486 145.762 143.746 157.931 132.121 158.11C120.495 158.289 111.362 154.689 113.68 144.485C115.36 137.088 117.527 128.755 118.586 124.729C116.81 125.239 114.985 125.562 113.142 125.692C113.142 125.692 106.523 143.052 101.511 151.289C96.4992 159.527 95.0656 168.649 97.0312 173.303C98.3044 176.221 100.003 178.935 102.071 181.356C102.071 181.356 104.933 191.559 103.32 198.156C101.948 203.812 98.8792 211.596 97.0088 222.622C101.864 225.288 113.036 229.902 133.409 230.91C156.537 232.03 178.769 225.568 186.799 222.897C184.934 211.137 182.728 209.417 179.771 201.197C176.512 192.276 176.154 191.917 176.154 185.657Z" fill="#33941B"/>
<mask id="mask3_12_5606" style="mask-type:luminance" maskUnits="userSpaceOnUse" x="96" y="123" width="91" height="109">
<path d="M176.154 185.657C176.154 182.638 176.568 177.178 176.938 171.097C173.51 171.225 168.571 170.805 164.881 167.955C158.614 163.122 155.394 153.815 156.285 143.791C156.901 136.931 159.359 128.979 160.849 124.645C159.466 124.253 157.797 123.833 156.458 123.446C155.68 126.313 154.605 130.967 152.706 136.455C149.486 145.762 143.746 157.931 132.121 158.11C120.495 158.289 111.362 154.689 113.68 144.485C115.36 137.088 117.527 128.755 118.586 124.729C116.81 125.239 114.985 125.562 113.142 125.692C113.142 125.692 106.523 143.052 101.511 151.289C96.4992 159.527 95.0656 168.649 97.0312 173.303C98.3044 176.221 100.003 178.935 102.071 181.356C102.071 181.356 104.933 191.559 103.32 198.156C101.948 203.812 98.8792 211.596 97.0088 222.622C101.864 225.288 113.036 229.902 133.409 230.91C156.537 232.03 178.769 225.568 186.799 222.897C184.934 211.137 182.728 209.417 179.771 201.197C176.512 192.276 176.154 191.917 176.154 185.657Z" fill="white"/>
</mask>
<g mask="url(#mask3_12_5606)">
<path opacity="0.1" d="M154.286 230.137C165.323 228.805 176.202 226.389 186.766 222.925C184.901 211.165 182.694 209.445 179.738 201.225C176.512 192.265 176.154 191.917 176.154 185.657C176.154 182.638 176.568 177.178 176.938 171.097C173.51 171.225 168.571 170.805 164.881 167.955C159.93 164.141 156.895 157.528 156.268 149.985C152.443 157.494 144.816 170.632 136.455 174.815C124.505 180.79 117.04 177.43 106.96 173.32C99.68 170.352 97.44 170.895 97.076 173.404C98.3367 176.291 100.014 178.978 102.054 181.378C102.054 181.378 102.614 183.478 103.13 186.379C105.666 188.429 109.189 190.523 114.055 192.735C126.375 198.335 146.905 201.695 157.735 208.04C168.566 214.385 159.975 220.735 154.745 228.575C154.45 229.043 154.291 229.584 154.286 230.137Z" fill="black"/>
</g>
<path d="M176.154 185.657C176.154 182.638 176.568 177.178 176.938 171.097C173.51 171.225 168.571 170.805 164.881 167.955C158.614 163.122 155.394 153.815 156.285 143.791C156.901 136.931 159.359 128.979 160.849 124.645C159.466 124.253 157.797 123.833 156.458 123.446C155.68 126.313 154.605 130.967 152.706 136.455C149.486 145.762 143.746 157.931 132.121 158.11C120.495 158.289 111.362 154.689 113.68 144.485C115.36 137.088 117.527 128.755 118.586 124.729C116.81 125.239 114.985 125.562 113.142 125.692C113.142 125.692 106.523 143.052 101.511 151.289C96.4992 159.527 95.0656 168.649 97.0312 173.303C98.3044 176.221 100.003 178.935 102.071 181.356C102.071 181.356 104.933 191.559 103.32 198.156C101.948 203.812 98.8792 211.596 97.0088 222.622C101.864 225.288 113.036 229.902 133.409 230.91C156.537 232.03 178.769 225.568 186.799 222.897C184.934 211.137 182.728 209.417 179.771 201.197C176.512 192.276 176.154 191.917 176.154 185.657Z" stroke="#263238" stroke-linecap="round" stroke-linejoin="round"/>
<path d="M105.661 182.851C105.661 182.851 109.463 184.665 115.741 184.665" stroke="#263238" stroke-linecap="round" stroke-linejoin="round"/>
<path d="M78.8368 119.425C78.8368 119.425 78.5176 116.838 78.2768 112.739C78.036 108.64 77.7168 105.409 79.6824 104.977C81.648 104.546 82.376 106.484 82.376 108.752C82.376 111.02 83.4568 115.976 84.616 119.319C85.7752 122.662 86.9904 124.499 85.176 125.361C83.3616 126.224 79.38 122.662 78.8368 119.425Z" fill="white" stroke="#263238" stroke-linecap="round" stroke-linejoin="round"/>
<path d="M117.04 113.926C117.04 113.926 113.568 115.993 113.12 118.888C112.672 121.783 114.307 123.849 118.838 123.312C123.368 122.774 123.15 119.952 123.15 119.952L117.04 113.926Z" fill="#33941B" stroke="#263238" stroke-linecap="round" stroke-linejoin="round"/>
<path d="M119.235 117.113C119.235 117.113 116.396 118.462 115.584 119.952C114.772 121.441 113.557 122.657 116.396 121.71C119.235 120.764 120.322 116.995 119.235 117.113Z" fill="white" stroke="#263238" stroke-linecap="round" stroke-linejoin="round"/>
<path d="M113.971 119.353C110.645 120.159 108.836 119.151 107.022 119.554C106.627 119.646 106.226 119.713 105.823 119.756C103.247 118.865 101.13 117.365 98.8568 115.735C97.9832 115.108 97.076 114.458 96.1128 113.825C90.3728 110.034 80.9928 107.587 80.612 107.486C80.4545 107.447 80.2881 107.472 80.1489 107.555C80.0096 107.639 79.9088 107.773 79.8682 107.93C79.8277 108.087 79.8507 108.254 79.9323 108.394C80.0139 108.534 80.1474 108.637 80.304 108.679C80.3992 108.679 89.8688 111.171 95.424 114.839C96.3648 115.461 97.2664 116.105 98.1288 116.726C102.519 119.868 108.741 123.301 114.296 121.514C114.421 121.494 114.537 121.435 114.628 121.346C114.718 121.256 114.778 121.141 114.8 121.016C115.657 119.913 113.971 119.353 113.971 119.353Z" fill="white" stroke="#263238" stroke-linecap="round" stroke-linejoin="round"/>
<path d="M114.576 120.081C112.897 120.675 111.09 120.814 109.34 120.484" stroke="#263238" stroke-linecap="round" stroke-linejoin="round"/>
<path d="M76.8152 119.605C76.8152 119.605 74.4856 121.934 75.0232 123.004" stroke="#263238" stroke-linecap="round" stroke-linejoin="round"/>
<path d="M92.4 130.166L90.2496 127.663C90.2496 127.663 91.7952 121.01 92.5792 119.067C92.9516 118.233 93.235 117.362 93.4248 116.469C93.9848 115.349 94.276 113.389 93.52 112.633C92.8536 111.966 92.0248 112.778 91.84 112.985H91.812C91.875 112.782 91.8888 112.567 91.8524 112.357C91.8159 112.148 91.7302 111.95 91.6022 111.78C91.4743 111.609 91.3078 111.472 91.1164 111.379C90.9251 111.286 90.7144 111.24 90.5016 111.244C88.7768 111.132 87.2536 112.515 87.2536 112.515C87.2536 112.515 86.9456 111.244 85.9768 111.244C85.008 111.244 83.0648 112.969 82.3088 113.937C82.2528 114.01 82.2024 114.083 82.1464 114.167C80.332 115.886 76.832 119.616 76.832 119.616C76.832 119.616 77.728 115.858 79.3352 114.245C80.9424 112.633 85.2432 109.592 84.5264 108.164C83.8096 106.736 81.6648 108.164 81.6648 108.164C81.6648 108.164 71.9992 113.349 71.82 115.5C71.6408 117.65 69.132 126.778 70.028 127.674C70.924 128.57 82.908 135.906 82.908 135.906C82.908 135.906 74.1328 153.445 70.9128 161.145C67.6928 168.845 64.4672 176.713 64.1088 183.697C63.7504 190.68 68.0288 195.871 75.3872 195.871C82.7456 195.871 85.9488 190.859 87.024 181.193C88.0992 171.528 93.2848 142.525 93.6432 137.513C94.0016 132.501 94.5336 132.675 92.4 130.166Z" fill="white"/>
<mask id="mask4_12_5606" style="mask-type:luminance" maskUnits="userSpaceOnUse" x="64" y="107" width="30" height="89">
<path d="M92.4 130.166L90.2496 127.663C90.2496 127.663 91.7952 121.01 92.5792 119.067C92.9516 118.233 93.235 117.362 93.4248 116.469C93.9848 115.349 94.276 113.389 93.52 112.633C92.8536 111.966 92.0248 112.778 91.84 112.985H91.812C91.875 112.782 91.8888 112.567 91.8524 112.357C91.8159 112.148 91.7302 111.95 91.6022 111.78C91.4743 111.609 91.3078 111.472 91.1164 111.379C90.9251 111.286 90.7144 111.24 90.5016 111.244C88.7768 111.132 87.2536 112.515 87.2536 112.515C87.2536 112.515 86.9456 111.244 85.9768 111.244C85.008 111.244 83.0648 112.969 82.3088 113.937C82.2528 114.01 82.2024 114.083 82.1464 114.167C80.332 115.886 76.832 119.616 76.832 119.616C76.832 119.616 77.728 115.858 79.3352 114.245C80.9424 112.633 85.2432 109.592 84.5264 108.164C83.8096 106.736 81.6648 108.164 81.6648 108.164C81.6648 108.164 71.9992 113.349 71.82 115.5C71.6408 117.65 69.132 126.778 70.028 127.674C70.924 128.57 82.908 135.906 82.908 135.906C82.908 135.906 74.1328 153.445 70.9128 161.145C67.6928 168.845 64.4672 176.713 64.1088 183.697C63.7504 190.68 68.0288 195.871 75.3872 195.871C82.7456 195.871 85.9488 190.859 87.024 181.193C88.0992 171.528 93.2848 142.525 93.6432 137.513C94.0016 132.501 94.5336 132.675 92.4 130.166Z" fill="white"/>
</mask>
<g mask="url(#mask4_12_5606)">
<path opacity="0.1" d="M87.0184 181.182C88.0936 171.517 93.2792 142.514 93.6376 137.502C93.996 132.49 94.5336 132.669 92.3888 130.161L90.2384 127.657C90.2384 127.657 91.784 121.005 92.568 119.061C92.9404 118.227 93.2238 117.356 93.4136 116.463C93.8407 115.569 94.015 114.576 93.9176 113.59L93.7664 113.797C93.7664 113.797 87.6064 127.187 87.976 129.724C88.2616 131.734 75.0456 128.486 69.9888 127.618V127.657C70.8848 128.548 82.8688 135.889 82.8688 135.889C82.8688 135.889 89.0288 137.323 87.9424 143.113C86.856 148.904 79.7776 185.298 74.6312 194.073C74.285 194.658 73.8877 195.211 73.444 195.725C74.075 195.813 74.711 195.86 75.348 195.865C82.7232 195.86 85.9432 190.848 87.0184 181.182Z" fill="black"/>
</g>
<path d="M92.4 130.166L90.2496 127.663C90.2496 127.663 91.7952 121.01 92.5792 119.067C92.9516 118.233 93.235 117.362 93.4248 116.469C93.9848 115.349 94.276 113.389 93.52 112.633C92.8536 111.966 92.0248 112.778 91.84 112.985H91.812C91.875 112.782 91.8888 112.567 91.8524 112.357C91.8159 112.148 91.7302 111.95 91.6022 111.78C91.4743 111.609 91.3078 111.472 91.1164 111.379C90.9251 111.286 90.7144 111.24 90.5016 111.244C88.7768 111.132 87.2536 112.515 87.2536 112.515C87.2536 112.515 86.9456 111.244 85.9768 111.244C85.008 111.244 83.0648 112.969 82.3088 113.937C82.2528 114.01 82.2024 114.083 82.1464 114.167C80.332 115.886 76.832 119.616 76.832 119.616C76.832 119.616 77.728 115.858 79.3352 114.245C80.9424 112.633 85.2432 109.592 84.5264 108.164C83.8096 106.736 81.6648 108.164 81.6648 108.164C81.6648 108.164 71.9992 113.349 71.82 115.5C71.6408 117.65 69.132 126.778 70.028 127.674C70.924 128.57 82.908 135.906 82.908 135.906C82.908 135.906 74.1328 153.445 70.9128 161.145C67.6928 168.845 64.4672 176.713 64.1088 183.697C63.7504 190.68 68.0288 195.871 75.3872 195.871C82.7456 195.871 85.9488 190.859 87.024 181.193C88.0992 171.528 93.2848 142.525 93.6432 137.513C94.0016 132.501 94.5336 132.675 92.4 130.166Z" stroke="#263238" stroke-linecap="round" stroke-linejoin="round"/>
<path d="M87.2368 112.504C87.2368 112.504 83.1544 118.35 82.292 119.969C81.7244 121.226 81.394 122.578 81.3176 123.956" stroke="#263238" stroke-linecap="round" stroke-linejoin="round"/>
<path d="M86.2792 125.574C86.4349 123.931 86.8725 122.326 87.5728 120.831C88.6536 118.457 91.8232 112.991 91.8232 112.991" stroke="#263238" stroke-linecap="round" stroke-linejoin="round"/>
<path d="M166.639 153.417C166.639 153.417 174.322 185.382 175.857 191.525C177.391 197.669 182.722 207.502 190.562 205.811C198.402 204.12 199.136 194.381 198.962 185.164C198.789 175.946 193.39 155.377 189.549 145.852C185.707 136.326 180.589 129.293 173.533 127.293C166.477 125.294 162.467 125.91 162.467 125.91" fill="white"/>
<mask id="mask5_12_5606" style="mask-type:luminance" maskUnits="userSpaceOnUse" x="162" y="125" width="37" height="82">
<path d="M166.639 153.417C166.639 153.417 174.322 185.382 175.857 191.525C177.391 197.669 182.722 207.502 190.562 205.811C198.402 204.12 199.136 194.381 198.962 185.164C198.789 175.946 193.39 155.377 189.549 145.852C185.707 136.326 180.589 129.293 173.533 127.293C166.477 125.294 162.467 125.91 162.467 125.91" fill="white"/>
</mask>
<g mask="url(#mask5_12_5606)">
<path opacity="0.1" d="M198.985 185.164C198.834 175.946 193.413 155.377 189.571 145.852C185.73 136.326 180.611 129.293 173.555 127.293C171.649 126.748 169.707 126.34 167.742 126.073C170.722 127.338 180.622 132.793 186.413 151.082C193.29 172.793 197.613 189.078 190.394 196.677C186.609 200.653 183.114 200.861 179.474 199.746C182.095 203.717 185.881 206.819 190.562 205.811C198.397 204.12 199.136 194.393 198.985 185.164Z" fill="black"/>
</g>
<path d="M166.639 153.417C166.639 153.417 174.322 185.382 175.857 191.525C177.391 197.669 182.722 207.502 190.562 205.811C198.402 204.12 199.136 194.381 198.962 185.164C198.789 175.946 193.39 155.377 189.549 145.852C185.707 136.326 180.589 129.293 173.533 127.293C166.477 125.294 162.467 125.91 162.467 125.91" stroke="#263238" stroke-linecap="round" stroke-linejoin="round"/>
<path d="M163.218 149.335L111.608 150.153L118.384 167.989H118.457C119.963 172.469 127.854 175.913 137.368 175.913C146.53 175.913 154.168 172.732 156.083 168.481H156.206L163.218 149.335Z" fill="white" stroke="#263238" stroke-linecap="round" stroke-linejoin="round"/>
<path d="M137.368 157.253C151.647 157.253 163.223 153.708 163.223 149.335C163.223 144.962 151.647 141.417 137.368 141.417C123.089 141.417 111.513 144.962 111.513 149.335C111.513 153.708 123.089 157.253 137.368 157.253Z" fill="white" stroke="#263238" stroke-linecap="round" stroke-linejoin="round"/>
<path d="M137.368 155.876C150.735 155.876 161.571 152.744 161.571 148.881C161.571 145.019 150.735 141.887 137.368 141.887C124.001 141.887 113.165 145.019 113.165 148.881C113.165 152.744 124.001 155.876 137.368 155.876Z" fill="white" stroke="#263238" stroke-linecap="round" stroke-linejoin="round"/>
<mask id="mask6_12_5606" style="mask-type:luminance" maskUnits="userSpaceOnUse" x="111" y="135" width="54" height="21">
<path d="M164.36 135.307H111.922V149.789H113.786C115.405 153.149 125.345 155.713 137.379 155.713C148.753 155.713 158.256 153.412 160.63 150.332L161.19 149.688L163.576 148.495L164.36 135.307Z" fill="white"/>
</mask>
<g mask="url(#mask6_12_5606)">
<path d="M113.557 148.831C113.557 148.831 112.437 144.765 113.249 144.631C114.061 144.497 115.377 146.429 116.682 145.124C117.986 143.819 118.972 142.016 120.77 142.178C122.567 142.341 122.405 144.306 123.57 144.306C124.734 144.306 126.185 142.178 126.84 144.469C127.495 146.759 125.72 150.192 124.55 151.497C123.379 152.801 120.792 152.477 117.197 152.477C113.602 152.477 113.557 148.831 113.557 148.831Z" fill="#33941B" stroke="#263238" stroke-linecap="round" stroke-linejoin="round"/>
<path d="M117.174 152.477L116.043 147.761" stroke="#263238" stroke-linecap="round" stroke-linejoin="round"/>
<path d="M118.882 152.365L119.157 144.648" stroke="#263238" stroke-linecap="round" stroke-linejoin="round"/>
<path d="M132.961 144.782C132.961 144.782 131.471 142.615 132.692 141.125C133.913 139.636 134.45 140.857 136.752 141.125C139.054 141.394 138.785 139.233 141.49 140.045C144.194 140.857 145.04 142.873 145.824 142.873C146.608 142.873 148.394 141.786 150.018 143.433C151.642 145.079 151.234 146.009 152.046 146.009C152.858 146.009 154.078 144.922 154.347 146.821C154.616 148.719 153.787 149.934 152.454 149.934C151.122 149.934 148.663 147.633 146.093 147.901C143.522 148.17 142.57 149.257 140.678 148.848C138.785 148.439 138.645 147.498 137.833 147.224C137.021 146.949 134.473 147.358 133.353 146.664C132.233 145.969 133.487 144.765 133.487 144.765L132.961 144.782Z" fill="#33941B" stroke="#263238" stroke-linecap="round" stroke-linejoin="round"/>
<path d="M139.888 145.068C139.888 145.068 138.398 142.901 139.619 141.411C140.84 139.921 141.378 141.142 143.679 141.411C145.981 141.68 145.712 139.518 148.417 140.33C151.122 141.142 151.939 143.175 152.751 143.175C153.563 143.175 155.322 142.089 156.946 143.735C158.57 145.381 158.166 146.311 158.978 146.311C159.79 146.311 161.006 145.225 161.28 147.123C161.554 149.021 160.72 150.237 159.382 150.237C158.043 150.237 155.59 147.935 153.02 148.204C150.45 148.473 149.503 149.559 147.605 149.15C145.706 148.741 145.578 147.801 144.766 147.526C143.954 147.252 141.406 147.661 140.286 146.966C139.166 146.272 140.42 145.068 140.42 145.068H139.888Z" fill="#33941B" stroke="#263238" stroke-linecap="round" stroke-linejoin="round"/>
<path d="M153.675 144.105L152.454 149.929L154.773 150.315L156.923 145.325" fill="#33941B"/>
<path d="M153.675 144.105L152.454 149.929L154.773 150.315L156.923 145.325" stroke="#263238" stroke-linecap="round" stroke-linejoin="round"/>
<path d="M146.905 142.212L147.174 145.325" stroke="#263238" stroke-linecap="round" stroke-linejoin="round"/>
<path d="M139.054 148.977C139.054 148.977 137.564 146.815 138.785 145.325C140.006 143.836 140.543 145.051 142.845 145.325C145.146 145.6 144.872 143.427 147.582 144.239C150.293 145.051 151.099 147.084 151.911 147.084C152.723 147.084 154.487 146.003 156.111 147.644C157.735 149.285 157.326 150.214 158.138 150.214C158.95 150.214 160.171 149.133 160.44 151.026C160.709 152.919 159.88 154.14 158.547 154.14C157.214 154.14 154.756 151.838 152.186 152.107C149.615 152.376 148.663 153.462 146.77 153.059C144.878 152.656 144.738 151.704 143.926 151.435C143.114 151.166 140.566 151.569 139.446 150.875C138.326 150.181 139.586 148.977 139.586 148.977H139.054Z" fill="#33941B" stroke="#263238" stroke-linecap="round" stroke-linejoin="round"/>
<path d="M139.994 150.589C142.657 150.589 144.816 149.218 144.816 147.526C144.816 145.834 142.657 144.463 139.994 144.463C137.332 144.463 135.173 145.834 135.173 147.526C135.173 149.218 137.332 150.589 139.994 150.589Z" fill="#808080" stroke="#263238" stroke-linecap="round" stroke-linejoin="round"/>
<path d="M139.888 146.983C139.888 146.983 138.555 145.381 138.947 145.006C139.339 144.631 141.187 144.525 141.411 145.073C141.635 145.622 139.888 146.983 139.888 146.983Z" fill="white"/>
<path d="M139.311 147.201C139.311 147.201 136.511 146.927 136.254 146.507C135.996 146.087 136.976 145.079 137.799 145.286C138.622 145.493 139.311 147.201 139.311 147.201Z" fill="white"/>
<path d="M139.199 147.61C139.199 147.61 137.066 148.809 136.399 148.652C135.733 148.495 135.139 147.386 135.923 147.117C136.707 146.849 139.199 147.61 139.199 147.61Z" fill="white"/>
<path d="M139.619 147.913C139.619 147.913 139.692 149.721 139.059 149.945C138.426 150.169 136.718 149.744 136.898 149.189C137.077 148.635 139.619 147.913 139.619 147.913Z" fill="white"/>
<path d="M140.28 147.913C140.28 147.913 142.52 149.033 142.38 149.486C142.24 149.94 140.633 150.494 140.078 150.046C139.524 149.598 140.28 147.913 140.28 147.913Z" fill="white"/>
<path d="M140.7 147.605C140.7 147.605 143.5 147.246 143.942 147.605C144.385 147.963 144.032 149.1 143.147 149.089C142.262 149.077 140.7 147.605 140.7 147.605Z" fill="white"/>
<path d="M140.56 147.196C140.56 147.196 141.921 145.605 142.626 145.605C143.332 145.605 144.491 146.524 143.903 146.949C143.315 147.375 140.56 147.196 140.56 147.196Z" fill="white"/>
<path d="M154.073 153.3C156.736 153.3 158.894 151.928 158.894 150.237C158.894 148.545 156.736 147.173 154.073 147.173C151.41 147.173 149.251 148.545 149.251 150.237C149.251 151.928 151.41 153.3 154.073 153.3Z" fill="#808080" stroke="#263238" stroke-linecap="round" stroke-linejoin="round"/>
<path d="M153.966 149.688C153.966 149.688 152.634 148.092 153.026 147.717C153.418 147.341 155.266 147.235 155.49 147.778C155.714 148.321 153.966 149.688 153.966 149.688Z" fill="white"/>
<path d="M153.39 149.906C153.39 149.906 150.59 149.637 150.332 149.212C150.074 148.786 151.054 147.784 151.878 147.991C152.701 148.198 153.39 149.906 153.39 149.906Z" fill="white"/>
<path d="M153.278 150.315C153.278 150.315 151.138 151.513 150.478 151.362C149.817 151.211 149.218 150.091 150.002 149.822C150.786 149.553 153.278 150.315 153.278 150.315Z" fill="white"/>
<path d="M153.698 150.634C153.698 150.634 153.77 152.443 153.138 152.667C152.505 152.891 150.797 152.465 150.976 151.911C151.155 151.357 153.698 150.634 153.698 150.634Z" fill="white"/>
<path d="M154.358 150.634C154.358 150.634 156.598 151.754 156.458 152.202C156.318 152.65 154.711 153.21 154.157 152.762C153.602 152.314 154.358 150.634 154.358 150.634Z" fill="white"/>
<path d="M154.778 150.315C154.778 150.315 157.578 149.957 158.021 150.315C158.463 150.673 158.11 151.816 157.226 151.799C156.341 151.782 154.778 150.315 154.778 150.315Z" fill="white"/>
<path d="M154.661 149.906C154.661 149.906 156.022 148.316 156.727 148.316C157.433 148.316 158.592 149.234 158.004 149.654C157.416 150.074 154.661 149.906 154.661 149.906Z" fill="white"/>
<path d="M136.08 148.019C136.08 148.019 137.256 143.953 136.399 143.819C135.542 143.685 134.159 145.617 132.826 144.312C131.494 143.007 130.48 141.193 128.576 141.366C126.672 141.54 126.896 143.494 125.686 143.494C124.477 143.494 122.959 141.366 122.276 143.657C121.593 145.947 123.469 149.38 124.662 150.685C125.854 151.989 128.582 151.665 132.322 151.665C136.063 151.665 136.08 148.019 136.08 148.019Z" fill="#33941B" stroke="#263238" stroke-linecap="round" stroke-linejoin="round"/>
<path d="M132.322 151.665L133.504 146.949" stroke="#263238" stroke-linecap="round" stroke-linejoin="round"/>
<path d="M130.542 151.553L130.262 143.836" stroke="#263238" stroke-linecap="round" stroke-linejoin="round"/>
<path d="M124.432 153.703C127.095 153.703 129.254 152.332 129.254 150.64C129.254 148.948 127.095 147.577 124.432 147.577C121.769 147.577 119.61 148.948 119.61 150.64C119.61 152.332 121.769 153.703 124.432 153.703Z" fill="#808080" stroke="#263238" stroke-linecap="round" stroke-linejoin="round"/>
<path d="M124.32 150.097C124.32 150.097 122.982 148.495 123.374 148.12C123.766 147.745 125.614 147.638 125.838 148.187C126.062 148.736 124.32 150.097 124.32 150.097Z" fill="white"/>
<path d="M123.76 150.309C123.76 150.309 120.96 150.041 120.702 149.621C120.445 149.201 121.425 148.193 122.248 148.4C123.071 148.607 123.76 150.309 123.76 150.309Z" fill="white"/>
<path d="M123.631 150.713C123.631 150.713 121.498 151.911 120.831 151.754C120.165 151.597 119.571 150.489 120.355 150.22C121.139 149.951 123.631 150.713 123.631 150.713Z" fill="white"/>
<path d="M124.057 151.043C124.057 151.043 124.13 152.852 123.497 153.076C122.864 153.3 121.156 152.874 121.335 152.32C121.514 151.765 124.057 151.043 124.057 151.043Z" fill="white"/>
<path d="M124.712 151.037C124.712 151.037 126.952 152.157 126.812 152.611C126.672 153.065 125.065 153.619 124.516 153.171C123.967 152.723 124.712 151.037 124.712 151.037Z" fill="white"/>
<path d="M125.132 150.713C125.132 150.713 127.932 150.354 128.374 150.713C128.817 151.071 128.47 152.208 127.579 152.197C126.689 152.185 125.132 150.713 125.132 150.713Z" fill="white"/>
<path d="M125.014 150.309C125.014 150.309 126.375 148.719 127.086 148.719C127.798 148.719 128.951 149.637 128.358 150.063C127.764 150.489 125.014 150.309 125.014 150.309Z" fill="white"/>
<path d="M126.134 150.578C126.134 150.578 128.374 147.218 133.907 146.658C133.907 146.658 136.618 147.47 135.531 147.605C134.445 147.739 130.39 147.33 127.131 150.718C123.872 154.106 126.134 150.578 126.134 150.578Z" fill="white" stroke="#263238" stroke-linecap="round" stroke-linejoin="round"/>
<path d="M139.138 151.771C139.138 153.339 136.982 154.616 134.316 154.616C131.65 154.616 129.494 153.339 129.494 151.771C129.494 150.203 131.65 148.932 134.316 148.932C136.982 148.932 139.138 150.203 139.138 151.771Z" fill="#808080" stroke="#263238" stroke-linecap="round" stroke-linejoin="round"/>
<path d="M134.21 151.273C134.21 151.273 132.871 149.789 133.263 149.441C133.655 149.094 135.503 148.999 135.727 149.503C135.951 150.007 134.21 151.273 134.21 151.273Z" fill="white"/>
<path d="M133.627 151.469C133.627 151.469 130.827 151.217 130.575 150.825C130.323 150.433 131.292 149.503 132.121 149.705C132.95 149.906 133.627 151.469 133.627 151.469Z" fill="white"/>
<path d="M133.515 151.833C133.515 151.833 131.382 152.953 130.715 152.801C130.049 152.65 129.455 151.625 130.234 151.373C131.012 151.121 133.515 151.833 133.515 151.833Z" fill="white"/>
<path d="M133.941 152.146C133.941 152.146 134.014 153.826 133.381 154.028C132.748 154.229 131.046 153.843 131.225 153.328C131.404 152.813 133.941 152.146 133.941 152.146Z" fill="white"/>
<path d="M134.596 152.141C134.596 152.141 136.836 153.188 136.702 153.597C136.567 154.005 134.954 154.532 134.4 154.123C133.846 153.714 134.596 152.141 134.596 152.141Z" fill="white"/>
<path d="M135.016 151.833C135.016 151.833 137.816 151.502 138.264 151.833C138.712 152.163 138.354 153.221 137.463 153.21C136.573 153.199 135.016 151.833 135.016 151.833Z" fill="white"/>
<path d="M134.898 151.463C134.898 151.463 136.265 149.99 136.97 149.996C137.676 150.001 138.835 150.847 138.247 151.239C137.659 151.631 134.898 151.463 134.898 151.463Z" fill="white"/>
<path d="M149.559 151.905C149.559 153.479 147.403 154.75 144.738 154.75C142.072 154.75 139.916 153.479 139.916 151.905C139.916 150.332 142.078 149.066 144.738 149.066C147.398 149.066 149.559 150.337 149.559 151.905Z" fill="#808080" stroke="#263238" stroke-linecap="round" stroke-linejoin="round"/>
<path d="M144.631 151.401C144.631 151.401 143.293 149.917 143.69 149.576C144.088 149.234 145.93 149.128 146.154 149.632C146.378 150.136 144.631 151.401 144.631 151.401Z" fill="white"/>
<path d="M144.054 151.603C144.054 151.603 141.254 151.357 140.997 150.959C140.739 150.561 141.714 149.637 142.542 149.839C143.371 150.041 144.054 151.603 144.054 151.603Z" fill="white"/>
<path d="M143.92 151.984C143.92 151.984 141.781 153.104 141.12 152.953C140.459 152.801 139.86 151.777 140.644 151.525C141.428 151.273 143.92 151.984 143.92 151.984Z" fill="white"/>
<path d="M144.362 152.281C144.362 152.281 144.435 153.961 143.802 154.162C143.17 154.364 141.467 153.977 141.646 153.462C141.826 152.947 144.362 152.281 144.362 152.281Z" fill="white"/>
<path d="M145.04 152.281C145.04 152.281 147.28 153.322 147.146 153.737C147.011 154.151 145.398 154.666 144.844 154.257C144.29 153.849 145.04 152.281 145.04 152.281Z" fill="white"/>
<path d="M145.438 151.984C145.438 151.984 148.238 151.648 148.686 151.984C149.134 152.32 148.775 153.373 147.89 153.361C147.006 153.35 145.438 151.984 145.438 151.984Z" fill="white"/>
<path d="M145.326 151.603C145.326 151.603 146.686 150.125 147.392 150.13C148.098 150.136 149.257 150.981 148.669 151.373C148.081 151.765 145.326 151.603 145.326 151.603Z" fill="white"/>
<path d="M138.998 147.605C138.998 147.605 137.586 151.379 132.278 153.149C132.278 153.149 129.478 152.964 130.486 152.589C131.494 152.213 135.559 151.698 137.967 147.672C140.375 143.645 138.998 147.605 138.998 147.605Z" fill="white" stroke="#263238" stroke-linecap="round" stroke-linejoin="round"/>
<path d="M151.844 149.033C151.844 149.033 150.433 152.807 145.124 154.577C145.124 154.577 142.324 154.392 143.332 154.017C144.34 153.641 148.406 153.126 150.814 149.105C153.222 145.085 151.844 149.033 151.844 149.033Z" fill="white" stroke="#263238" stroke-linecap="round" stroke-linejoin="round"/>
<path d="M117.964 153.445C117.964 153.445 114.85 151.821 117.292 151.278C119.734 150.735 120.943 153.714 121.486 152.23C122.03 150.746 122.786 149.878 124.505 150.309C126.224 150.741 124.505 152.18 126.302 152.611C128.1 153.042 126.47 149.744 129.73 151.39C132.989 153.037 132.042 155.069 133.806 155.204C135.57 155.338 135.29 151.956 137.592 152.365C139.894 152.773 138.813 153.311 140.302 153.58C141.792 153.849 142.061 152.365 143.55 153.311C145.04 154.257 145.986 155.204 146.798 154.666C147.61 154.129 147.358 153.445 148.831 153.177C150.304 152.908 150.455 152.365 151.536 151.009C152.617 149.654 154.246 151.569 155.87 151.569C157.494 151.569 157.629 151.569 158.441 149.945C158.665 149.482 159.009 149.087 159.437 148.801C159.866 148.516 160.363 148.35 160.877 148.321C160.877 148.321 162.232 149.671 160.474 151.295C158.715 152.919 151.805 156.71 146.395 157.253C140.986 157.797 133.398 158.469 126.767 157.522C120.137 156.576 117.964 153.445 117.964 153.445Z" fill="#33941B" stroke="#263238" stroke-linecap="round" stroke-linejoin="round"/>
<path d="M142.38 149.497C142.38 149.497 144.62 146.137 150.153 145.577C150.153 145.577 152.863 146.389 151.777 146.524C150.69 146.658 146.636 146.255 143.377 149.637C140.118 153.02 142.38 149.497 142.38 149.497Z" fill="white" stroke="#263238" stroke-linecap="round" stroke-linejoin="round"/>
</g>
<path d="M130.082 59.9254C130.082 59.9254 117.286 65.6374 115.522 70.1622C113.758 74.687 114.738 79.223 113.159 84.3414C111.58 89.4598 108.237 92.019 110.796 99.3046C113.355 106.59 122.22 109.737 125.765 111.317C129.127 112.818 132.941 112.959 136.405 111.709C139.765 110.527 149.794 102.849 149.794 102.849C149.794 102.849 150.78 104.227 155.109 102.653C159.438 101.08 161.829 93.2006 160.625 89.6558C159.421 86.111 154.123 88.6702 154.123 88.6702C154.123 88.6702 128.509 73.511 130.082 59.9254Z" fill="white"/>
<mask id="mask7_12_5606" style="mask-type:luminance" maskUnits="userSpaceOnUse" x="109" y="59" width="52" height="54">
<path d="M130.082 59.9254C130.082 59.9254 117.286 65.6374 115.522 70.1622C113.758 74.687 114.738 79.223 113.159 84.3414C111.58 89.4598 108.237 92.019 110.796 99.3046C113.355 106.59 122.22 109.737 125.765 111.317C129.127 112.818 132.941 112.959 136.405 111.709C139.765 110.527 149.794 102.849 149.794 102.849C149.794 102.849 150.78 104.227 155.109 102.653C159.438 101.08 161.829 93.2006 160.625 89.6558C159.421 86.111 154.123 88.6702 154.123 88.6702C154.123 88.6702 128.509 73.511 130.082 59.9254Z" fill="white"/>
</mask>
<g mask="url(#mask7_12_5606)">
<path opacity="0.1" d="M154.101 88.6702C149.737 85.9895 145.601 82.9533 141.736 79.5926C142.806 83.5518 144.984 92.6182 144.43 98.963C143.707 107.285 136.108 110.544 129.595 111.283C128.722 111.378 128.296 111.692 128.206 112.157C130.916 112.813 133.758 112.661 136.382 111.72C139.742 110.538 149.772 102.861 149.772 102.861C149.772 102.861 150.758 104.238 155.086 102.665C159.415 101.091 161.806 93.2118 160.602 89.667C159.398 86.1222 154.101 88.6702 154.101 88.6702Z" fill="black"/>
</g>
<path d="M130.082 59.9254C130.082 59.9254 117.286 65.6374 115.522 70.1622C113.758 74.687 114.738 79.223 113.159 84.3414C111.58 89.4598 108.237 92.019 110.796 99.3046C113.355 106.59 122.22 109.737 125.765 111.317C129.127 112.818 132.941 112.959 136.405 111.709C139.765 110.527 149.794 102.849 149.794 102.849C149.794 102.849 150.78 104.227 155.109 102.653C159.438 101.08 161.829 93.2006 160.625 89.6558C159.421 86.111 154.123 88.6702 154.123 88.6702C154.123 88.6702 128.509 73.511 130.082 59.9254Z" stroke="#263238" stroke-linecap="round" stroke-linejoin="round"/>
<path d="M124.964 81.3846C124.681 82.8391 123.918 84.1565 122.797 85.1254C121.027 86.503 119.65 87.4886 121.419 89.0454C123.189 90.6022 124.572 90.0254 124.572 90.0254" stroke="#263238" stroke-linecap="round" stroke-linejoin="round"/>
<path d="M122.601 95.3678C122.601 95.3678 125.754 97.5294 130.278 94.3822" stroke="#263238" stroke-linecap="round" stroke-linejoin="round"/>
<path d="M129.886 92.8086C129.886 92.8086 129.494 93.7886 131.264 95.5638" stroke="#263238" stroke-linecap="round" stroke-linejoin="round"/>
<path d="M116.693 81.5806C117.516 81.028 118.493 80.7498 119.484 80.786C120.474 80.8222 121.428 81.1709 122.209 81.7822" stroke="#263238" stroke-linecap="round" stroke-linejoin="round"/>
<path d="M130.48 82.1742C130.48 82.1742 132.843 80.007 136.388 82.5662" stroke="#263238" stroke-linecap="round" stroke-linejoin="round"/>
<path d="M116.889 76.0702C116.889 76.0702 119.65 72.5254 123.189 74.099" stroke="#263238" stroke-width="3" stroke-linecap="round" stroke-linejoin="round"/>
<path d="M128.509 74.3006C128.509 74.3006 132.25 72.1334 135.598 76.0702" stroke="#263238" stroke-width="3" stroke-linecap="round" stroke-linejoin="round"/>
<path d="M193.99 194.292C192.499 191.774 190.472 189.615 188.052 187.969C185.632 186.324 182.879 185.232 179.99 184.772C170.005 183.092 160.63 182.773 157.248 181.081C153.866 179.39 152.18 175.705 150.332 173.241C148.156 170.583 145.561 168.298 142.649 166.477C140.347 165.093 139.115 166.174 139.574 167.709C140.034 169.243 141.73 170.167 142.934 172.009C143.727 173.287 144.295 174.69 144.614 176.159C144.614 176.159 141.697 176.618 135.699 172.474C129.702 168.33 125.255 165.401 124.639 166.785C124.271 167.548 124.163 168.412 124.331 169.243C124.331 169.243 121.408 167.401 120.971 169.4C120.534 171.399 124.197 175.56 124.197 175.56C124.197 175.56 125.278 177.1 126.963 179.25C129.201 182.319 132.416 184.535 136.08 185.533C141.154 187.068 145.454 188.451 148.221 189.683C150.987 190.915 167.888 203.358 178.802 206.741C189.717 210.123 194.785 205.509 196.778 201.667C197.984 199.241 198.464 196.519 198.162 193.827" fill="white"/>
<mask id="mask8_12_5606" style="mask-type:luminance" maskUnits="userSpaceOnUse" x="120" y="165" width="79" height="43">
<path d="M193.99 194.292C192.499 191.774 190.472 189.615 188.052 187.969C185.632 186.324 182.879 185.232 179.99 184.772C170.005 183.092 160.63 182.773 157.248 181.081C153.866 179.39 152.18 175.705 150.332 173.241C148.156 170.583 145.561 168.298 142.649 166.477C140.347 165.093 139.115 166.174 139.574 167.709C140.034 169.243 141.73 170.167 142.934 172.009C143.727 173.287 144.295 174.69 144.614 176.159C144.614 176.159 141.697 176.618 135.699 172.474C129.702 168.33 125.255 165.401 124.639 166.785C124.271 167.548 124.163 168.412 124.331 169.243C124.331 169.243 121.408 167.401 120.971 169.4C120.534 171.399 124.197 175.56 124.197 175.56C124.197 175.56 125.278 177.1 126.963 179.25C129.201 182.319 132.416 184.535 136.08 185.533C141.154 187.068 145.454 188.451 148.221 189.683C150.987 190.915 167.888 203.358 178.802 206.741C189.717 210.123 194.785 205.509 196.778 201.667C197.984 199.241 198.464 196.519 198.162 193.827" fill="white"/>
</mask>
<g mask="url(#mask8_12_5606)">
<path opacity="0.1" d="M198.139 193.833L193.99 194.292C193.674 193.705 193.315 193.144 192.914 192.612C192.351 194.115 191.494 195.491 190.394 196.661C183.154 204.26 176.887 198.1 169.042 195.216C161.196 192.332 145.522 184.357 137.558 184.721C136.235 184.781 134.91 184.738 133.594 184.593C134.394 184.955 135.217 185.264 136.058 185.517C141.131 187.051 145.432 188.434 148.198 189.666C150.965 190.898 167.866 203.341 178.78 206.724C189.694 210.106 194.762 205.492 196.756 201.65C197.957 199.231 198.437 196.517 198.139 193.833Z" fill="black"/>
</g>
<path d="M193.99 194.292C192.499 191.774 190.472 189.615 188.052 187.969C185.632 186.324 182.879 185.232 179.99 184.772C170.005 183.092 160.63 182.773 157.248 181.081C153.866 179.39 152.18 175.705 150.332 173.241C148.156 170.583 145.561 168.298 142.649 166.477C140.347 165.093 139.115 166.174 139.574 167.709C140.034 169.243 141.73 170.167 142.934 172.009C143.727 173.287 144.295 174.69 144.614 176.159C144.614 176.159 141.697 176.618 135.699 172.474C129.702 168.33 125.255 165.401 124.639 166.785C124.271 167.548 124.163 168.412 124.331 169.243C124.331 169.243 121.408 167.401 120.971 169.4C120.534 171.399 124.197 175.56 124.197 175.56C124.197 175.56 125.278 177.1 126.963 179.25C129.201 182.319 132.416 184.535 136.08 185.533C141.154 187.068 145.454 188.451 148.221 189.683C150.987 190.915 167.888 203.358 178.802 206.741C189.717 210.123 194.785 205.509 196.778 201.667C197.984 199.241 198.464 196.519 198.162 193.827" stroke="#263238" stroke-linecap="round" stroke-linejoin="round"/>
<path d="M124.382 169.243C124.382 169.243 130.934 174.759 132.423 176.081C133.515 176.978 134.739 177.702 136.052 178.225" stroke="#263238" stroke-linecap="round" stroke-linejoin="round"/>
<path d="M122.343 172.116C122.343 172.116 128.621 179.396 132.754 181.199" stroke="#263238" stroke-linecap="round" stroke-linejoin="round"/>
</svg>
