<svg width="280" height="280" viewBox="0 0 280 280" fill="none" xmlns="http://www.w3.org/2000/svg">
<path d="M249.945 81.3624C249.945 81.3624 204.921 16.5424 148.708 9.68241C99.0864 3.58961 53.0264 27.3224 46.6144 78.596C44.3296 96.88 40.264 117.079 33.04 133.745C24.9368 152.438 11.1104 168 21.7 203.935C32.2896 239.87 77.0112 272.322 109.519 272.255C142.027 272.188 172.564 242.637 197.758 215.762C222.953 188.888 303.184 163.615 249.945 81.3624Z" fill="#33941B"/>
<path opacity="0.7" d="M249.945 81.3624C249.945 81.3624 204.921 16.5424 148.708 9.68241C99.0864 3.58961 53.0264 27.3224 46.6144 78.596C44.3296 96.88 40.264 117.079 33.04 133.745C24.9368 152.438 11.1104 168 21.7 203.935C32.2896 239.87 77.0112 272.322 109.519 272.255C142.027 272.188 172.564 242.637 197.758 215.762C222.953 188.888 303.184 163.615 249.945 81.3624Z" fill="white"/>
<g opacity="0.3">
<path d="M69.3728 99.4728H27.3336L27.7592 91.3584H69.7984L69.3728 99.4728Z" stroke="black" stroke-linecap="round" stroke-linejoin="round"/>
<path d="M69.3728 110.835H27.3336L27.7592 102.721H69.7984L69.3728 110.835Z" stroke="black" stroke-linecap="round" stroke-linejoin="round"/>
<path d="M69.3728 122.198H27.3336L27.7592 114.083H69.7984L69.3728 122.198Z" stroke="black" stroke-linecap="round" stroke-linejoin="round"/>
<path d="M69.3728 133.56H27.3336L27.7592 125.446H69.7984L69.3728 133.56Z" stroke="black" stroke-linecap="round" stroke-linejoin="round"/>
<path d="M69.3728 144.928H27.3336L27.7592 136.808H69.7984L69.3728 144.928Z" stroke="black" stroke-linecap="round" stroke-linejoin="round"/>
<path d="M69.3728 156.29H27.3336L27.7592 148.17H69.7984L69.3728 156.29Z" stroke="black" stroke-linecap="round" stroke-linejoin="round"/>
<path d="M69.3728 167.653H27.3336L27.7592 159.533H69.7984L69.3728 167.653Z" stroke="black" stroke-linecap="round" stroke-linejoin="round"/>
<path d="M69.3728 179.015H27.3336L27.7592 170.895H69.7984L69.3728 179.015Z" stroke="black" stroke-linecap="round" stroke-linejoin="round"/>
<path d="M69.3728 190.378H27.3336L27.7592 182.258H69.7984L69.3728 190.378Z" stroke="black" stroke-linecap="round" stroke-linejoin="round"/>
<path d="M69.3728 201.74H27.3336L27.7592 193.62H69.7984L69.3728 201.74Z" stroke="black" stroke-linecap="round" stroke-linejoin="round"/>
<path d="M69.3728 213.102H27.3336L27.7592 204.988H69.7984L69.3728 213.102Z" stroke="black" stroke-linecap="round" stroke-linejoin="round"/>
<path d="M113.826 99.4728H71.7864L72.212 91.3584H114.251L113.826 99.4728Z" stroke="black" stroke-linecap="round" stroke-linejoin="round"/>
<path d="M113.826 110.835H71.7864L72.212 102.721H114.251L113.826 110.835Z" stroke="black" stroke-linecap="round" stroke-linejoin="round"/>
<path d="M113.826 122.198H71.7864L72.212 114.083H114.251L113.826 122.198Z" stroke="black" stroke-linecap="round" stroke-linejoin="round"/>
<path d="M113.826 133.56H71.7864L72.212 125.446H114.251L113.826 133.56Z" stroke="black" stroke-linecap="round" stroke-linejoin="round"/>
<path d="M113.826 144.928H71.7864L72.212 136.808H114.251L113.826 144.928Z" stroke="black" stroke-linecap="round" stroke-linejoin="round"/>
<path d="M113.826 156.29H71.7864L72.212 148.17H114.251L113.826 156.29Z" stroke="black" stroke-linecap="round" stroke-linejoin="round"/>
<path d="M113.826 167.653H71.7864L72.212 159.533H114.251L113.826 167.653Z" stroke="black" stroke-linecap="round" stroke-linejoin="round"/>
<path d="M113.826 179.015H71.7864L72.212 170.895H114.251L113.826 179.015Z" stroke="black" stroke-linecap="round" stroke-linejoin="round"/>
<path d="M113.826 190.378H71.7864L72.212 182.258H114.251L113.826 190.378Z" stroke="black" stroke-linecap="round" stroke-linejoin="round"/>
<path d="M113.826 201.74H71.7864L72.212 193.62H114.251L113.826 201.74Z" stroke="black" stroke-linecap="round" stroke-linejoin="round"/>
<path d="M113.826 213.102H71.7864L72.212 204.988H114.251L113.826 213.102Z" stroke="black" stroke-linecap="round" stroke-linejoin="round"/>
</g>
<g opacity="0.3">
<path d="M243.09 107.873H188.826V148.926H243.09V107.873Z" stroke="black" stroke-linecap="round" stroke-linejoin="round"/>
<path d="M240.139 111.266H191.766V145.538H240.139V111.266Z" stroke="black" stroke-linecap="round" stroke-linejoin="round"/>
<path d="M207.542 116.665H224.37" stroke="black" stroke-linecap="round" stroke-linejoin="round"/>
<path d="M196.644 121.638H235.267" stroke="black" stroke-linecap="round" stroke-linejoin="round"/>
<path d="M205.251 131.578H226.66" stroke="black" stroke-linecap="round" stroke-linejoin="round"/>
<path d="M197.025 141.523H205.442" stroke="black" stroke-linecap="round" stroke-linejoin="round"/>
<path d="M226.47 141.523H234.881" stroke="black" stroke-linecap="round" stroke-linejoin="round"/>
</g>
<g opacity="0.3">
<path d="M257.824 157.584H217.885V187.802H257.824V157.584Z" stroke="black" stroke-linecap="round" stroke-linejoin="round"/>
<path d="M255.657 160.082H220.052V185.31H255.657V160.082Z" stroke="black" stroke-linecap="round" stroke-linejoin="round"/>
<path d="M231.666 164.058H244.048" stroke="black" stroke-linecap="round" stroke-linejoin="round"/>
<path d="M223.642 167.714H252.073" stroke="black" stroke-linecap="round" stroke-linejoin="round"/>
<path d="M229.975 175.034H245.739" stroke="black" stroke-linecap="round" stroke-linejoin="round"/>
<path d="M223.922 182.353H230.115" stroke="black" stroke-linecap="round" stroke-linejoin="round"/>
<path d="M245.594 182.353H251.787" stroke="black" stroke-linecap="round" stroke-linejoin="round"/>
</g>
<path d="M270.53 260.54H14.868" stroke="#263238" stroke-linecap="round" stroke-linejoin="round"/>
<path d="M270.53 265.894H14.868" stroke="#263238" stroke-linecap="round" stroke-linejoin="round"/>
<path d="M256.525 201.488H202.317C201.461 201.487 200.634 201.795 199.988 202.354C199.341 202.914 198.917 203.688 198.794 204.534L190.686 259.974H255.147L260.07 205.352C260.112 204.861 260.052 204.366 259.894 203.899C259.735 203.432 259.481 203.003 259.147 202.64C258.814 202.277 258.409 201.987 257.957 201.788C257.506 201.59 257.018 201.488 256.525 201.488Z" fill="#263238" stroke="#263238" stroke-linecap="round" stroke-linejoin="round"/>
<path d="M183.12 192.438C183.12 192.438 168.454 199.718 163.419 201.729C158.385 203.739 157.147 204.641 156.699 205.873C156.251 207.105 136.662 237.888 134.428 240.688C132.194 243.488 127.372 249.53 128.044 253.669C128.716 257.807 134.092 261.397 139.244 261.285C144.396 261.173 147.644 260.165 148.204 258.709C148.764 257.253 162.982 231.829 162.982 231.829L167.462 260.148H224.666C224.666 260.148 229.146 221.418 229.146 215.706C229.146 209.994 230.266 203.28 227.914 201.824C225.562 200.368 215.824 197.014 208.656 194.662C201.488 192.31 199.254 191.862 197.579 191.862C195.905 191.862 183.12 192.438 183.12 192.438Z" fill="white" stroke="#263238" stroke-linecap="round" stroke-linejoin="round"/>
<path d="M181.569 192.64C181.569 192.64 179.665 196.224 179.553 199.136C179.441 202.048 178.993 207.418 177.313 210.666C175.633 213.914 174.401 215.706 175.297 215.365C176.193 215.023 181.339 209.322 181.899 208.085C182.459 206.847 183.355 209.205 183.355 209.205C183.355 209.205 181.675 214.015 181.451 214.687C181.227 215.359 188.502 224.65 188.502 224.65C188.502 224.65 194.774 219.727 196.23 218.607C197.686 217.487 197.238 216.591 197.35 215.135C197.462 213.679 197.91 211.557 198.688 210.325C199.466 209.093 201.718 213.92 203.28 216.16C204.842 218.4 206.416 219.184 206.192 217.504C205.968 215.824 205.184 212.576 204.624 206.864C204.064 201.152 204.176 194.326 202.72 192.198C201.264 190.07 193.626 189.65 188.614 189.291C187.244 189.138 185.859 189.371 184.614 189.963C183.37 190.554 182.315 191.481 181.569 192.64Z" fill="white" stroke="#263238" stroke-linecap="round" stroke-linejoin="round"/>
<path d="M158.956 211.708L162.988 231.846L157.78 218.456" stroke="#263238" stroke-linecap="round" stroke-linejoin="round"/>
<path d="M182.129 198.038C182.129 198.038 183.697 206.769 185.153 213.483C185.953 217.305 187.077 221.052 188.513 224.683C188.513 224.683 195.905 212.257 198.033 205.766C199.241 202.185 200.177 198.518 200.833 194.796H182.129V198.038Z" stroke="#263238" stroke-linecap="round" stroke-linejoin="round"/>
<path d="M190.299 201.04L186.273 206.08L189.073 211.456L186.318 218.126C186.925 220.344 187.658 222.526 188.513 224.661C188.513 224.661 190.82 220.786 193.222 216.261L191.201 211.596L193.665 205.996L190.299 201.04Z" fill="#33941B" stroke="#263238" stroke-linecap="round" stroke-linejoin="round"/>
<path d="M182.129 194.79V198.038C182.129 198.038 183.21 204.064 184.408 209.95L190.075 203.969L196.05 210.588C196.798 209.017 197.458 207.405 198.027 205.761C199.236 202.18 200.172 198.513 200.827 194.79H182.129Z" fill="white" stroke="#263238" stroke-linecap="round" stroke-linejoin="round"/>
<path d="M133.325 244.003C133.325 244.003 143.78 240.184 149.419 249.474" stroke="#263238" stroke-linecap="round" stroke-linejoin="round"/>
<path d="M149.604 246.607C149.604 246.607 143.763 247.929 140.644 252.907C137.525 257.886 143.87 258.44 145.622 258.44C147.375 258.44 149.033 257.264 149.128 256.654C149.223 256.043 151.519 250.141 151.43 248.763C151.419 248.249 151.232 247.754 150.9 247.361C150.567 246.968 150.11 246.702 149.604 246.607Z" fill="white" stroke="#263238" stroke-linecap="round" stroke-linejoin="round"/>
<path d="M146.916 248.668C146.916 248.668 143.685 251.468 143.903 252.588C144.122 253.708 148.915 258.02 149.839 257.398C150.006 257.314 150.154 257.197 150.276 257.055C150.397 256.912 150.489 256.748 150.547 256.57C150.605 256.392 150.627 256.204 150.612 256.018C150.597 255.831 150.546 255.65 150.461 255.483C150.198 255.063 146.916 248.668 146.916 248.668Z" fill="white" stroke="#263238" stroke-linecap="round" stroke-linejoin="round"/>
<path d="M143.92 252.56C143.92 252.56 142.022 254.582 142.643 255.506C143.265 256.43 147.605 258.787 148.73 258.076C149.856 257.365 149.128 256.637 149.128 256.637L143.92 252.56Z" fill="white" stroke="#263238" stroke-linecap="round" stroke-linejoin="round"/>
<path d="M155.042 248.562L151.155 247.89L152.068 253.484L156.038 253.607L155.042 248.562Z" fill="white" stroke="#263238" stroke-linecap="round" stroke-linejoin="round"/>
<path d="M148.047 239.764L152.6 255.718L154.812 257.729V254.89L149.996 239.21C149.957 239.079 149.891 238.958 149.804 238.853C149.717 238.749 149.609 238.663 149.488 238.601C149.366 238.54 149.234 238.503 149.098 238.494C148.962 238.485 148.825 238.504 148.697 238.549C148.455 238.632 148.254 238.804 148.134 239.029C148.013 239.254 147.982 239.517 148.047 239.764Z" fill="#263238" stroke="#263238" stroke-linecap="round" stroke-linejoin="round"/>
<path d="M149.604 246.607C149.604 246.607 146.916 248.181 147.185 249.374C147.454 250.566 150.354 256.144 151.402 256.217C152.449 256.29 153.082 255.657 152.93 254.447C152.779 253.238 151.81 248.847 151.155 247.89C150.5 246.932 150.427 246.551 149.604 246.607Z" fill="white" stroke="#263238" stroke-linecap="round" stroke-linejoin="round"/>
<path d="M155.042 248.562C155.042 248.562 157.903 248.92 158.402 249.794C158.9 250.667 156.901 254.15 156.262 254.946C155.624 255.741 154.482 255.707 154.448 253.691C154.502 251.968 154.7 250.252 155.042 248.562Z" fill="white" stroke="#263238" stroke-linecap="round" stroke-linejoin="round"/>
<path d="M139.563 255.298H170.962C171.84 255.3 172.681 255.649 173.301 256.269C173.921 256.89 174.271 257.731 174.272 258.608C174.272 259.351 173.977 260.063 173.452 260.588C172.927 261.113 172.215 261.408 171.472 261.408H140C139.317 261.408 138.662 261.137 138.178 260.654C137.695 260.17 137.424 259.515 137.424 258.832V257.432C137.424 257.151 137.479 256.873 137.587 256.614C137.695 256.355 137.852 256.12 138.051 255.921C138.25 255.723 138.485 255.566 138.745 255.459C139.004 255.352 139.283 255.298 139.563 255.298Z" fill="white" stroke="#263238" stroke-linecap="round" stroke-linejoin="round"/>
<path d="M195.44 248.08C195.44 248.08 187.27 247.184 185.254 246.512C183.238 245.84 179.99 245.28 178.87 246.176C177.75 247.072 172.267 253.456 172.15 254.234C172.032 255.013 170.918 257.594 171.478 258.266C171.947 258.735 172.524 259.081 173.158 259.274C173.158 259.274 180.438 261.29 181.216 261.402C181.994 261.514 189.498 261.178 189.498 261.178L193.418 259.722L198.901 259.61C198.901 259.61 199.013 261.402 199.125 257.034C199.237 252.666 195.44 248.08 195.44 248.08Z" fill="white" stroke="#263238" stroke-linecap="round" stroke-linejoin="round"/>
<path d="M173.174 259.28C173.174 259.28 173.286 256.704 173.846 255.584C174.406 254.464 180.785 248.758 180.785 248.758" stroke="#263238" stroke-linecap="round" stroke-linejoin="round"/>
<path d="M175.28 259.941C175.28 259.941 176.4 257.141 176.848 256.917C177.296 256.693 182.554 253.333 182.554 253.333" stroke="#263238" stroke-linecap="round" stroke-linejoin="round"/>
<path d="M179.105 260.725C179.105 260.725 179.329 259.605 179.889 259.381C180.449 259.157 185.153 257.029 185.153 257.029" stroke="#263238" stroke-linecap="round" stroke-linejoin="round"/>
<path d="M184.145 261.285L186.273 260.725L186.049 259.717L183.809 260.277" stroke="#263238" stroke-linecap="round" stroke-linejoin="round"/>
<path d="M221.082 212.027C221.082 212.027 215.152 224.454 215.482 228.827C215.813 233.201 217.28 240.464 217.28 240.464C217.28 240.464 207.878 244.154 204.63 245.504C201.382 246.854 195.44 248.08 195.44 248.08L198.458 259.946L198.016 261.178H230.586C230.586 261.178 233.05 260.73 233.498 260.17C233.946 259.61 234.394 259.386 234.618 257.594C234.842 255.802 236.298 240.134 235.962 235.754C235.626 231.375 231.034 208.667 230.474 206.315C229.914 203.963 228.911 202.395 227.903 201.835C226.895 201.275 222.527 200.833 222.527 200.833" fill="white"/>
<path d="M221.082 212.027C221.082 212.027 215.152 224.454 215.482 228.827C215.813 233.201 217.28 240.464 217.28 240.464C217.28 240.464 207.878 244.154 204.63 245.504C201.382 246.854 195.44 248.08 195.44 248.08L198.458 259.946L198.016 261.178H230.586C230.586 261.178 233.05 260.73 233.498 260.17C233.946 259.61 234.394 259.386 234.618 257.594C234.842 255.802 236.298 240.134 235.962 235.754C235.626 231.375 231.034 208.667 230.474 206.315C229.914 203.963 228.911 202.395 227.903 201.835C226.895 201.275 222.527 200.833 222.527 200.833" stroke="#263238" stroke-linecap="round" stroke-linejoin="round"/>
<path d="M218.064 240.688C218.064 240.688 226.682 241.136 230.944 243.818" stroke="#263238" stroke-linecap="round" stroke-linejoin="round"/>
<path d="M219.626 239.568C219.626 239.568 225.674 239.232 228.922 240.24" stroke="#263238" stroke-linecap="round" stroke-linejoin="round"/>
<path d="M217.952 211.68C217.952 211.68 214.928 218.736 214.816 221.424C214.704 224.112 214.48 225.68 214.48 225.68" stroke="#263238" stroke-linecap="round" stroke-linejoin="round"/>
<path d="M204.182 192.998C204.182 192.998 211.008 202.72 205.52 229.83" stroke="#263238" stroke-width="2" stroke-linecap="round" stroke-linejoin="round"/>
<path d="M208.768 230.614C208.768 229.949 208.571 229.299 208.202 228.747C207.833 228.194 207.308 227.764 206.694 227.509C206.08 227.255 205.404 227.189 204.752 227.318C204.101 227.448 203.502 227.768 203.032 228.238C202.562 228.708 202.242 229.306 202.113 229.958C201.983 230.61 202.049 231.285 202.304 231.899C202.558 232.513 202.989 233.038 203.541 233.407C204.094 233.777 204.743 233.974 205.408 233.974C206.299 233.974 207.154 233.62 207.784 232.989C208.414 232.359 208.768 231.505 208.768 230.614Z" fill="white" stroke="#263238" stroke-linecap="round" stroke-linejoin="round"/>
<path d="M180.88 194.006C180.88 194.006 177.414 196.246 176.854 205.313" stroke="#263238" stroke-width="2" stroke-linecap="round" stroke-linejoin="round"/>
<path d="M181.67 219.05C180.824 225.165 179.67 231.734 179.43 233.173C178.87 236.253 175.213 237.328 172.861 236.32" stroke="#263238" stroke-width="2" stroke-linecap="round" stroke-linejoin="round"/>
<path d="M172.9 219.453C172.133 216.026 171.662 213.052 171.83 211.691C172.614 205.425 176.87 205.313 176.87 205.313C176.87 205.313 181.91 205.985 182.241 211.361C182.276 213.935 182.088 216.508 181.681 219.05" stroke="#263238" stroke-width="2" stroke-linecap="round" stroke-linejoin="round"/>
<path d="M182.353 235.872C182.353 235.872 180.001 237.216 178.433 236.32C177.374 235.715 174.513 226.598 172.9 219.453" stroke="#263238" stroke-width="2" stroke-linecap="round" stroke-linejoin="round"/>
<path d="M183.172 234.658L182.247 235.057C181.801 235.25 181.595 235.767 181.787 236.213L181.798 236.238C181.991 236.684 182.508 236.89 182.954 236.698L183.88 236.299C184.325 236.107 184.531 235.589 184.339 235.143L184.328 235.118C184.136 234.672 183.618 234.466 183.172 234.658Z" stroke="#263238" stroke-linecap="round" stroke-linejoin="round"/>
<path d="M173.151 235.266L172.287 234.747C171.871 234.497 171.331 234.631 171.081 235.048L171.066 235.072C170.816 235.488 170.951 236.028 171.367 236.278L172.231 236.797C172.648 237.047 173.188 236.912 173.438 236.496L173.452 236.472C173.702 236.056 173.567 235.516 173.151 235.266Z" stroke="#263238" stroke-linecap="round" stroke-linejoin="round"/>
<path d="M176.87 166.919C176.87 166.919 175.078 171.17 175.414 173.858C175.75 176.546 179.334 179.458 179.334 179.458C179.334 179.458 180.566 167.479 180.566 167.031C180.566 166.583 178.321 165.575 176.87 166.919Z" fill="#263238" stroke="#263238" stroke-linecap="round" stroke-linejoin="round"/>
<path d="M175.582 182.146L177.962 180.482" stroke="#263238" stroke-width="2" stroke-linecap="round" stroke-linejoin="round"/>
<path d="M178.209 167.703C178.209 167.703 177.761 179.57 177.985 181.804C178.209 184.038 179.105 191.206 179.889 193.446C180.673 195.686 183.249 202.849 185.265 203.633C187.281 204.417 191.307 204.977 192.651 204.081C193.995 203.185 198.918 199.83 200.262 196.582C201.058 194.688 201.586 192.692 201.83 190.652C202.947 190.056 203.912 189.21 204.65 188.181C205.388 187.151 205.88 185.966 206.086 184.716C206.758 180.46 204.966 179.234 204.966 179.234L205.078 171.842C205.078 171.842 203.846 166.695 200.598 163.895C197.35 161.095 193.547 160.871 189.627 162.999C185.707 165.127 178.209 167.703 178.209 167.703Z" fill="white" stroke="#263238" stroke-linecap="round" stroke-linejoin="round"/>
<path d="M199.254 167.031C199.254 167.031 199.366 164.119 196.571 165.127C193.777 166.135 193.099 168.039 188.955 169.719C184.811 171.399 179.329 169.495 177.43 168.375C175.532 167.255 174.182 165.687 176.758 162.775C179.334 159.863 185.377 156.957 191.878 156.957C198.38 156.957 203.409 162.327 205.537 164.567C207.665 166.807 208.001 169.607 207.217 171.618C206.433 173.628 204.977 179.234 204.977 179.234C204.977 179.234 204.081 179.122 203.745 180.46C203.409 181.798 203.521 183.26 202.065 183.372C200.609 183.484 200.721 179.57 200.721 179.57C200.721 179.57 197.142 178.45 196.694 175.874C196.246 173.298 199.254 169.495 199.254 167.031Z" fill="#263238" stroke="#263238" stroke-linecap="round" stroke-linejoin="round"/>
<path d="M185.92 183.971L175.566 182.146L176.165 186.788C176.202 187.077 176.33 187.346 176.532 187.556C176.734 187.765 176.998 187.905 177.285 187.953L183.579 188.944C183.925 189 184.279 188.919 184.567 188.718C184.854 188.518 185.052 188.213 185.119 187.869L185.92 183.971Z" stroke="#263238" stroke-width="2" stroke-linecap="round" stroke-linejoin="round"/>
<path d="M187.807 184.167L199.814 183.82L198.638 188.166C198.536 188.458 198.343 188.71 198.087 188.884C197.83 189.057 197.525 189.143 197.215 189.129L189.935 189.23C189.558 189.256 189.184 189.145 188.881 188.918C188.579 188.69 188.369 188.362 188.289 187.992L187.807 184.167Z" stroke="#263238" stroke-width="2" stroke-linecap="round" stroke-linejoin="round"/>
<path d="M185.937 183.971L187.807 184.167" stroke="#263238" stroke-width="2" stroke-linecap="round" stroke-linejoin="round"/>
<path d="M199.814 183.82L203.734 180.46" stroke="#263238" stroke-width="2" stroke-linecap="round" stroke-linejoin="round"/>
<path d="M189.403 182.812C189.403 182.812 192.763 180.242 195.899 181.804" stroke="#263238" stroke-width="2" stroke-linecap="round" stroke-linejoin="round"/>
<path d="M184.369 182.252C184.369 182.252 181.793 179.452 178.881 181.356" stroke="#263238" stroke-width="2" stroke-linecap="round" stroke-linejoin="round"/>
<path d="M185.041 191.99C185.041 191.99 184.481 194.342 185.041 194.79C185.994 195.317 187.094 195.514 188.171 195.35" stroke="#263238" stroke-linecap="round" stroke-linejoin="round"/>
<path d="M183.361 196.56C183.361 196.56 185.601 198.24 187.729 198.352C189.857 198.464 192.315 196.896 192.315 196.896" stroke="#263238" stroke-linecap="round" stroke-linejoin="round"/>
<path d="M191.643 185.164C191.643 185.164 192.987 186.732 195.227 185.052" stroke="#263238" stroke-linecap="round" stroke-linejoin="round"/>
<path d="M180.617 184.475C180.617 184.475 181.737 186.211 184.178 184.85" stroke="#263238" stroke-linecap="round" stroke-linejoin="round"/>
<path d="M111.16 167.02C111.16 167.02 111.871 177.688 111.334 178.578L109.76 181.244C109.76 181.244 110.471 188.894 109.049 189.778C107.947 190.369 106.738 190.732 105.493 190.848C105.493 190.848 104.07 196.538 103.533 197.249C102.995 197.96 99.7976 200.273 98.7336 200.609C97.6696 200.945 94.2872 201.169 86.2848 196.342C78.2824 191.514 75.2584 189.941 75.4376 187.275C75.6168 184.61 75.9976 181.586 75.9976 181.586C75.9976 181.586 76.888 168.778 78.4896 164.87C80.0912 160.961 100.363 158.822 104.81 159.891C109.256 160.961 111.16 167.02 111.16 167.02Z" fill="white" stroke="#263238" stroke-linecap="round" stroke-linejoin="round"/>
<path d="M90.5296 184.621L91.7784 185.511C91.7784 185.511 90.7088 189.778 91.2184 191.738" stroke="#263238" stroke-linecap="round" stroke-linejoin="round"/>
<path d="M108.31 181.048C108.13 181.866 107.699 182.459 107.352 182.381C107.005 182.302 106.865 181.586 107.05 180.768C107.234 179.95 107.66 179.357 108.007 179.435C108.354 179.514 108.494 180.236 108.31 181.048Z" fill="#263238"/>
<path d="M106.495 177.783C106.495 177.783 108.433 175.846 110.051 177.677" stroke="#263238" stroke-linecap="round" stroke-linejoin="round"/>
<path d="M104.048 165.598C104.048 165.598 106.355 169.865 106.182 170.755C106.008 171.646 98.7112 173.779 98.7112 173.779C98.7112 173.779 98 178.046 96.9304 178.578L95.8664 179.11C95.0134 177.952 94.2974 176.699 93.7328 175.375C92.4896 172.71 90.7088 172.015 88.7544 174.664C86.8 177.313 88.396 183.557 89.4656 184.089L90.5296 184.621C90.5296 184.621 89.6392 185.511 86.2624 186.049C82.8856 186.586 80.3936 187.292 77.9072 186.581C75.4208 185.87 71.8592 179.11 70.6272 170.397C69.3952 161.683 73.2928 154.218 78.4672 151.917C83.6416 149.615 95.3624 151.738 96.2472 152.27C97.132 152.802 103.186 149.962 106.742 151.738C110.298 153.513 110.102 155.473 111.009 156.716C111.916 157.959 116.519 156.363 116.878 160.81C117.236 165.256 115.455 167.922 113.142 168.274C110.83 168.627 104.048 165.598 104.048 165.598Z" fill="#263238" stroke="#263238" stroke-linecap="round" stroke-linejoin="round"/>
<path d="M61.9416 193.514C61.9416 193.514 44.9008 202.602 41.6528 204.4C38.4048 206.198 37.9176 207.81 37.7328 209.44C37.548 211.07 37.7328 265.916 37.7328 265.916H129.78C129.78 265.916 115.819 224 115.36 219.318C114.901 214.637 113.904 206.332 112.605 205.358C111.306 204.383 92.96 196.269 92.96 196.269C92.96 196.269 88.5752 191.565 78.1928 191.565C67.8104 191.565 61.9416 193.514 61.9416 193.514Z" fill="#33941B" stroke="#263238" stroke-linecap="round" stroke-linejoin="round"/>
<path d="M72.492 226.906C72.9736 227.097 73.4608 227.27 73.948 227.433" stroke="#263238" stroke-linecap="round" stroke-linejoin="round"/>
<path d="M54.32 211.854C54.32 211.854 61.04 221.228 70.2184 225.854" stroke="#263238" stroke-linecap="round" stroke-linejoin="round"/>
<path d="M60.1552 222.723C60.1552 222.723 63.8848 226.458 71.6744 228.57" stroke="#263238" stroke-linecap="round" stroke-linejoin="round"/>
<path d="M106.4 209.272C103.807 212.218 100.156 216.927 98.9464 221.262" stroke="#263238" stroke-linecap="round" stroke-linejoin="round"/>
<path d="M109.166 206.332C109.166 206.332 108.651 206.83 107.845 207.687" stroke="#263238" stroke-linecap="round" stroke-linejoin="round"/>
<path d="M99.9152 216.07C99.9152 216.07 97.4792 220.774 96.9976 223.698" stroke="#263238" stroke-linecap="round" stroke-linejoin="round"/>
<path d="M60.9672 194.32C60.9672 194.32 70.3808 193.995 79.3072 194.158C88.2336 194.32 94.08 197.081 94.08 197.081C94.08 197.081 88.7208 190.59 86.2904 189.129C83.86 187.667 76.3896 185.209 70.224 187.18C66.4258 188.456 63.166 190.97 60.9672 194.32Z" fill="#33941B" stroke="#263238" stroke-linecap="round" stroke-linejoin="round"/>
<path d="M34.1992 265.854L25.62 232.96C25.5367 232.561 25.5436 232.148 25.6401 231.751C25.7365 231.355 25.9202 230.985 26.1777 230.668C26.4352 230.352 26.76 230.097 27.1285 229.922C27.4971 229.746 27.9 229.656 28.308 229.656H96.5664C97.1936 229.657 97.8018 229.871 98.2905 230.264C98.7793 230.657 99.1193 231.205 99.2544 231.818L106.831 265.888" fill="#263238"/>
<path d="M34.1992 265.854L25.62 232.96C25.5367 232.561 25.5436 232.148 25.6401 231.751C25.7365 231.355 25.9202 230.985 26.1777 230.668C26.4352 230.352 26.76 230.097 27.1285 229.922C27.4971 229.746 27.9 229.656 28.308 229.656H96.5664C97.1936 229.657 97.8018 229.871 98.2905 230.264C98.7793 230.657 99.1193 231.205 99.2544 231.818L106.831 265.888" stroke="#263238" stroke-linecap="round" stroke-linejoin="round"/>
</svg>
