<svg width="280" height="280" viewBox="0 0 280 280" fill="none" xmlns="http://www.w3.org/2000/svg">
<path d="M261.834 66.8136C260.949 65.3203 260.015 63.8456 259.034 62.3896C246.058 43.1536 223.726 29.9992 201.746 24.08C192.105 21.5149 182.2 20.0699 172.228 19.7736C106.926 17.5336 80.9144 69.0256 59.332 82.3088C37.7496 95.592 4.5416 118.255 6.7536 165.85C8.9656 213.444 43.2824 258.25 109.693 261.05C176.103 263.85 180.533 233.918 217.61 222.88C242.15 215.555 259.61 190.814 268.122 167.95C279.754 136.763 279.205 96.2864 261.834 66.8136Z" fill="#33941B"/>
<path opacity="0.7" d="M261.834 66.8136C260.949 65.3203 260.015 63.8456 259.034 62.3896C246.058 43.1536 223.726 29.9992 201.746 24.08C192.105 21.5149 182.2 20.0699 172.228 19.7736C106.926 17.5336 80.9144 69.0256 59.332 82.3088C37.7496 95.592 4.5416 118.255 6.7536 165.85C8.9656 213.444 43.2824 258.25 109.693 261.05C176.103 263.85 180.533 233.918 217.61 222.88C242.15 215.555 259.61 190.814 268.122 167.95C279.754 136.763 279.205 96.2864 261.834 66.8136Z" fill="white"/>
<path d="M240.946 25.452C239.523 23.9736 237.026 22.6128 232.758 22.5064C223.115 22.2712 225.68 29.12 223.115 30.7384C220.55 32.3568 219.822 29.7976 217.235 31.444C214.648 33.0904 215.824 36.3832 213.713 36.8536C211.602 37.324 208.774 34.72 206.186 36.4C203.599 38.08 203.599 39.4576 202.423 39.4576C201.247 39.4576 198.895 38.5168 197.484 39.4576C196.073 40.3984 194.426 41.5744 194.426 41.5744H219.677" stroke="#263238" stroke-linecap="round" stroke-linejoin="round"/>
<path d="M243.6 29.68C243.37 29.568 243.13 29.456 242.872 29.344C242.758 28.4658 242.462 27.6209 242.004 26.8632" stroke="#263238" stroke-linecap="round" stroke-linejoin="round"/>
<path d="M222.908 41.5576H253.921C253.921 41.5576 254.626 39.4408 252.039 38.0296C249.452 36.6184 248.282 37.7944 247.341 36.6184C246.501 35.5712 249.206 33.0344 244.826 30.3296" stroke="#263238" stroke-linecap="round" stroke-linejoin="round"/>
<path d="M69.6864 35.28C69.1264 34.72 68.1688 34.16 66.5056 34.16C62.7648 34.0704 63.7672 36.7192 62.7648 37.3576C61.7624 37.996 61.488 36.9936 60.48 37.632C59.472 38.2704 59.92 39.5472 59.1136 39.732C58.3072 39.9168 57.1928 38.9088 56.1904 39.5472C55.188 40.1856 55.188 40.7344 54.7288 40.7344C54.2696 40.7344 53.3624 40.3704 52.8136 40.7344C52.2648 41.0984 51.6264 41.5576 51.6264 41.5576H61.4264" stroke="#263238" stroke-linecap="round" stroke-linejoin="round"/>
<path d="M70.7168 36.96L70.4312 36.8312C70.39 36.4897 70.2753 36.1611 70.0952 35.868" stroke="#263238" stroke-linecap="round" stroke-linejoin="round"/>
<path d="M62.6864 41.5576H74.7208C74.7857 41.2795 74.7477 40.9874 74.6139 40.7352C74.4801 40.483 74.2594 40.2877 73.9928 40.1856C72.9904 39.6256 72.5312 40.096 72.1672 39.6256C71.8032 39.1552 72.8896 38.2312 71.1928 37.184" stroke="#263238" stroke-linecap="round" stroke-linejoin="round"/>
<path d="M204.574 19.7568C204.014 19.1968 203.062 18.6368 201.393 18.6368C197.68 18.5248 198.654 21.1736 197.68 21.84C196.706 22.5064 196.403 21.4704 195.395 22.1144C194.387 22.7584 194.835 24.0296 194.029 24.2144C193.222 24.3992 192.108 23.3912 191.106 24.0296C190.103 24.668 190.075 25.2 189.616 25.2C189.157 25.2 188.25 24.836 187.701 25.2C187.152 25.564 186.514 26.0232 186.514 26.0232H196.314" stroke="#263238" stroke-linecap="round" stroke-linejoin="round"/>
<path d="M205.604 21.392L205.318 21.2632C205.277 20.9217 205.163 20.5931 204.982 20.3" stroke="#263238" stroke-linecap="round" stroke-linejoin="round"/>
<path d="M197.574 26.012H209.608C209.673 25.7339 209.635 25.4418 209.501 25.1896C209.367 24.9374 209.147 24.7421 208.88 24.64C207.878 24.08 207.418 24.5504 207.054 24.08C206.69 23.6096 207.76 22.7024 206.08 21.6496" stroke="#263238" stroke-linecap="round" stroke-linejoin="round"/>
<path d="M147.84 236.88C203.201 236.88 248.08 192.001 248.08 136.64C248.08 81.279 203.201 36.4 147.84 36.4C92.479 36.4 47.6 81.279 47.6 136.64C47.6 192.001 92.479 236.88 147.84 236.88Z" stroke="#263238" stroke-linejoin="round" stroke-dasharray="2 2"/>
<path d="M222.673 257.012H244.922" stroke="#263238" stroke-miterlimit="10"/>
<path d="M42.7056 257.012H218.714" stroke="#263238" stroke-miterlimit="10"/>
<path d="M229.13 196.706C228.92 196.707 228.714 196.655 228.53 196.554C228.383 196.476 228.252 196.37 228.146 196.241C228.04 196.112 227.961 195.963 227.912 195.803C227.864 195.643 227.847 195.476 227.864 195.309C227.881 195.143 227.93 194.982 228.01 194.835L232.159 187.074C232.325 186.79 232.595 186.582 232.911 186.493C233.227 186.404 233.566 186.441 233.855 186.596C234.145 186.751 234.363 187.012 234.465 187.325C234.566 187.637 234.543 187.976 234.399 188.272L230.244 196.034C230.136 196.236 229.976 196.405 229.78 196.524C229.584 196.642 229.359 196.705 229.13 196.706Z" fill="#263238"/>
<path d="M245.196 196.706C244.966 196.706 244.74 196.644 244.543 196.525C244.345 196.407 244.184 196.237 244.076 196.034L239.921 188.272C239.777 187.976 239.754 187.637 239.855 187.325C239.957 187.012 240.175 186.751 240.465 186.596C240.754 186.441 241.093 186.404 241.409 186.493C241.725 186.582 241.995 186.79 242.161 187.074L246.31 194.835C246.39 194.982 246.439 195.143 246.456 195.309C246.473 195.476 246.456 195.643 246.408 195.803C246.359 195.963 246.28 196.112 246.174 196.241C246.068 196.37 245.937 196.476 245.79 196.554C245.608 196.655 245.404 196.707 245.196 196.706Z" fill="#263238"/>
<path d="M237.16 191.464C243.441 191.464 248.534 186.372 248.534 180.09C248.534 173.809 243.441 168.717 237.16 168.717C230.879 168.717 225.786 173.809 225.786 180.09C225.786 186.372 230.879 191.464 237.16 191.464Z" fill="#33941B" stroke="#263238" stroke-linecap="round" stroke-linejoin="round"/>
<path d="M237.16 189.84C242.545 189.84 246.91 185.475 246.91 180.09C246.91 174.706 242.545 170.341 237.16 170.341C231.775 170.341 227.41 174.706 227.41 180.09C227.41 185.475 231.775 189.84 237.16 189.84Z" fill="white" stroke="#263238" stroke-linecap="round" stroke-linejoin="round"/>
<path d="M237.339 172.872C237.339 172.872 237.16 180.813 237.16 180.09L239.142 184.061" stroke="#263238" stroke-miterlimit="10"/>
<path d="M243.6 168.179C243.384 166.677 242.633 165.302 241.486 164.308C240.338 163.314 238.871 162.767 237.353 162.767C235.835 162.767 234.368 163.314 233.221 164.308C232.073 165.302 231.323 166.677 231.106 168.179H243.6Z" fill="white" stroke="#263238" stroke-linecap="round" stroke-linejoin="round"/>
<path d="M237.16 180.813C237.559 180.813 237.882 180.489 237.882 180.09C237.882 179.691 237.559 179.368 237.16 179.368C236.761 179.368 236.438 179.691 236.438 180.09C236.438 180.489 236.761 180.813 237.16 180.813Z" fill="#263238" stroke="#263238" stroke-miterlimit="10"/>
<path d="M256.861 122.741C256.862 124.388 256.538 126.018 255.908 127.54C255.278 129.061 254.354 130.444 253.19 131.608C252.026 132.773 250.643 133.696 249.122 134.326C247.6 134.956 245.969 135.28 244.322 135.279C243.622 135.282 242.923 135.222 242.234 135.1C239.317 134.601 236.67 133.087 234.762 130.826C232.854 128.564 231.807 125.7 231.807 122.741C231.807 119.782 232.854 116.918 234.762 114.656C236.67 112.394 239.317 110.88 242.234 110.382C242.924 110.264 243.622 110.206 244.322 110.208C245.969 110.207 247.599 110.531 249.12 111.16C250.641 111.79 252.024 112.713 253.188 113.877C254.352 115.041 255.276 116.422 255.906 117.943C256.536 119.464 256.861 121.094 256.861 122.741Z" fill="#33941B" stroke="#263238" stroke-linecap="round" stroke-linejoin="round"/>
<path d="M243.102 110.174C248.59 111.507 252.683 116.844 252.683 122.741C252.683 125.704 251.634 128.571 249.721 130.833C247.808 133.096 245.155 134.608 242.234 135.1" stroke="#263238" stroke-linecap="round" stroke-linejoin="round"/>
<path d="M235.424 113.708C237.558 113.708 240.822 114.408 243.611 117.818C248.22 123.446 254.358 123.978 256.407 118.843" stroke="#263238" stroke-linecap="round" stroke-linejoin="round"/>
<path d="M231.84 123.704C231.84 123.704 248.87 131.505 256.855 122.741" stroke="#263238" stroke-linecap="round" stroke-linejoin="round"/>
<path d="M236.634 132.485C238.827 132.777 241.058 132.483 243.102 131.634C247.195 129.842 250.83 128.906 252.566 130.099C252.811 130.245 253.025 130.439 253.194 130.668C253.363 130.898 253.485 131.16 253.551 131.438" stroke="#263238" stroke-linecap="round" stroke-linejoin="round"/>
<path d="M232.4 73.0464C232.4 78.6464 227.836 84.5488 223.44 84.5488C222.365 84.5488 219.582 84.5488 218.59 84.1736C213.17 82.0792 211.075 76.8936 211.075 72.38C211.075 70.0392 211.781 67.4856 213.634 65.9232C216.093 63.8512 218.803 65.156 221.659 65.156C224.146 65.156 227.629 64.1368 229.499 65.5368C231.946 67.2952 232.4 70.2688 232.4 73.0464Z" fill="white" stroke="#263238" stroke-linejoin="round"/>
<path d="M229.477 69.2944C229.118 69.9216 228.032 69.9664 227.052 69.4008C226.072 68.8352 225.574 67.872 225.932 67.2504C226.29 66.6288 227.377 66.5784 228.357 67.144C229.337 67.7096 229.841 68.6728 229.477 69.2944Z" fill="white" stroke="#263238" stroke-linejoin="round"/>
<path d="M221.116 66.0128L221.306 65.5704L223.966 59.3712L222.202 59.0968L220.438 65.3352L221.116 66.0128Z" fill="#263238" stroke="#263238" stroke-linejoin="round"/>
<path d="M221.525 61.8072C221.525 61.8072 220.304 59.0968 218.54 58.6936C216.776 58.2904 211.898 60.592 211.898 60.592C211.898 60.592 214.334 62.3504 216.233 62.8936C218.131 63.4368 221.525 61.8072 221.525 61.8072Z" fill="#33941B" stroke="#263238" stroke-linejoin="round"/>
<path d="M154.342 54.9976C153.95 52.7856 153.395 47.0232 153.871 44.9176C154.153 43.6311 154.258 42.3124 154.185 40.9976V33.208C154.413 32.1661 154.386 31.0845 154.106 30.0552C153.63 28.3752 150.002 24.8416 150.002 24.8416V23.5816H149.772L148.77 23.52H148.478H148.187L147.185 23.5592H146.955V24.8192C146.955 24.8192 143.326 28.3752 142.85 30.0328C142.576 31.0714 142.559 32.1612 142.8 33.208V40.9472C142.727 42.262 142.832 43.5807 143.114 44.8672C143.59 46.9952 143.035 52.7576 142.643 54.9472C142.251 57.1368 142.408 58.8168 143.668 59.4272C144.721 59.9536 147.588 59.6064 148.506 59.472C149.43 59.6064 152.292 59.9536 153.345 59.4272C154.56 58.8672 154.739 57.2096 154.342 54.9976Z" fill="white" stroke="#263238" stroke-linejoin="round"/>
<path d="M152.802 45.3152C153.031 44.2109 153.118 43.0816 153.059 41.9552V38.1976H143.92V41.9552C143.861 43.0816 143.948 44.2109 144.178 45.3152C144.553 47.1352 144.11 52.0352 143.797 53.928C143.483 55.8208 143.606 57.2264 144.62 57.764C145.466 58.212 147.762 57.9152 148.501 57.8032C149.24 57.9152 151.536 58.212 152.382 57.764C153.395 57.204 153.502 55.8152 153.205 53.928C152.908 52.0408 152.426 47.1352 152.802 45.3152Z" fill="#33941B"/>
<path d="M150.354 21.7616H146.563V23.8952H150.354V21.7616Z" fill="#263238" stroke="#263238" stroke-linejoin="round"/>
<path d="M143.007 32.4184H154.062" stroke="#263238" stroke-linejoin="round"/>
<path d="M147.47 40.3144H153.586" stroke="#263238" stroke-linejoin="round"/>
<path d="M143.405 40.3144H145.242" stroke="#263238" stroke-linejoin="round"/>
<path d="M68.516 70.5152H71.2712L74.2728 64.9152L77.3192 71.6352L77.84 70.252H81.6536L85.7136 61.0288L88.3288 69.6192H93.1056C94.4394 68.0676 95.1379 66.0694 95.061 64.0247C94.9842 61.9801 94.1377 60.0399 92.6912 58.5928C91.1674 57.069 89.1006 56.2129 86.9456 56.2129C84.7906 56.2129 82.7238 57.069 81.2 58.5928L80.36 59.4328L79.52 58.5872C77.9855 57.1198 75.9375 56.3113 73.8144 56.3347C71.6912 56.3582 69.6616 57.2118 68.1599 58.7128C66.6582 60.2138 65.8036 62.243 65.7791 64.3661C65.7546 66.4892 66.5621 68.5375 68.0288 70.0728L68.516 70.5152Z" fill="#33941B" stroke="#263238" stroke-linejoin="round"/>
<path d="M87.276 70.9912L85.4728 65.0552L82.5832 71.624H78.82L77.448 75.292L74.172 68.096L72.1224 71.9376H69.9384L80.36 82.3592L91.7336 70.9912H87.276Z" fill="#33941B" stroke="#263238" stroke-linejoin="round"/>
<path d="M42.3248 118.81C42.3248 118.81 41.8152 117.13 40.2752 116.76C38.7352 116.39 35.4928 116.928 34.9832 115.052C34.4736 113.176 36.8592 113.686 36.3496 112.146C35.84 110.606 32.0824 110.611 31.2256 107.705C30.3688 104.798 31.5672 101.73 33.7848 102.754C36.0024 103.779 37.0328 108.046 37.884 109.754C38.7352 111.462 38.5672 108.046 40.9584 107.705C43.3496 107.363 45.7408 109.245 44.2064 111.625C42.672 114.005 42.728 115.875 43.008 117.09C43.204 117.936 43.2544 117.869 43.2544 117.869L42.3248 118.81Z" fill="#33941B" stroke="#263238" stroke-linejoin="round"/>
<path d="M33.7904 107.173C33.3172 106.485 32.979 105.713 32.7936 104.899" stroke="#263238" stroke-miterlimit="10"/>
<path d="M42.8848 118.406C42.5139 116.915 41.7723 115.542 40.7288 114.414C38.9424 112.414 36.6296 111.054 34.7928 108.629C34.6416 108.433 34.5072 108.248 34.3784 108.069" stroke="#263238" stroke-miterlimit="10"/>
<path d="M47.684 116.026C47.684 116.026 39.8776 117.589 39.8776 124.986C39.8776 132.384 60.9504 146.826 62.5128 144.11C64.0752 141.394 56.4032 125.205 54.4488 121.71C52.4944 118.216 50.4 115.634 47.684 116.026Z" fill="white" stroke="#263238" stroke-miterlimit="10"/>
<path d="M42.1568 130.418C42.1568 130.418 44.8896 126.319 47.4488 125.126" stroke="#263238" stroke-miterlimit="10"/>
<path d="M55.8152 126.319C53.9036 127.118 52.1638 128.278 50.6912 129.735" stroke="#263238" stroke-miterlimit="10"/>
<path d="M52.08 138.958C52.914 137.021 54.3518 135.404 56.1792 134.35" stroke="#263238" stroke-miterlimit="10"/>
<path d="M51.548 122.735L49.84 123.76" stroke="#263238" stroke-miterlimit="10"/>
<path d="M58.548 133.151L57.3552 133.493" stroke="#263238" stroke-miterlimit="10"/>
<path d="M55.8264 192.321C62.847 192.321 68.5384 186.629 68.5384 179.609C68.5384 172.588 62.847 166.897 55.8264 166.897C48.8058 166.897 43.1144 172.588 43.1144 179.609C43.1144 186.629 48.8058 192.321 55.8264 192.321Z" fill="#33941B" stroke="#263238" stroke-linecap="round" stroke-linejoin="round"/>
<path d="M59.136 170.8C59.136 172.973 57.1592 177.654 55.8264 177.654C54.4936 177.654 52.5168 172.973 52.5168 170.8C52.5168 168.627 54.4936 168 55.8264 168C57.1592 168 59.136 168.616 59.136 170.8Z" fill="white" stroke="#263238" stroke-linecap="round" stroke-linejoin="round"/>
<path d="M49.84 172.329C51.7216 173.415 54.9864 176.994 54.32 178.147C53.6536 179.301 48.4176 179.15 46.5304 178.063C44.6432 176.977 45.0856 174.944 45.752 173.79C46.4184 172.637 47.964 171.242 49.84 172.329Z" fill="white" stroke="#263238" stroke-linecap="round" stroke-linejoin="round"/>
<path d="M46.5304 181.149C48.412 180.062 53.8104 179.11 54.46 180.264C55.1096 181.418 51.7272 185.797 49.8456 186.883C47.964 187.97 46.4184 186.581 45.752 185.427C45.0856 184.274 44.6488 182.235 46.5304 181.149Z" fill="white" stroke="#263238" stroke-linecap="round" stroke-linejoin="round"/>
<path d="M52.5168 188.429C52.5168 186.256 54.4936 180.958 55.8264 180.958C57.1592 180.958 59.136 186.256 59.136 188.429C59.136 190.602 57.1592 191.229 55.8264 191.229C54.4936 191.229 52.5168 190.602 52.5168 188.429Z" fill="white" stroke="#263238" stroke-linecap="round" stroke-linejoin="round"/>
<path d="M61.8072 186.883C59.9256 185.797 56.8288 181.698 57.5008 180.544C58.1728 179.39 63.2352 180.062 65.1168 181.149C66.9984 182.235 66.5672 184.268 65.9008 185.427C65.2344 186.586 63.6888 187.97 61.8072 186.883Z" fill="white" stroke="#263238" stroke-linecap="round" stroke-linejoin="round"/>
<path d="M65.1224 178.08C63.2352 179.166 58.1672 179.637 57.5008 178.483C56.8344 177.33 59.9256 173.443 61.8072 172.323C63.6888 171.203 65.2344 172.631 65.9008 173.785C66.5672 174.938 67.004 176.96 65.1224 178.08Z" fill="white" stroke="#263238" stroke-linecap="round" stroke-linejoin="round"/>
<path d="M242.76 223.686C242.76 223.686 243.23 221.978 243.247 221.866C243.426 220.567 243.012 217.946 241.69 217.319C241.468 217.219 241.228 217.167 240.984 217.166C240.741 217.165 240.499 217.215 240.277 217.313C240.054 217.411 239.854 217.555 239.69 217.736C239.527 217.916 239.403 218.129 239.327 218.361C238.974 219.335 239.422 220.528 239.954 221.351C240.582 222.32 242.76 223.686 242.76 223.686Z" fill="#263238"/>
<path d="M216.72 223.121C217.773 223.58 220.349 223.524 220.349 223.524C220.349 223.524 219.789 221.844 219.744 221.738C219.184 220.556 217.392 218.602 215.942 218.798C215.701 218.838 215.472 218.928 215.268 219.062C215.065 219.196 214.891 219.371 214.76 219.577C214.629 219.782 214.542 220.013 214.505 220.254C214.468 220.495 214.483 220.741 214.547 220.976C214.788 221.984 215.824 222.729 216.72 223.121Z" fill="#263238"/>
<path d="M217.61 230.58C218.73 230.737 220.998 230.07 221.178 230.02C221.556 231.334 222.022 232.621 222.572 233.873C222.891 234.606 223.233 235.334 223.58 236.057C223.373 235.754 223.182 235.497 223.154 235.446C222.298 234.455 220.058 233.044 218.708 233.615C218.486 233.717 218.288 233.864 218.127 234.047C217.966 234.23 217.845 234.445 217.772 234.678C217.699 234.911 217.676 235.156 217.704 235.399C217.732 235.641 217.811 235.875 217.935 236.085C218.434 236.992 219.615 237.44 220.601 237.58C221.586 237.72 223.552 237.194 224.073 237.048C224.207 237.322 224.342 237.608 224.482 237.877C225.148 239.204 225.814 240.52 226.436 241.836C226.654 242.301 226.85 242.766 227.046 243.225C226.862 242.956 226.705 242.726 226.677 242.693C225.82 241.702 223.58 240.29 222.23 240.867C222.009 240.968 221.811 241.115 221.65 241.298C221.489 241.48 221.368 241.695 221.295 241.927C221.222 242.159 221.199 242.404 221.227 242.646C221.255 242.888 221.333 243.122 221.458 243.331C221.962 244.238 223.138 244.686 224.123 244.832C225.109 244.978 226.884 244.496 227.483 244.322C227.674 244.804 227.864 245.286 228.043 245.762C228.144 246.086 228.267 246.394 228.351 246.725C228.435 247.055 228.536 247.38 228.626 247.705C228.777 248.332 228.934 248.976 229.068 249.592C229.163 250.018 229.242 250.426 229.326 250.835C229.118 250.376 228.682 249.474 228.637 249.407C227.942 248.287 225.943 246.562 224.521 246.926C224.287 246.993 224.07 247.109 223.884 247.265C223.698 247.422 223.547 247.616 223.441 247.835C223.336 248.054 223.277 248.292 223.27 248.535C223.263 248.778 223.308 249.02 223.401 249.245C223.754 250.219 224.868 250.841 225.803 251.132C226.834 251.446 229.113 251.132 229.398 251.132C229.533 251.81 229.662 252.476 229.768 253.103C230.003 254.414 230.177 255.601 230.328 256.614H231.28C231.118 255.562 230.905 254.324 230.63 252.946C230.496 252.252 230.334 251.513 230.166 250.757C230.852 250.483 231.521 250.169 232.17 249.816C232.921 250.628 234.842 251.58 235.094 251.703C234.83 252.347 234.573 252.969 234.315 253.551C233.817 254.705 233.341 255.73 232.915 256.614H233.951C234.31 255.802 234.707 254.895 235.116 253.893C235.385 253.238 235.676 252.538 235.934 251.81C236.208 251.871 238.465 252.33 239.518 252.09C240.475 251.877 241.629 251.334 242.054 250.41C242.163 250.191 242.224 249.952 242.234 249.708C242.244 249.464 242.203 249.221 242.112 248.994C242.022 248.768 241.885 248.563 241.71 248.393C241.535 248.222 241.326 248.091 241.097 248.007C239.708 247.542 237.586 249.127 236.807 250.174C236.762 250.236 236.337 250.97 236.079 251.434C236.191 251.138 236.303 250.874 236.41 250.544C236.634 249.939 236.835 249.329 237.059 248.674C237.154 248.354 237.25 248.03 237.35 247.699C237.451 247.369 237.524 247.027 237.608 246.686C237.798 245.89 237.95 245.078 238.09 244.255C238.616 244.446 240.509 245.106 241.489 245.039C242.469 244.972 243.69 244.608 244.255 243.74C244.396 243.542 244.495 243.317 244.543 243.079C244.591 242.841 244.589 242.595 244.536 242.358C244.483 242.121 244.381 241.897 244.236 241.702C244.091 241.507 243.907 241.345 243.695 241.226C242.39 240.554 240.055 241.786 239.126 242.715C239.07 242.777 238.476 243.51 238.157 243.925C238.235 243.426 238.319 242.934 238.381 242.43C238.56 240.974 238.7 239.495 238.84 238.022C238.885 237.574 238.935 237.126 238.98 236.673C239.17 236.746 241.405 237.574 242.502 237.496C243.477 237.429 244.698 237.07 245.263 236.202C245.404 236.005 245.503 235.779 245.551 235.541C245.599 235.303 245.597 235.057 245.544 234.82C245.491 234.583 245.389 234.36 245.244 234.165C245.099 233.969 244.915 233.807 244.703 233.688C243.398 233.016 241.063 234.248 240.134 235.178C240.066 235.25 239.215 236.298 239.014 236.589C239.12 235.603 239.232 234.612 239.383 233.649C239.579 232.34 239.862 231.045 240.229 229.774C240.313 229.807 242.642 230.686 243.768 230.602C244.742 230.535 245.963 230.177 246.529 229.309C246.67 229.111 246.768 228.886 246.817 228.648C246.865 228.41 246.863 228.164 246.81 227.927C246.757 227.689 246.655 227.466 246.51 227.271C246.365 227.076 246.181 226.913 245.969 226.794C244.664 226.122 242.329 227.354 241.399 228.284C241.338 228.346 240.694 229.152 240.391 229.544L240.318 229.505C240.719 228.236 241.235 227.007 241.858 225.831C242.189 225.176 242.547 224.571 242.906 223.989C243.32 224.196 245.235 225.109 246.266 225.17C247.296 225.232 248.506 224.986 249.155 224.185C249.316 224.002 249.437 223.787 249.509 223.555C249.582 223.322 249.604 223.077 249.576 222.835C249.547 222.593 249.468 222.36 249.344 222.151C249.219 221.941 249.052 221.76 248.853 221.62C247.632 220.808 245.174 221.782 244.149 222.6C244.093 222.645 243.589 223.16 243.208 223.535C243.37 223.278 243.538 223.009 243.701 222.762C244.317 221.838 244.933 221.026 245.487 220.315C245.806 219.918 246.103 219.559 246.383 219.229C246.898 219.229 248.97 219.156 249.883 218.73C250.796 218.305 251.776 217.538 251.994 216.524C252.052 216.287 252.06 216.041 252.017 215.802C251.974 215.562 251.881 215.334 251.744 215.132C251.608 214.931 251.43 214.76 251.223 214.631C251.017 214.502 250.785 214.419 250.544 214.385C249.082 214.228 247.352 216.227 246.814 217.426C246.77 217.526 246.254 219.229 246.254 219.229H246.282C246.008 219.542 245.722 219.878 245.403 220.259C244.843 220.959 244.194 221.754 243.561 222.667C242.862 223.645 242.222 224.664 241.646 225.719C240.993 226.893 240.446 228.122 240.01 229.393C240.01 229.393 240.01 229.426 240.01 229.443C240.01 229.012 240.01 227.808 240.01 227.718C239.842 226.419 238.75 224.006 237.311 223.742C237.065 223.688 236.81 223.687 236.563 223.741C236.317 223.795 236.085 223.901 235.884 224.054C235.683 224.206 235.518 224.401 235.4 224.623C235.282 224.846 235.213 225.092 235.2 225.344C235.116 226.38 235.866 227.41 236.594 228.06C237.418 228.799 239.702 229.51 239.882 229.566C239.473 230.871 239.151 232.201 238.918 233.548C238.778 234.332 238.661 235.127 238.554 235.928C238.554 235.558 238.554 235.222 238.554 235.178C238.386 233.878 237.294 231.465 235.855 231.202C235.614 231.164 235.368 231.177 235.133 231.24C234.898 231.303 234.678 231.416 234.489 231.569C234.3 231.723 234.146 231.915 234.035 232.132C233.925 232.35 233.862 232.588 233.85 232.831C233.766 233.867 234.517 234.898 235.245 235.553C235.973 236.208 237.922 236.858 238.431 237.02C238.398 237.328 238.353 237.636 238.319 237.938C238.14 239.411 237.972 240.884 237.759 242.318C237.686 242.827 237.591 243.32 237.502 243.818C237.502 243.488 237.502 243.208 237.502 243.169C237.334 241.87 236.247 239.456 234.802 239.193C234.562 239.155 234.316 239.168 234.08 239.231C233.845 239.295 233.626 239.407 233.437 239.56C233.247 239.714 233.093 239.906 232.983 240.123C232.873 240.341 232.81 240.579 232.798 240.822C232.714 241.853 233.464 242.889 234.192 243.538C234.92 244.188 236.678 244.782 237.289 244.983C237.182 245.487 237.076 245.991 236.953 246.478C236.858 246.809 236.79 247.134 236.678 247.458C236.566 247.783 236.471 248.102 236.365 248.422C236.146 249.026 235.922 249.654 235.693 250.242C235.536 250.645 235.379 251.031 235.222 251.423C235.301 250.919 235.435 249.934 235.435 249.85C235.421 248.697 235.111 247.566 234.534 246.568C234.545 246.441 234.545 246.314 234.534 246.187C234.503 245.945 234.422 245.713 234.296 245.504C234.17 245.296 234.001 245.116 233.801 244.977C233.601 244.839 233.373 244.743 233.134 244.698C232.895 244.653 232.648 244.658 232.411 244.714C230.994 245.09 230.093 247.576 230.026 248.886C230.026 248.965 230.07 249.805 230.115 250.337C230.042 250.029 229.975 249.726 229.897 249.413C229.751 248.786 229.583 248.164 229.404 247.492C229.309 247.173 229.214 246.848 229.113 246.523C229.012 246.198 228.883 245.868 228.771 245.532C228.491 244.765 228.166 244.003 227.83 243.242C228.39 243.107 230.317 242.614 231.101 242.015C231.885 241.416 232.697 240.447 232.691 239.411C232.697 239.168 232.652 238.926 232.559 238.701C232.466 238.476 232.326 238.273 232.149 238.105C231.972 237.938 231.762 237.81 231.532 237.729C231.302 237.648 231.058 237.616 230.815 237.636C229.359 237.793 228.094 240.117 227.825 241.399C227.825 241.478 227.724 242.418 227.685 242.939C227.478 242.48 227.27 242.026 227.046 241.573C226.397 240.257 225.691 238.952 225.002 237.653L224.375 236.449C224.566 236.404 226.89 235.889 227.763 235.194C228.536 234.601 229.359 233.626 229.354 232.59C229.361 232.347 229.316 232.104 229.223 231.879C229.13 231.653 228.99 231.45 228.813 231.283C228.636 231.115 228.426 230.987 228.195 230.906C227.965 230.826 227.721 230.795 227.478 230.815C226.022 230.972 224.756 233.296 224.493 234.578C224.493 234.674 224.347 236.029 224.336 236.376C223.877 235.491 223.423 234.606 223.02 233.716C222.461 232.517 221.982 231.282 221.586 230.02C221.676 230.02 224.101 229.46 224.997 228.76C225.775 228.166 226.598 227.192 226.587 226.156C226.593 225.912 226.548 225.67 226.455 225.445C226.362 225.219 226.222 225.016 226.045 224.848C225.868 224.681 225.658 224.552 225.428 224.47C225.199 224.389 224.954 224.356 224.711 224.375C223.255 224.538 221.99 226.862 221.726 228.144C221.726 228.228 221.614 229.264 221.581 229.751H221.497C221.133 228.469 220.884 227.157 220.752 225.831C220.668 225.103 220.629 224.403 220.612 223.72C221.071 223.664 223.182 223.384 224.056 222.852C224.93 222.32 225.814 221.469 225.921 220.438C225.955 220.196 225.937 219.949 225.869 219.714C225.8 219.479 225.683 219.261 225.524 219.075C225.365 218.889 225.169 218.738 224.948 218.633C224.726 218.529 224.486 218.472 224.241 218.467C222.779 218.467 221.262 220.634 220.881 221.878C220.881 221.95 220.713 222.662 220.612 223.182C220.612 222.874 220.612 222.555 220.612 222.258C220.612 221.138 220.685 220.136 220.752 219.234C220.797 218.725 220.847 218.266 220.898 217.834C221.323 217.543 223.014 216.345 223.541 215.488C224.067 214.631 224.465 213.45 224.101 212.486C224.02 212.256 223.891 212.046 223.723 211.869C223.555 211.692 223.351 211.552 223.125 211.459C222.9 211.366 222.657 211.322 222.413 211.329C222.169 211.336 221.929 211.395 221.71 211.501C220.41 212.178 220.063 214.799 220.282 216.093C220.282 216.205 220.791 217.918 220.814 217.902H220.842C220.786 218.316 220.724 218.758 220.674 219.246C220.584 220.142 220.494 221.161 220.466 222.275C220.426 223.474 220.454 224.675 220.55 225.87C220.656 227.211 220.879 228.539 221.217 229.841V229.886C220.987 229.522 220.304 228.53 220.248 228.463C219.391 227.472 217.151 226.061 215.802 226.632C215.58 226.734 215.382 226.881 215.221 227.064C215.06 227.247 214.939 227.462 214.866 227.695C214.793 227.928 214.77 228.173 214.798 228.416C214.826 228.658 214.905 228.892 215.029 229.102C215.443 229.992 216.642 230.44 217.61 230.58Z" fill="#263238"/>
<path opacity="0.3" d="M216.72 223.121C217.773 223.58 220.349 223.524 220.349 223.524C220.349 223.524 219.789 221.844 219.744 221.738C219.184 220.556 217.392 218.602 215.942 218.798C215.701 218.838 215.472 218.928 215.268 219.062C215.065 219.196 214.891 219.371 214.76 219.577C214.629 219.782 214.542 220.013 214.505 220.254C214.468 220.495 214.483 220.741 214.547 220.976C214.788 221.984 215.824 222.729 216.72 223.121Z" fill="#263238"/>
<path opacity="0.3" d="M242.76 223.686C242.76 223.686 243.23 221.978 243.247 221.866C243.426 220.567 243.012 217.946 241.69 217.319C241.468 217.219 241.228 217.167 240.984 217.166C240.741 217.165 240.499 217.215 240.277 217.313C240.054 217.411 239.854 217.555 239.69 217.736C239.527 217.916 239.403 218.129 239.327 218.361C238.974 219.335 239.422 220.528 239.954 221.351C240.582 222.32 242.76 223.686 242.76 223.686Z" fill="#263238"/>
<path opacity="0.3" d="M217.61 230.58C218.73 230.737 220.998 230.07 221.178 230.02C221.556 231.334 222.022 232.621 222.572 233.873C222.891 234.606 223.233 235.334 223.58 236.057C223.373 235.754 223.182 235.497 223.154 235.446C222.298 234.455 220.058 233.044 218.708 233.615C218.486 233.717 218.288 233.864 218.127 234.047C217.966 234.23 217.845 234.445 217.772 234.678C217.699 234.911 217.676 235.156 217.704 235.399C217.732 235.641 217.811 235.875 217.935 236.085C218.434 236.992 219.615 237.44 220.601 237.58C221.586 237.72 223.552 237.194 224.073 237.048C224.207 237.322 224.342 237.608 224.482 237.877C225.148 239.204 225.814 240.52 226.436 241.836C226.654 242.301 226.85 242.766 227.046 243.225C226.862 242.956 226.705 242.726 226.677 242.693C225.82 241.702 223.58 240.29 222.23 240.867C222.009 240.968 221.811 241.115 221.65 241.298C221.489 241.48 221.368 241.695 221.295 241.927C221.222 242.159 221.199 242.404 221.227 242.646C221.255 242.888 221.333 243.122 221.458 243.331C221.962 244.238 223.138 244.686 224.123 244.832C225.109 244.978 226.884 244.496 227.483 244.322C227.674 244.804 227.864 245.286 228.043 245.762C228.144 246.086 228.267 246.394 228.351 246.725C228.435 247.055 228.536 247.38 228.626 247.705C228.777 248.332 228.934 248.976 229.068 249.592C229.163 250.018 229.242 250.426 229.326 250.835C229.118 250.376 228.682 249.474 228.637 249.407C227.942 248.287 225.943 246.562 224.521 246.926C224.287 246.993 224.07 247.109 223.884 247.265C223.698 247.422 223.547 247.616 223.441 247.835C223.336 248.054 223.277 248.292 223.27 248.535C223.263 248.778 223.308 249.02 223.401 249.245C223.754 250.219 224.868 250.841 225.803 251.132C226.834 251.446 229.113 251.132 229.398 251.132C229.533 251.81 229.662 252.476 229.768 253.103C230.003 254.414 230.177 255.601 230.328 256.614H231.28C231.118 255.562 230.905 254.324 230.63 252.946C230.496 252.252 230.334 251.513 230.166 250.757C230.852 250.483 231.521 250.169 232.17 249.816C232.921 250.628 234.842 251.58 235.094 251.703C234.83 252.347 234.573 252.969 234.315 253.551C233.817 254.705 233.341 255.73 232.915 256.614H233.951C234.31 255.802 234.707 254.895 235.116 253.893C235.385 253.238 235.676 252.538 235.934 251.81C236.208 251.871 238.465 252.33 239.518 252.09C240.475 251.877 241.629 251.334 242.054 250.41C242.163 250.191 242.224 249.952 242.234 249.708C242.244 249.464 242.203 249.221 242.112 248.994C242.022 248.768 241.885 248.563 241.71 248.393C241.535 248.222 241.326 248.091 241.097 248.007C239.708 247.542 237.586 249.127 236.807 250.174C236.762 250.236 236.337 250.97 236.079 251.434C236.191 251.138 236.303 250.874 236.41 250.544C236.634 249.939 236.835 249.329 237.059 248.674C237.154 248.354 237.25 248.03 237.35 247.699C237.451 247.369 237.524 247.027 237.608 246.686C237.798 245.89 237.95 245.078 238.09 244.255C238.616 244.446 240.509 245.106 241.489 245.039C242.469 244.972 243.69 244.608 244.255 243.74C244.396 243.542 244.495 243.317 244.543 243.079C244.591 242.841 244.589 242.595 244.536 242.358C244.483 242.121 244.381 241.897 244.236 241.702C244.091 241.507 243.907 241.345 243.695 241.226C242.39 240.554 240.055 241.786 239.126 242.715C239.07 242.777 238.476 243.51 238.157 243.925C238.235 243.426 238.319 242.934 238.381 242.43C238.56 240.974 238.7 239.495 238.84 238.022C238.885 237.574 238.935 237.126 238.98 236.673C239.17 236.746 241.405 237.574 242.502 237.496C243.477 237.429 244.698 237.07 245.263 236.202C245.404 236.005 245.503 235.779 245.551 235.541C245.599 235.303 245.597 235.057 245.544 234.82C245.491 234.583 245.389 234.36 245.244 234.165C245.099 233.969 244.915 233.807 244.703 233.688C243.398 233.016 241.063 234.248 240.134 235.178C240.066 235.25 239.215 236.298 239.014 236.589C239.12 235.603 239.232 234.612 239.383 233.649C239.579 232.34 239.862 231.045 240.229 229.774C240.313 229.807 242.642 230.686 243.768 230.602C244.742 230.535 245.963 230.177 246.529 229.309C246.67 229.111 246.768 228.886 246.817 228.648C246.865 228.41 246.863 228.164 246.81 227.927C246.757 227.689 246.655 227.466 246.51 227.271C246.365 227.076 246.181 226.913 245.969 226.794C244.664 226.122 242.329 227.354 241.399 228.284C241.338 228.346 240.694 229.152 240.391 229.544L240.318 229.505C240.719 228.236 241.235 227.007 241.858 225.831C242.189 225.176 242.547 224.571 242.906 223.989C243.32 224.196 245.235 225.109 246.266 225.17C247.296 225.232 248.506 224.986 249.155 224.185C249.316 224.002 249.437 223.787 249.509 223.555C249.582 223.322 249.604 223.077 249.576 222.835C249.547 222.593 249.468 222.36 249.344 222.151C249.219 221.941 249.052 221.76 248.853 221.62C247.632 220.808 245.174 221.782 244.149 222.6C244.093 222.645 243.589 223.16 243.208 223.535C243.37 223.278 243.538 223.009 243.701 222.762C244.317 221.838 244.933 221.026 245.487 220.315C245.806 219.918 246.103 219.559 246.383 219.229C246.898 219.229 248.97 219.156 249.883 218.73C250.796 218.305 251.776 217.538 251.994 216.524C252.052 216.287 252.06 216.041 252.017 215.802C251.974 215.562 251.881 215.334 251.744 215.132C251.608 214.931 251.43 214.76 251.223 214.631C251.017 214.502 250.785 214.419 250.544 214.385C249.082 214.228 247.352 216.227 246.814 217.426C246.77 217.526 246.254 219.229 246.254 219.229H246.282C246.008 219.542 245.722 219.878 245.403 220.259C244.843 220.959 244.194 221.754 243.561 222.667C242.862 223.645 242.222 224.664 241.646 225.719C240.993 226.893 240.446 228.122 240.01 229.393C240.01 229.393 240.01 229.426 240.01 229.443C240.01 229.012 240.01 227.808 240.01 227.718C239.842 226.419 238.75 224.006 237.311 223.742C237.065 223.688 236.81 223.687 236.563 223.741C236.317 223.795 236.085 223.901 235.884 224.054C235.683 224.206 235.518 224.401 235.4 224.623C235.282 224.846 235.213 225.092 235.2 225.344C235.116 226.38 235.866 227.41 236.594 228.06C237.418 228.799 239.702 229.51 239.882 229.566C239.473 230.871 239.151 232.201 238.918 233.548C238.778 234.332 238.661 235.127 238.554 235.928C238.554 235.558 238.554 235.222 238.554 235.178C238.386 233.878 237.294 231.465 235.855 231.202C235.614 231.164 235.368 231.177 235.133 231.24C234.898 231.303 234.678 231.416 234.489 231.569C234.3 231.723 234.146 231.915 234.035 232.132C233.925 232.35 233.862 232.588 233.85 232.831C233.766 233.867 234.517 234.898 235.245 235.553C235.973 236.208 237.922 236.858 238.431 237.02C238.398 237.328 238.353 237.636 238.319 237.938C238.14 239.411 237.972 240.884 237.759 242.318C237.686 242.827 237.591 243.32 237.502 243.818C237.502 243.488 237.502 243.208 237.502 243.169C237.334 241.87 236.247 239.456 234.802 239.193C234.562 239.155 234.316 239.168 234.08 239.231C233.845 239.295 233.626 239.407 233.437 239.56C233.247 239.714 233.093 239.906 232.983 240.123C232.873 240.341 232.81 240.579 232.798 240.822C232.714 241.853 233.464 242.889 234.192 243.538C234.92 244.188 236.678 244.782 237.289 244.983C237.182 245.487 237.076 245.991 236.953 246.478C236.858 246.809 236.79 247.134 236.678 247.458C236.566 247.783 236.471 248.102 236.365 248.422C236.146 249.026 235.922 249.654 235.693 250.242C235.536 250.645 235.379 251.031 235.222 251.423C235.301 250.919 235.435 249.934 235.435 249.85C235.421 248.697 235.111 247.566 234.534 246.568C234.545 246.441 234.545 246.314 234.534 246.187C234.503 245.945 234.422 245.713 234.296 245.504C234.17 245.296 234.001 245.116 233.801 244.977C233.601 244.839 233.373 244.743 233.134 244.698C232.895 244.653 232.648 244.658 232.411 244.714C230.994 245.09 230.093 247.576 230.026 248.886C230.026 248.965 230.07 249.805 230.115 250.337C230.042 250.029 229.975 249.726 229.897 249.413C229.751 248.786 229.583 248.164 229.404 247.492C229.309 247.173 229.214 246.848 229.113 246.523C229.012 246.198 228.883 245.868 228.771 245.532C228.491 244.765 228.166 244.003 227.83 243.242C228.39 243.107 230.317 242.614 231.101 242.015C231.885 241.416 232.697 240.447 232.691 239.411C232.697 239.168 232.652 238.926 232.559 238.701C232.466 238.476 232.326 238.273 232.149 238.105C231.972 237.938 231.762 237.81 231.532 237.729C231.302 237.648 231.058 237.616 230.815 237.636C229.359 237.793 228.094 240.117 227.825 241.399C227.825 241.478 227.724 242.418 227.685 242.939C227.478 242.48 227.27 242.026 227.046 241.573C226.397 240.257 225.691 238.952 225.002 237.653L224.375 236.449C224.566 236.404 226.89 235.889 227.763 235.194C228.536 234.601 229.359 233.626 229.354 232.59C229.361 232.347 229.316 232.104 229.223 231.879C229.13 231.653 228.99 231.45 228.813 231.283C228.636 231.115 228.426 230.987 228.195 230.906C227.965 230.826 227.721 230.795 227.478 230.815C226.022 230.972 224.756 233.296 224.493 234.578C224.493 234.674 224.347 236.029 224.336 236.376C223.877 235.491 223.423 234.606 223.02 233.716C222.461 232.517 221.982 231.282 221.586 230.02C221.676 230.02 224.101 229.46 224.997 228.76C225.775 228.166 226.598 227.192 226.587 226.156C226.593 225.912 226.548 225.67 226.455 225.445C226.362 225.219 226.222 225.016 226.045 224.848C225.868 224.681 225.658 224.552 225.428 224.47C225.199 224.389 224.954 224.356 224.711 224.375C223.255 224.538 221.99 226.862 221.726 228.144C221.726 228.228 221.614 229.264 221.581 229.751H221.497C221.133 228.469 220.884 227.157 220.752 225.831C220.668 225.103 220.629 224.403 220.612 223.72C221.071 223.664 223.182 223.384 224.056 222.852C224.93 222.32 225.814 221.469 225.921 220.438C225.955 220.196 225.937 219.949 225.869 219.714C225.8 219.479 225.683 219.261 225.524 219.075C225.365 218.889 225.169 218.738 224.948 218.633C224.726 218.529 224.486 218.472 224.241 218.467C222.779 218.467 221.262 220.634 220.881 221.878C220.881 221.95 220.713 222.662 220.612 223.182C220.612 222.874 220.612 222.555 220.612 222.258C220.612 221.138 220.685 220.136 220.752 219.234C220.797 218.725 220.847 218.266 220.898 217.834C221.323 217.543 223.014 216.345 223.541 215.488C224.067 214.631 224.465 213.45 224.101 212.486C224.02 212.256 223.891 212.046 223.723 211.869C223.555 211.692 223.351 211.552 223.125 211.459C222.9 211.366 222.657 211.322 222.413 211.329C222.169 211.336 221.929 211.395 221.71 211.501C220.41 212.178 220.063 214.799 220.282 216.093C220.282 216.205 220.791 217.918 220.814 217.902H220.842C220.786 218.316 220.724 218.758 220.674 219.246C220.584 220.142 220.494 221.161 220.466 222.275C220.426 223.474 220.454 224.675 220.55 225.87C220.656 227.211 220.879 228.539 221.217 229.841V229.886C220.987 229.522 220.304 228.53 220.248 228.463C219.391 227.472 217.151 226.061 215.802 226.632C215.58 226.734 215.382 226.881 215.221 227.064C215.06 227.247 214.939 227.462 214.866 227.695C214.793 227.928 214.77 228.173 214.798 228.416C214.826 228.658 214.905 228.892 215.029 229.102C215.443 229.992 216.642 230.44 217.61 230.58Z" fill="#263238"/>
<path d="M64.1816 223.686C64.1816 223.686 64.652 221.978 64.6688 221.866C64.848 220.567 64.4336 217.946 63.112 217.319C62.8899 217.219 62.6493 217.167 62.4057 217.166C62.1622 217.165 61.9211 217.215 61.6982 217.313C61.4753 217.411 61.2756 217.555 61.112 217.736C60.9485 217.916 60.8247 218.129 60.7488 218.361C60.396 219.335 60.844 220.528 61.376 221.351C62.0032 222.32 64.1816 223.686 64.1816 223.686Z" fill="#263238"/>
<path d="M38.1416 223.121C39.1944 223.58 41.7648 223.524 41.7704 223.524C41.776 223.524 41.2104 221.844 41.1656 221.738C40.6056 220.556 38.8136 218.602 37.3632 218.798C37.1227 218.838 36.8932 218.928 36.6897 219.062C36.4862 219.196 36.3131 219.371 36.1816 219.577C36.0502 219.782 35.9633 220.013 35.9267 220.254C35.89 220.495 35.9044 220.741 35.9688 220.976C36.2096 221.984 37.2456 222.729 38.1416 223.121Z" fill="#263238"/>
<path d="M39.0264 230.58C40.1464 230.737 42.42 230.07 42.5992 230.02C42.9775 231.334 43.4433 232.621 43.9936 233.873C44.3109 234.619 44.6469 235.347 45.0016 236.057C44.7944 235.754 44.604 235.497 44.5704 235.446C43.7136 234.455 41.4792 233.044 40.1296 233.615C39.9079 233.717 39.71 233.864 39.5487 234.047C39.3875 234.23 39.2666 234.445 39.1937 234.678C39.1208 234.911 39.0977 235.156 39.1258 235.399C39.1539 235.641 39.2326 235.875 39.3568 236.085C39.8552 236.992 41.0368 237.44 42.0168 237.58C42.9968 237.72 44.9736 237.194 45.4944 237.048C45.6288 237.322 45.7632 237.608 45.9032 237.877C46.5696 239.204 47.236 240.52 47.852 241.836C48.0704 242.301 48.272 242.766 48.468 243.225C48.2832 242.956 48.1208 242.726 48.0928 242.693C47.236 241.702 45.0016 240.29 43.652 240.867C43.4304 240.968 43.2326 241.115 43.0714 241.298C42.9102 241.48 42.7893 241.695 42.7164 241.927C42.6435 242.159 42.6203 242.404 42.6484 242.646C42.6764 242.888 42.7551 243.122 42.8792 243.331C43.3776 244.238 44.5592 244.686 45.5392 244.832C46.5192 244.978 48.3 244.496 48.8992 244.322C49.0896 244.804 49.28 245.286 49.4592 245.762C49.56 246.086 49.6832 246.394 49.7672 246.725C49.8512 247.055 49.952 247.38 50.0416 247.705C50.1928 248.332 50.3496 248.976 50.484 249.592C50.5792 250.018 50.6576 250.426 50.7416 250.835C50.5288 250.376 50.0976 249.474 50.0528 249.407C49.3584 248.287 47.3592 246.562 45.9368 246.926C45.704 246.995 45.4881 247.111 45.3031 247.268C45.118 247.425 44.9678 247.619 44.8623 247.837C44.7568 248.056 44.6982 248.294 44.6904 248.536C44.6825 248.779 44.7256 249.02 44.8168 249.245C45.1752 250.219 46.2896 250.841 47.2248 251.132C48.2552 251.446 50.5344 251.132 50.82 251.132C50.9544 251.81 51.0832 252.476 51.1896 253.103C51.4192 254.414 51.5984 255.601 51.7496 256.614H52.7072C52.5392 255.562 52.332 254.324 52.0576 252.946C51.9176 252.252 51.7608 251.513 51.5928 250.757C52.2789 250.483 52.9483 250.169 53.5976 249.816C54.348 250.628 56.2688 251.58 56.5208 251.703C56.2576 252.347 55.9944 252.969 55.7424 253.551C55.244 254.705 54.768 255.73 54.3424 256.614H55.3784C55.7368 255.802 56.1344 254.895 56.5432 253.893C56.812 253.238 57.1032 252.538 57.3608 251.81C57.6352 251.871 59.892 252.33 60.9448 252.09C61.8968 251.877 63.056 251.334 63.4816 250.41C63.5902 250.191 63.6514 249.952 63.6614 249.708C63.6714 249.464 63.6298 249.221 63.5395 248.994C63.4491 248.768 63.312 248.563 63.137 248.393C62.962 248.222 62.7531 248.091 62.524 248.007C61.1352 247.542 59.0128 249.127 58.2344 250.174C58.1896 250.236 57.764 250.97 57.5064 251.434C57.6184 251.138 57.7304 250.874 57.8368 250.544C58.0608 249.939 58.2624 249.329 58.4864 248.674C58.5816 248.354 58.6768 248.03 58.7776 247.699C58.8784 247.369 58.9456 247.027 59.0352 246.686C59.2256 245.89 59.3768 245.078 59.5168 244.255C60.0432 244.446 61.936 245.106 62.916 245.039C63.896 244.972 65.1168 244.608 65.6824 243.74C65.8237 243.542 65.9217 243.317 65.9702 243.079C66.0186 242.841 66.0163 242.595 65.9635 242.358C65.9107 242.121 65.8085 241.897 65.6635 241.702C65.5186 241.507 65.3342 241.345 65.1224 241.226C63.8176 240.554 61.4824 241.786 60.5528 242.715C60.4968 242.777 59.9032 243.51 59.584 243.925C59.6624 243.426 59.7464 242.934 59.808 242.43C59.9872 240.974 60.1216 239.495 60.2672 238.022C60.312 237.574 60.3624 237.126 60.4072 236.673C60.5976 236.746 62.8264 237.574 63.924 237.496C64.904 237.429 66.1248 237.07 66.6904 236.202C66.8317 236.005 66.9297 235.779 66.9782 235.541C67.0266 235.303 67.0243 235.057 66.9715 234.82C66.9187 234.583 66.8165 234.36 66.6715 234.165C66.5266 233.969 66.3422 233.807 66.1304 233.688C64.8256 233.016 62.4904 234.248 61.5608 235.178C61.4936 235.25 60.6424 236.298 60.4408 236.589C60.5416 235.603 60.6592 234.612 60.8104 233.649C61.0066 232.34 61.2891 231.045 61.656 229.774C61.74 229.807 64.0696 230.686 65.1952 230.602C66.1696 230.535 67.3904 230.177 67.956 229.309C68.0973 229.111 68.1953 228.886 68.2438 228.648C68.2922 228.41 68.2899 228.164 68.2371 227.927C68.1843 227.689 68.0821 227.466 67.9371 227.271C67.7922 227.076 67.6078 226.913 67.396 226.794C66.0912 226.122 63.756 227.354 62.8264 228.284C62.7648 228.346 62.1208 229.152 61.8184 229.544L61.7456 229.505C62.1467 228.236 62.6621 227.007 63.2856 225.831C63.616 225.176 63.9744 224.571 64.3328 223.989C64.7472 224.196 66.6624 225.109 67.6928 225.17C68.7232 225.232 69.9328 224.986 70.5824 224.185C70.7433 224.002 70.8638 223.787 70.9363 223.555C71.0088 223.322 71.0315 223.077 71.0029 222.835C70.9744 222.593 70.8953 222.36 70.7708 222.151C70.6462 221.941 70.479 221.76 70.28 221.62C69.0592 220.808 66.6008 221.782 65.576 222.6C65.52 222.645 65.016 223.16 64.6296 223.535L65.128 222.762C65.744 221.838 66.36 221.026 66.9144 220.315C67.2336 219.918 67.5304 219.559 67.8104 219.229C68.3256 219.229 70.3976 219.156 71.3048 218.73C72.212 218.305 73.2032 217.538 73.4216 216.524C73.4795 216.287 73.4871 216.041 73.4436 215.8C73.4002 215.56 73.3069 215.332 73.1696 215.13C73.0323 214.929 72.8542 214.758 72.6468 214.63C72.4394 214.501 72.2073 214.418 71.9656 214.385C70.5096 214.228 68.7792 216.227 68.2416 217.426C68.1968 217.526 67.6816 219.229 67.6816 219.229C67.4072 219.542 67.1216 219.878 66.8024 220.259C66.2424 220.959 65.5928 221.754 64.9544 222.667C64.2592 223.647 63.6216 224.666 63.0448 225.719C62.3921 226.893 61.8449 228.122 61.4096 229.393C61.4096 229.393 61.4096 229.426 61.4096 229.443C61.4096 229.012 61.4096 227.808 61.4096 227.718C61.2416 226.419 60.1496 224.006 58.7104 223.742C58.4697 223.704 58.2236 223.717 57.9883 223.781C57.753 223.844 57.5336 223.956 57.3445 224.11C57.1554 224.264 57.0008 224.456 56.8907 224.673C56.7806 224.89 56.7176 225.129 56.7056 225.372C56.6216 226.408 57.372 227.438 58.1 228.088C58.9232 228.827 61.208 229.538 61.3872 229.594C60.9756 230.898 60.6538 232.228 60.424 233.576C60.284 234.36 60.1664 235.155 60.06 235.956C60.06 235.586 60.06 235.25 60.06 235.206C59.892 233.906 58.8056 231.493 57.3608 231.23C57.1205 231.192 56.8751 231.206 56.6404 231.27C56.4058 231.334 56.1871 231.446 55.9986 231.6C55.8102 231.753 55.6561 231.945 55.5463 232.162C55.4366 232.379 55.3736 232.616 55.3616 232.859C55.2776 233.895 56.0224 234.926 56.756 235.581C57.4896 236.236 59.4272 236.886 59.9424 237.048C59.9088 237.356 59.864 237.664 59.8304 237.966C59.6512 239.439 59.4832 240.912 59.2704 242.346C59.192 242.855 59.1024 243.348 59.0128 243.846C59.0128 243.516 59.0128 243.236 59.0128 243.197C58.8448 241.898 57.7528 239.484 56.3136 239.221C56.0676 239.162 55.8119 239.158 55.5642 239.209C55.3165 239.26 55.0829 239.364 54.8797 239.514C54.6765 239.665 54.5086 239.858 54.3878 240.08C54.2669 240.302 54.196 240.548 54.18 240.8C54.096 241.83 54.8464 242.866 55.5744 243.516C56.3024 244.166 58.0608 244.759 58.6712 244.961C58.5648 245.465 58.4584 245.969 58.3352 246.456C58.24 246.786 58.1728 247.111 58.0608 247.436C57.9488 247.761 57.848 248.08 57.7472 248.399C57.5288 249.004 57.3048 249.631 57.0752 250.219C56.9184 250.622 56.7616 251.009 56.6048 251.401C56.6832 250.897 56.8176 249.911 56.8176 249.827C56.8036 248.674 56.4931 247.544 55.916 246.546C55.9273 246.419 55.9273 246.291 55.916 246.165C55.8827 245.922 55.7984 245.689 55.6685 245.481C55.5386 245.273 55.3662 245.095 55.1625 244.958C54.9588 244.822 54.7285 244.73 54.4868 244.689C54.245 244.648 53.9973 244.658 53.76 244.72C52.3376 245.095 51.4416 247.582 51.3744 248.892C51.3744 248.97 51.4192 249.81 51.464 250.342C51.3912 250.034 51.324 249.732 51.2456 249.418C51.1 248.791 50.932 248.17 50.7528 247.498C50.6576 247.178 50.5624 246.854 50.4616 246.529C50.3608 246.204 50.232 245.874 50.12 245.538C49.84 244.77 49.5152 244.009 49.1736 243.247C49.7336 243.113 51.6656 242.62 52.444 242.021C53.2224 241.422 54.0456 240.453 54.04 239.417C54.0463 239.173 54.0013 238.931 53.9079 238.706C53.8144 238.481 53.6747 238.278 53.4978 238.111C53.3208 237.944 53.1106 237.815 52.8808 237.734C52.651 237.653 52.4068 237.622 52.164 237.642C50.7024 237.798 49.4368 240.122 49.1736 241.405C49.1736 241.483 49.0728 242.424 49.0336 242.945C48.8264 242.486 48.6192 242.032 48.3952 241.578C47.74 240.262 47.04 238.958 46.3512 237.658L45.7184 236.454C45.9144 236.41 48.2384 235.894 49.112 235.2C49.8848 234.606 50.708 233.632 50.7024 232.596C50.7096 232.352 50.6652 232.11 50.5721 231.884C50.4789 231.659 50.3392 231.456 50.1621 231.288C49.985 231.121 49.7744 230.992 49.5442 230.912C49.314 230.831 49.0694 230.8 48.8264 230.821C47.3704 230.978 46.1048 233.302 45.8416 234.584C45.8416 234.679 45.696 236.034 45.6848 236.382C45.2256 235.497 44.772 234.612 44.3632 233.722C43.8088 232.521 43.3318 231.287 42.9352 230.026C43.0248 230.026 45.4496 229.466 46.3456 228.766C47.1184 228.172 47.9416 227.198 47.936 226.162C47.9422 225.918 47.8972 225.676 47.8038 225.45C47.7105 225.225 47.5708 225.022 47.394 224.854C47.2172 224.686 47.007 224.557 46.7772 224.476C46.5474 224.394 46.3031 224.362 46.06 224.381C44.604 224.543 43.3384 226.867 43.0752 228.15C43.0752 228.234 42.9632 229.27 42.9296 229.757H42.8456C42.4796 228.475 42.2303 227.163 42.1008 225.837C42.0168 225.109 41.9776 224.409 41.9608 223.726C42.42 223.67 44.5312 223.39 45.4048 222.858C46.2784 222.326 47.1632 221.474 47.2696 220.444C47.3037 220.202 47.286 219.955 47.2176 219.72C47.1493 219.485 47.0318 219.267 46.8731 219.08C46.7143 218.894 46.5178 218.744 46.2965 218.639C46.0753 218.534 45.8343 218.478 45.5896 218.473C44.1224 218.473 42.6104 220.64 42.2296 221.883C42.2296 221.956 42.0616 222.667 41.9608 223.188C41.9608 222.88 41.9608 222.561 41.9608 222.264C41.9608 221.144 42.028 220.142 42.1008 219.24C42.1456 218.73 42.1904 218.271 42.2464 217.84C42.6664 217.549 44.3632 216.35 44.8896 215.494C45.416 214.637 45.8136 213.455 45.4496 212.492C45.3676 212.262 45.2383 212.053 45.0701 211.876C44.9019 211.7 44.6985 211.56 44.4731 211.468C44.2477 211.375 44.0053 211.33 43.7616 211.337C43.5179 211.343 43.2784 211.401 43.0584 211.506C41.7592 212.184 41.412 214.805 41.6304 216.098C41.6304 216.21 42.14 217.924 42.1624 217.907H42.1904C42.1288 218.322 42.0728 218.764 42.0224 219.251C41.9328 220.147 41.8432 221.166 41.8152 222.281C41.775 223.48 41.803 224.68 41.8992 225.876C42.0014 227.209 42.2226 228.53 42.56 229.824V229.869C42.3304 229.505 41.6472 228.514 41.5856 228.446C40.7288 227.455 38.4944 226.044 37.1448 226.615C36.9231 226.717 36.7252 226.864 36.5639 227.047C36.4027 227.23 36.2818 227.445 36.2089 227.678C36.136 227.911 36.1129 228.156 36.141 228.399C36.1691 228.641 36.2478 228.875 36.372 229.085C36.8648 229.992 38.08 230.44 39.0264 230.58Z" fill="#263238"/>
<path opacity="0.3" d="M38.1416 223.121C39.1944 223.58 41.7648 223.524 41.7704 223.524C41.776 223.524 41.2104 221.844 41.1656 221.738C40.6056 220.556 38.8136 218.602 37.3632 218.798C37.1227 218.838 36.8932 218.928 36.6897 219.062C36.4862 219.196 36.3131 219.371 36.1816 219.577C36.0502 219.782 35.9633 220.013 35.9267 220.254C35.89 220.495 35.9044 220.741 35.9688 220.976C36.2096 221.984 37.2456 222.729 38.1416 223.121Z" fill="#263238"/>
<path opacity="0.3" d="M64.1816 223.686C64.1816 223.686 64.652 221.978 64.6688 221.866C64.848 220.567 64.4336 217.946 63.112 217.319C62.8899 217.219 62.6493 217.167 62.4057 217.166C62.1622 217.165 61.9211 217.215 61.6982 217.313C61.4753 217.411 61.2756 217.555 61.112 217.736C60.9485 217.916 60.8247 218.129 60.7488 218.361C60.396 219.335 60.844 220.528 61.376 221.351C62.0032 222.32 64.1816 223.686 64.1816 223.686Z" fill="#263238"/>
<path opacity="0.3" d="M39.0264 230.58C40.1464 230.737 42.42 230.07 42.5992 230.02C42.9775 231.334 43.4433 232.621 43.9936 233.873C44.3109 234.619 44.6469 235.347 45.0016 236.057C44.7944 235.754 44.604 235.497 44.5704 235.446C43.7136 234.455 41.4792 233.044 40.1296 233.615C39.9079 233.717 39.71 233.864 39.5487 234.047C39.3875 234.23 39.2666 234.445 39.1937 234.678C39.1208 234.911 39.0977 235.156 39.1258 235.399C39.1539 235.641 39.2326 235.875 39.3568 236.085C39.8552 236.992 41.0368 237.44 42.0168 237.58C42.9968 237.72 44.9736 237.194 45.4944 237.048C45.6288 237.322 45.7632 237.608 45.9032 237.877C46.5696 239.204 47.236 240.52 47.852 241.836C48.0704 242.301 48.272 242.766 48.468 243.225C48.2832 242.956 48.1208 242.726 48.0928 242.693C47.236 241.702 45.0016 240.29 43.652 240.867C43.4304 240.968 43.2326 241.115 43.0714 241.298C42.9102 241.48 42.7893 241.695 42.7164 241.927C42.6435 242.159 42.6203 242.404 42.6484 242.646C42.6764 242.888 42.7551 243.122 42.8792 243.331C43.3776 244.238 44.5592 244.686 45.5392 244.832C46.5192 244.978 48.3 244.496 48.8992 244.322C49.0896 244.804 49.28 245.286 49.4592 245.762C49.56 246.086 49.6832 246.394 49.7672 246.725C49.8512 247.055 49.952 247.38 50.0416 247.705C50.1928 248.332 50.3496 248.976 50.484 249.592C50.5792 250.018 50.6576 250.426 50.7416 250.835C50.5288 250.376 50.0976 249.474 50.0528 249.407C49.3584 248.287 47.3592 246.562 45.9368 246.926C45.704 246.995 45.4881 247.111 45.3031 247.268C45.118 247.425 44.9678 247.619 44.8623 247.837C44.7568 248.056 44.6982 248.294 44.6904 248.536C44.6825 248.779 44.7256 249.02 44.8168 249.245C45.1752 250.219 46.2896 250.841 47.2248 251.132C48.2552 251.446 50.5344 251.132 50.82 251.132C50.9544 251.81 51.0832 252.476 51.1896 253.103C51.4192 254.414 51.5984 255.601 51.7496 256.614H52.7072C52.5392 255.562 52.332 254.324 52.0576 252.946C51.9176 252.252 51.7608 251.513 51.5928 250.757C52.2789 250.483 52.9483 250.169 53.5976 249.816C54.348 250.628 56.2688 251.58 56.5208 251.703C56.2576 252.347 55.9944 252.969 55.7424 253.551C55.244 254.705 54.768 255.73 54.3424 256.614H55.3784C55.7368 255.802 56.1344 254.895 56.5432 253.893C56.812 253.238 57.1032 252.538 57.3608 251.81C57.6352 251.871 59.892 252.33 60.9448 252.09C61.8968 251.877 63.056 251.334 63.4816 250.41C63.5902 250.191 63.6514 249.952 63.6614 249.708C63.6714 249.464 63.6298 249.221 63.5395 248.994C63.4491 248.768 63.312 248.563 63.137 248.393C62.962 248.222 62.7531 248.091 62.524 248.007C61.1352 247.542 59.0128 249.127 58.2344 250.174C58.1896 250.236 57.764 250.97 57.5064 251.434C57.6184 251.138 57.7304 250.874 57.8368 250.544C58.0608 249.939 58.2624 249.329 58.4864 248.674C58.5816 248.354 58.6768 248.03 58.7776 247.699C58.8784 247.369 58.9456 247.027 59.0352 246.686C59.2256 245.89 59.3768 245.078 59.5168 244.255C60.0432 244.446 61.936 245.106 62.916 245.039C63.896 244.972 65.1168 244.608 65.6824 243.74C65.8237 243.542 65.9217 243.317 65.9702 243.079C66.0186 242.841 66.0163 242.595 65.9635 242.358C65.9107 242.121 65.8085 241.897 65.6635 241.702C65.5186 241.507 65.3342 241.345 65.1224 241.226C63.8176 240.554 61.4824 241.786 60.5528 242.715C60.4968 242.777 59.9032 243.51 59.584 243.925C59.6624 243.426 59.7464 242.934 59.808 242.43C59.9872 240.974 60.1216 239.495 60.2672 238.022C60.312 237.574 60.3624 237.126 60.4072 236.673C60.5976 236.746 62.8264 237.574 63.924 237.496C64.904 237.429 66.1248 237.07 66.6904 236.202C66.8317 236.005 66.9297 235.779 66.9782 235.541C67.0266 235.303 67.0243 235.057 66.9715 234.82C66.9187 234.583 66.8165 234.36 66.6715 234.165C66.5266 233.969 66.3422 233.807 66.1304 233.688C64.8256 233.016 62.4904 234.248 61.5608 235.178C61.4936 235.25 60.6424 236.298 60.4408 236.589C60.5416 235.603 60.6592 234.612 60.8104 233.649C61.0066 232.34 61.2891 231.045 61.656 229.774C61.74 229.807 64.0696 230.686 65.1952 230.602C66.1696 230.535 67.3904 230.177 67.956 229.309C68.0973 229.111 68.1953 228.886 68.2438 228.648C68.2922 228.41 68.2899 228.164 68.2371 227.927C68.1843 227.689 68.0821 227.466 67.9371 227.271C67.7922 227.076 67.6078 226.913 67.396 226.794C66.0912 226.122 63.756 227.354 62.8264 228.284C62.7648 228.346 62.1208 229.152 61.8184 229.544L61.7456 229.505C62.1467 228.236 62.6621 227.007 63.2856 225.831C63.616 225.176 63.9744 224.571 64.3328 223.989C64.7472 224.196 66.6624 225.109 67.6928 225.17C68.7232 225.232 69.9328 224.986 70.5824 224.185C70.7433 224.002 70.8638 223.787 70.9363 223.555C71.0088 223.322 71.0315 223.077 71.0029 222.835C70.9744 222.593 70.8953 222.36 70.7708 222.151C70.6462 221.941 70.479 221.76 70.28 221.62C69.0592 220.808 66.6008 221.782 65.576 222.6C65.52 222.645 65.016 223.16 64.6296 223.535L65.128 222.762C65.744 221.838 66.36 221.026 66.9144 220.315C67.2336 219.918 67.5304 219.559 67.8104 219.229C68.3256 219.229 70.3976 219.156 71.3048 218.73C72.212 218.305 73.2032 217.538 73.4216 216.524C73.4795 216.287 73.4871 216.041 73.4436 215.8C73.4002 215.56 73.3069 215.332 73.1696 215.13C73.0323 214.929 72.8542 214.758 72.6468 214.63C72.4394 214.501 72.2073 214.418 71.9656 214.385C70.5096 214.228 68.7792 216.227 68.2416 217.426C68.1968 217.526 67.6816 219.229 67.6816 219.229C67.4072 219.542 67.1216 219.878 66.8024 220.259C66.2424 220.959 65.5928 221.754 64.9544 222.667C64.2592 223.647 63.6216 224.666 63.0448 225.719C62.3921 226.893 61.8449 228.122 61.4096 229.393C61.4096 229.393 61.4096 229.426 61.4096 229.443C61.4096 229.012 61.4096 227.808 61.4096 227.718C61.2416 226.419 60.1496 224.006 58.7104 223.742C58.4697 223.704 58.2236 223.717 57.9883 223.781C57.753 223.844 57.5336 223.956 57.3445 224.11C57.1554 224.264 57.0008 224.456 56.8907 224.673C56.7806 224.89 56.7176 225.129 56.7056 225.372C56.6216 226.408 57.372 227.438 58.1 228.088C58.9232 228.827 61.208 229.538 61.3872 229.594C60.9756 230.898 60.6538 232.228 60.424 233.576C60.284 234.36 60.1664 235.155 60.06 235.956C60.06 235.586 60.06 235.25 60.06 235.206C59.892 233.906 58.8056 231.493 57.3608 231.23C57.1205 231.192 56.8751 231.206 56.6404 231.27C56.4058 231.334 56.1871 231.446 55.9986 231.6C55.8102 231.753 55.6561 231.945 55.5463 232.162C55.4366 232.379 55.3736 232.616 55.3616 232.859C55.2776 233.895 56.0224 234.926 56.756 235.581C57.4896 236.236 59.4272 236.886 59.9424 237.048C59.9088 237.356 59.864 237.664 59.8304 237.966C59.6512 239.439 59.4832 240.912 59.2704 242.346C59.192 242.855 59.1024 243.348 59.0128 243.846C59.0128 243.516 59.0128 243.236 59.0128 243.197C58.8448 241.898 57.7528 239.484 56.3136 239.221C56.0676 239.162 55.8119 239.158 55.5642 239.209C55.3165 239.26 55.0829 239.364 54.8797 239.514C54.6765 239.665 54.5086 239.858 54.3878 240.08C54.2669 240.302 54.196 240.548 54.18 240.8C54.096 241.83 54.8464 242.866 55.5744 243.516C56.3024 244.166 58.0608 244.759 58.6712 244.961C58.5648 245.465 58.4584 245.969 58.3352 246.456C58.24 246.786 58.1728 247.111 58.0608 247.436C57.9488 247.761 57.848 248.08 57.7472 248.399C57.5288 249.004 57.3048 249.631 57.0752 250.219C56.9184 250.622 56.7616 251.009 56.6048 251.401C56.6832 250.897 56.8176 249.911 56.8176 249.827C56.8036 248.674 56.4931 247.544 55.916 246.546C55.9273 246.419 55.9273 246.291 55.916 246.165C55.8827 245.922 55.7984 245.689 55.6685 245.481C55.5386 245.273 55.3662 245.095 55.1625 244.958C54.9588 244.822 54.7285 244.73 54.4868 244.689C54.245 244.648 53.9973 244.658 53.76 244.72C52.3376 245.095 51.4416 247.582 51.3744 248.892C51.3744 248.97 51.4192 249.81 51.464 250.342C51.3912 250.034 51.324 249.732 51.2456 249.418C51.1 248.791 50.932 248.17 50.7528 247.498C50.6576 247.178 50.5624 246.854 50.4616 246.529C50.3608 246.204 50.232 245.874 50.12 245.538C49.84 244.77 49.5152 244.009 49.1736 243.247C49.7336 243.113 51.6656 242.62 52.444 242.021C53.2224 241.422 54.0456 240.453 54.04 239.417C54.0463 239.173 54.0013 238.931 53.9079 238.706C53.8144 238.481 53.6747 238.278 53.4978 238.111C53.3208 237.944 53.1106 237.815 52.8808 237.734C52.651 237.653 52.4068 237.622 52.164 237.642C50.7024 237.798 49.4368 240.122 49.1736 241.405C49.1736 241.483 49.0728 242.424 49.0336 242.945C48.8264 242.486 48.6192 242.032 48.3952 241.578C47.74 240.262 47.04 238.958 46.3512 237.658L45.7184 236.454C45.9144 236.41 48.2384 235.894 49.112 235.2C49.8848 234.606 50.708 233.632 50.7024 232.596C50.7096 232.352 50.6652 232.11 50.5721 231.884C50.4789 231.659 50.3392 231.456 50.1621 231.288C49.985 231.121 49.7744 230.992 49.5442 230.912C49.314 230.831 49.0694 230.8 48.8264 230.821C47.3704 230.978 46.1048 233.302 45.8416 234.584C45.8416 234.679 45.696 236.034 45.6848 236.382C45.2256 235.497 44.772 234.612 44.3632 233.722C43.8088 232.521 43.3318 231.287 42.9352 230.026C43.0248 230.026 45.4496 229.466 46.3456 228.766C47.1184 228.172 47.9416 227.198 47.936 226.162C47.9422 225.918 47.8972 225.676 47.8038 225.45C47.7105 225.225 47.5708 225.022 47.394 224.854C47.2172 224.686 47.007 224.557 46.7772 224.476C46.5474 224.394 46.3031 224.362 46.06 224.381C44.604 224.543 43.3384 226.867 43.0752 228.15C43.0752 228.234 42.9632 229.27 42.9296 229.757H42.8456C42.4796 228.475 42.2303 227.163 42.1008 225.837C42.0168 225.109 41.9776 224.409 41.9608 223.726C42.42 223.67 44.5312 223.39 45.4048 222.858C46.2784 222.326 47.1632 221.474 47.2696 220.444C47.3037 220.202 47.286 219.955 47.2176 219.72C47.1493 219.485 47.0318 219.267 46.8731 219.08C46.7143 218.894 46.5178 218.744 46.2965 218.639C46.0753 218.534 45.8343 218.478 45.5896 218.473C44.1224 218.473 42.6104 220.64 42.2296 221.883C42.2296 221.956 42.0616 222.667 41.9608 223.188C41.9608 222.88 41.9608 222.561 41.9608 222.264C41.9608 221.144 42.028 220.142 42.1008 219.24C42.1456 218.73 42.1904 218.271 42.2464 217.84C42.6664 217.549 44.3632 216.35 44.8896 215.494C45.416 214.637 45.8136 213.455 45.4496 212.492C45.3676 212.262 45.2383 212.053 45.0701 211.876C44.9019 211.7 44.6985 211.56 44.4731 211.468C44.2477 211.375 44.0053 211.33 43.7616 211.337C43.5179 211.343 43.2784 211.401 43.0584 211.506C41.7592 212.184 41.412 214.805 41.6304 216.098C41.6304 216.21 42.14 217.924 42.1624 217.907H42.1904C42.1288 218.322 42.0728 218.764 42.0224 219.251C41.9328 220.147 41.8432 221.166 41.8152 222.281C41.775 223.48 41.803 224.68 41.8992 225.876C42.0014 227.209 42.2226 228.53 42.56 229.824V229.869C42.3304 229.505 41.6472 228.514 41.5856 228.446C40.7288 227.455 38.4944 226.044 37.1448 226.615C36.9231 226.717 36.7252 226.864 36.5639 227.047C36.4027 227.23 36.2818 227.445 36.2089 227.678C36.136 227.911 36.1129 228.156 36.141 228.399C36.1691 228.641 36.2478 228.875 36.372 229.085C36.8648 229.992 38.08 230.44 39.0264 230.58Z" fill="#263238"/>
<path d="M189.482 248.5L193.402 255.651C194.834 255.975 196.336 255.777 197.635 255.091C199.825 253.921 202.16 252.168 203.767 251.586C205.374 251.003 210.19 247.934 211.506 245.599C212.822 243.264 213.254 241.679 211.064 242.239C209.195 242.753 207.295 243.142 205.374 243.404C203.33 243.701 199.097 243.404 199.097 243.404L189.482 248.5Z" fill="white" stroke="#263238" stroke-miterlimit="10"/>
<path d="M139.154 246.26C140.305 247.999 141.794 249.489 143.534 250.639C146.166 252.246 150.545 253.271 150.254 254.727C149.962 256.183 146.894 257.354 143.836 256.917C139.723 256.149 135.672 255.077 131.718 253.708C129.965 252.974 128.946 252.829 128.946 251.664C128.946 250.499 132.16 242.323 132.16 242.323L139.154 246.26Z" fill="white" stroke="#263238" stroke-miterlimit="10"/>
<path d="M155.904 116.48C155.904 116.48 150.5 122.584 148.45 126.56C146.401 130.536 138.001 143.578 139.171 145.544C140.342 147.51 146.367 153.793 149.447 155.904C152.527 158.015 155.215 160.289 155.215 160.289L157.545 158.53C157.545 158.53 153.3 152.55 150.825 148.49C148.35 144.43 146.86 142.33 146.86 142.33C146.86 142.33 153.703 133.93 155.445 131.74C157.186 129.55 157.797 119.98 157.875 119.123C157.954 118.266 157.282 115.36 155.904 116.48Z" fill="white" stroke="#263238" stroke-miterlimit="10"/>
<path d="M174.642 86.856C174.642 86.856 176.551 88.9112 176.714 91.0896C176.876 93.268 176.299 95.368 177.682 96.292C179.066 97.216 180.69 97.412 179.861 98.0336C179.032 98.6552 177.503 99.8144 177.503 99.8144C177.503 99.8144 176.826 106.45 176.12 106.798C175.414 107.145 169.607 107.867 169.607 107.867C169.607 107.867 167.53 111.384 167.972 113.4C168.414 115.416 171.976 122.035 174.177 126.118C176.378 130.2 176.501 131.796 175.627 135.817C174.754 139.838 171.998 156.929 172.144 159.701C172.29 162.473 174.334 166.561 174.334 166.561C174.334 166.561 186.015 198.677 187.326 202.322C188.636 205.968 188.205 214.586 189.078 217.795C189.952 221.004 195.647 232.249 196.526 234.293C197.406 236.337 200.721 240.761 200.721 240.761L201.449 242.222C201.449 242.222 199.405 243.975 197.07 245.722C195.195 247.106 193.117 248.191 190.91 248.937C189.89 249.228 188.574 249.665 188.574 249.665C188.574 249.665 184.094 241.735 182.336 237.502C180.578 233.268 177.666 228.598 177.083 222.471C176.501 216.345 174.602 210.79 172.995 205.974C171.388 201.158 166.135 192.69 166.135 192.69C166.135 192.69 161.902 209.625 158.542 213.713C155.182 217.801 150.371 228.743 147.302 234.293C144.234 239.842 142.778 241.153 142.486 243.779C142.322 245.322 141.98 246.84 141.467 248.304C141.467 248.304 136.354 247.285 133.728 245.532C131.99 244.333 130.377 242.964 128.912 241.444C128.912 241.444 136.192 225.826 139.714 218.966C143.237 212.106 147.448 196.924 147.594 195.899C147.739 194.874 149.201 186.267 149.783 184.369C150.366 182.47 150.517 182.325 150.371 181.306C150.226 180.286 146.283 174.154 147.885 168.168C149.486 162.182 153.843 156.307 153.843 156.307C153.843 156.307 156.397 147.347 156.374 144.995C156.352 142.643 153.899 137.273 153.222 132.054C152.544 126.834 152.869 119.347 155.226 115.657C157.584 111.966 161.386 106.137 161.599 104.798C161.812 103.46 162.534 101.651 160.737 97.104C158.939 92.5568 163.178 88.5808 166.13 86.8952C169.081 85.2096 174.642 86.856 174.642 86.856Z" fill="white" stroke="#263238" stroke-miterlimit="10"/>
<path d="M175.078 96.5552C175.354 96.5552 175.577 95.9986 175.577 95.312C175.577 94.6254 175.354 94.0688 175.078 94.0688C174.803 94.0688 174.58 94.6254 174.58 95.312C174.58 95.9986 174.803 96.5552 175.078 96.5552Z" fill="#263238"/>
<path d="M173.757 93.2456C173.757 93.2456 174.748 92.0864 175.745 93.0776" stroke="#263238" stroke-miterlimit="10"/>
<path d="M177.066 102.021C176.566 102.088 176.057 101.997 175.611 101.758C175.166 101.52 174.807 101.148 174.586 100.694" stroke="#263238" stroke-miterlimit="10"/>
<path d="M170.979 173.858L166.6 190.938" stroke="#263238" stroke-miterlimit="10"/>
<path d="M181.782 213.562C181.782 213.562 180.88 225.534 180.32 229.6" stroke="#263238" stroke-miterlimit="10"/>
<path d="M183.534 220.427C183.534 220.427 182.218 229.914 182.218 230.787" stroke="#263238" stroke-miterlimit="10"/>
<path d="M166.734 96.6616C166.734 96.6616 164.27 93.0384 162.411 95.6648C160.552 98.2912 162.221 100.946 163.268 101.31C163.522 101.421 163.797 101.478 164.074 101.478C164.352 101.478 164.626 101.421 164.881 101.31C164.259 103.165 163.352 104.913 162.193 106.49C160.328 108.97 155.383 111.384 151.374 110.656C147.364 109.928 139.81 102.726 141.26 96.6168C142.71 90.5072 144.245 87.472 145.992 87.3376C147.739 87.2032 148.792 89.4768 150.825 89.3256C152.858 89.1744 155.35 81.2336 162.551 79.6768C169.753 78.12 175.868 81.62 176.635 84.0504C177.402 86.4808 176.333 87.8808 175.605 87.9312C174.877 87.9816 171.982 86.4416 170.307 87.5896C168.633 88.7376 169.747 89.9752 169.971 90.9832C170.195 91.9912 168.498 92.848 168.577 93.8672C168.655 94.8864 168.885 96.04 168.302 96.1072C167.755 96.2118 167.226 96.3987 166.734 96.6616Z" fill="#263238" stroke="#263238" stroke-miterlimit="10"/>
<path d="M174.16 126.118C173.6 125.07 172.939 123.878 172.273 122.595C172.054 122.705 171.817 122.773 171.573 122.797C169.68 122.937 165.413 116.665 161.134 114.201C159.107 113.03 157.511 113.277 156.391 113.859C156.195 114.173 155.999 114.475 155.831 114.772C156.699 114.398 157.645 114.243 158.586 114.321C159.528 114.399 160.436 114.708 161.23 115.22C165.368 117.695 168.678 122.864 169.529 126.459C170.38 130.054 166.275 135.923 160.815 137.351C157.366 138.253 155.098 136.898 153.636 134.254C154.577 138.734 156.386 142.985 156.436 144.995C156.436 147.336 153.905 156.307 153.905 156.307C153.905 156.307 153.681 156.699 153.345 157.371C160.238 159.398 168.941 160.373 172.312 159.701C172.682 154.482 174.922 139.283 175.672 135.817C176.501 131.796 176.4 130.2 174.16 126.118Z" fill="#263238" stroke="#263238" stroke-miterlimit="10"/>
<path d="M159.365 115.797C159.365 115.797 163.33 115.942 165.312 119.011C167.294 122.08 176.305 135.033 177.565 136.259C178.825 137.486 180.6 139.692 180.6 139.692C180.6 139.692 194.628 131.482 197.12 129.545C199.612 127.607 201.992 124.208 201.992 124.208C201.992 124.208 202.261 121.845 202.35 121.106C202.44 120.366 204.624 120.204 204.624 120.204C204.624 120.204 206.097 118.339 207.273 118.401C208.449 118.462 208.723 120.193 208.723 120.193C208.723 120.193 210.241 122.864 210.336 124.174C210.431 125.485 207.715 128.318 206.584 128.845C205.514 129.262 204.41 129.587 203.286 129.819C203.286 129.819 194.258 140.291 191.268 143.444C188.582 146.142 185.557 148.48 182.269 150.399C181.149 150.926 176.574 148.624 175.818 148.243C175.062 147.862 155.865 129.814 155.865 129.814" fill="white"/>
<path d="M159.365 115.797C159.365 115.797 163.33 115.942 165.312 119.011C167.294 122.08 176.305 135.033 177.565 136.259C178.825 137.486 180.6 139.692 180.6 139.692C180.6 139.692 194.628 131.482 197.12 129.545C199.612 127.607 201.992 124.208 201.992 124.208C201.992 124.208 202.261 121.845 202.35 121.106C202.44 120.366 204.624 120.204 204.624 120.204C204.624 120.204 206.097 118.339 207.273 118.401C208.449 118.462 208.723 120.193 208.723 120.193C208.723 120.193 210.241 122.864 210.336 124.174C210.431 125.485 207.715 128.318 206.584 128.845C205.514 129.262 204.41 129.587 203.286 129.819C203.286 129.819 194.258 140.291 191.268 143.444C188.582 146.142 185.557 148.48 182.269 150.399C181.149 150.926 176.574 148.624 175.818 148.243C175.062 147.862 155.865 129.814 155.865 129.814" stroke="#263238" stroke-miterlimit="10"/>
<path d="M128.8 122.035C128.8 122.035 133.728 129.819 135.951 133.157C137.786 135.737 139.806 138.181 141.994 140.47C141.994 140.47 145.964 136.97 149.145 133.795C152.326 130.62 153.91 125.21 153.91 125.21C153.91 125.21 152.001 121.85 152.001 121.24C152.001 120.63 153.754 118.698 154.241 118.222C154.416 118.078 154.621 117.975 154.841 117.919C155.06 117.864 155.29 117.858 155.512 117.902C155.737 117.673 156.011 117.496 156.313 117.386C156.616 117.275 156.939 117.234 157.259 117.264C158.53 117.264 161.549 120.288 161.868 122.511C162.187 124.734 159.964 127.12 159.006 128.548C158.049 129.976 153.765 137.928 152.012 141.742C150.259 145.555 144.385 152.074 142.492 152.382C140.599 152.69 131.365 144.911 130.25 143.483C129.136 142.055 130.25 130.452 129.455 128.542C128.66 126.633 128.8 122.035 128.8 122.035Z" fill="white" stroke="#263238" stroke-miterlimit="10"/>
<path d="M155.518 117.902C155.518 117.902 159.488 120.921 157.903 121.559C157.694 121.649 157.469 121.696 157.241 121.696C157.013 121.697 156.787 121.651 156.578 121.561C156.368 121.472 156.179 121.34 156.022 121.175C155.865 121.01 155.743 120.815 155.663 120.602C155.663 120.602 157.254 122.511 156.621 124.102" stroke="#263238" stroke-miterlimit="10"/>
<path d="M156.946 121.873C156.946 121.873 159.186 124.113 160.306 124.258" stroke="#263238" stroke-miterlimit="10"/>
<path d="M107.044 178.774C107.044 178.774 101.797 198.934 100.05 201.174C98.3024 203.414 89.88 210.868 88.2896 215.174C86.6992 219.481 78.9992 236.454 78.0472 239.159C77.0952 241.864 76.3 242.654 76.3 242.654L82.9752 246.31C82.9752 246.31 90.0368 233.29 93.8504 228.525C97.664 223.759 102.592 216.283 106.092 212.789C109.592 209.294 119.918 194.83 119.918 194.83L107.044 178.774Z" fill="white" stroke="#263238" stroke-miterlimit="10"/>
<path d="M119.918 194.824L107.038 178.774C107.038 178.774 102.402 196.616 100.391 200.614C103.092 203.82 106.722 206.107 110.779 207.161C114.985 201.723 119.918 194.824 119.918 194.824Z" fill="#263238" stroke="#263238" stroke-miterlimit="10"/>
<path d="M82.9752 246.305C82.9752 246.305 84.6104 243.421 86.5312 239.585C83.9219 238.816 81.4377 237.673 79.156 236.191C78.596 237.798 78.2544 238.554 78.036 239.154C77.0784 241.858 76.2888 242.648 76.2888 242.648L82.9752 246.305Z" fill="white" stroke="#263238" stroke-miterlimit="10"/>
<path d="M85.8312 248.847C85.8312 248.847 85.1984 248.534 85.036 245.986C84.8736 243.438 84.56 241.696 83.608 243.286L82.656 244.877L76.4568 241.22C76.4568 241.22 75.3368 242.172 75.3368 243.13C75.3368 244.087 70.8904 248.371 71.8424 249.642C72.7944 250.914 76.132 250.914 79.4696 253.142C82.8072 255.371 83.4456 256.502 87.5784 256.637C91.7112 256.771 92.5008 255.366 92.5008 254.57C92.5008 253.775 89.1408 252.504 88.0544 251.39C87.2681 250.583 86.526 249.734 85.8312 248.847Z" fill="white" stroke="#263238" stroke-miterlimit="10"/>
<path d="M92.5064 254.57C92.5064 254.369 92.2992 254.145 91.9464 253.893C91.1344 254.414 89.3312 255.164 85.9712 254.727C81.0432 254.094 81.0432 252.661 78.344 250.281C76.5296 248.679 73.864 247.94 72.296 247.626C71.7864 248.472 71.512 249.222 71.8256 249.642C72.7776 250.914 76.1152 250.914 79.4528 253.142C82.7904 255.371 83.4288 256.502 87.5616 256.637C91.6944 256.771 92.5064 255.36 92.5064 254.57Z" fill="white" stroke="#263238" stroke-miterlimit="10"/>
<path d="M105.134 167.171C105.134 167.171 103.387 172.889 106.568 180.998C109.749 189.106 122.774 203.246 126.907 206.758L131.04 210.258C131.04 210.258 131.678 219.778 136.287 226.307L152.018 248.562L157.265 244.586C157.265 244.586 152.975 239.501 151.704 234.573C150.433 229.645 143.595 214.866 142.486 209.933C141.378 204.999 137.239 196.426 136.763 195.63C136.287 194.835 127.68 178.64 127.68 178.64L128.974 170.8L105.134 167.171Z" fill="white" stroke="#263238" stroke-miterlimit="10"/>
<path d="M126.33 206.237C127.574 204.557 131.152 200.743 138.762 199.802C137.788 197.618 136.959 195.95 136.763 195.619C136.287 194.824 127.68 178.64 127.68 178.64L128.974 170.8L105.134 167.149C105.134 167.149 103.387 172.866 106.568 180.975C109.609 188.759 121.682 202.054 126.33 206.237Z" fill="#263238" stroke="#263238" stroke-miterlimit="10"/>
<path d="M147.039 241.494C149.839 245.476 152.018 248.545 152.018 248.545L157.265 244.569C155.555 242.468 154.089 240.18 152.897 237.748C151.159 239.305 149.181 240.57 147.039 241.494Z" fill="white" stroke="#263238" stroke-miterlimit="10"/>
<path d="M156.946 240.117C156.946 240.117 154.566 237.877 154.879 240.755C155.193 243.634 156.15 244.569 156.15 244.569C156.15 244.569 149.638 247.587 150.27 249.021C150.648 249.871 151.129 250.67 151.704 251.401C151.704 251.401 155.68 257.6 157.422 256.967C159.163 256.334 162.193 252.358 164.892 251.087C167.591 249.816 170.934 245.521 171.73 242.978C172.525 240.436 172.043 239.484 170.139 240.593C168.235 241.702 165.687 243.141 162.826 243.141C161.063 243.116 159.348 242.562 157.903 241.55L156.946 240.117Z" fill="white" stroke="#263238" stroke-miterlimit="10"/>
<path d="M171.287 240.145C171.273 240.189 171.261 240.234 171.254 240.279C170.296 244.569 164.892 247.587 162.35 249.973C160.266 251.922 156.274 254.621 154.89 255.534C155.831 256.502 156.778 257.214 157.422 256.967C159.174 256.329 162.193 252.358 164.892 251.087C167.591 249.816 170.934 245.521 171.73 242.978C172.329 241.063 172.2 240.05 171.287 240.145Z" fill="white" stroke="#263238" stroke-miterlimit="10"/>
<path d="M134.159 84.448C135.029 86.0492 135.609 87.7914 135.873 89.5944C136.242 92.3944 136.119 94.0128 137.222 95.3624C138.326 96.712 139.311 97.5688 139.065 98.3024C138.818 99.036 137.099 99.8984 137.099 99.8984C137.099 99.8984 135.632 105.907 134.299 106.887C132.966 107.867 128.408 106.646 128.408 106.646C127.308 108.317 126.753 110.287 126.818 112.286C126.941 115.595 129.618 120.747 131.23 125.53C132.843 130.312 133.073 134.361 131.477 140.739C129.881 147.118 129.27 160.854 129.394 164.534C129.517 168.213 129.511 170.173 129.511 170.173C129.511 170.173 131.354 172.256 122.892 172.256C114.43 172.256 106.456 169.07 105.599 168.7C105.116 168.526 104.716 168.176 104.479 167.72C104.479 167.72 106.439 146.255 105.829 144.542C105.218 142.828 104.602 134.96 104.602 134.96C104.602 134.96 104.843 121.587 108.646 116.558C112.448 111.53 116.866 109.323 118.457 106.747C119.414 105.078 119.763 103.129 119.442 101.231C116.592 98.8843 114.466 95.7775 113.31 92.2712C111.345 86.3856 116.866 80.0072 120.91 78.5344C124.953 77.0616 133.297 79.0272 134.523 80.5C135.75 81.9728 134.159 84.448 134.159 84.448Z" fill="white" stroke="#263238" stroke-miterlimit="10"/>
<path d="M134.523 80.5224C133.297 79.0496 124.958 77.084 120.91 78.5568C116.861 80.0296 111.345 86.3968 113.31 92.2936C114.466 95.7999 116.592 98.9067 119.442 101.254C119.442 101.254 119.476 101.427 119.51 101.724C120.543 101.414 121.545 101.011 122.506 100.52C122.017 100.156 121.565 99.7455 121.156 99.2936C120.792 98.8008 119.806 95.3736 121.772 94.752C123.738 94.1304 124.225 95.4912 124.572 96.2248C124.919 96.9584 125.922 96.2248 126.291 95.8552C126.661 95.4856 126.414 92.6688 126.414 92.6688C127.337 91.9655 128.198 91.1863 128.99 90.3392C130.11 89.1128 125.922 86.2904 125.922 86.2904C125.922 86.2904 128.99 86.1672 130.586 85.9208C131.844 85.6302 133.046 85.1345 134.142 84.4536C134.142 84.4536 135.75 81.9952 134.523 80.5224Z" fill="#263238" stroke="#263238" stroke-miterlimit="10"/>
<path d="M128.391 106.646L125.328 105.174L127.411 108.483L128.391 106.646Z" fill="#263238" stroke="#263238" stroke-miterlimit="10"/>
<path d="M135.386 94.5896C135.436 95.2672 135.285 95.8272 135.05 95.8496C134.814 95.872 134.579 95.3344 134.529 94.6568C134.478 93.9792 134.624 93.4192 134.859 93.4024C135.094 93.3856 135.33 93.9176 135.386 94.5896Z" fill="#263238"/>
<path d="M133.42 92.2936C133.42 92.2936 134.282 90.944 135.139 91.6832" stroke="#263238" stroke-miterlimit="10"/>
<path d="M135.75 101.618C135.75 101.618 133.913 100.878 133.913 100.391" stroke="#263238" stroke-miterlimit="10"/>
<path d="M129.5 170.173C129.5 170.173 129.5 168.213 129.377 164.534C129.254 160.854 129.864 147.118 131.46 140.739C133.056 134.361 132.81 130.312 131.214 125.53C130.693 123.962 130.049 122.354 129.416 120.781C126.554 121.374 123.306 117.034 121.346 113.77C120.702 112.638 119.743 111.719 118.586 111.122C117.429 110.526 116.123 110.278 114.828 110.41H114.794C114.391 110.751 113.971 111.104 113.534 111.485C115.033 111.848 116.423 112.562 117.591 113.567C118.76 114.573 119.672 115.842 120.254 117.27C122.64 122.993 118.67 130.15 113.898 132.39C110.426 134.014 106.618 132.513 104.81 131.583C104.647 133.622 104.625 135.005 104.625 135.005C104.625 135.005 105.235 142.845 105.851 144.57C106.467 146.294 104.502 167.748 104.502 167.748C104.738 168.204 105.138 168.554 105.622 168.728C106.478 169.098 114.453 172.284 122.914 172.284C131.376 172.284 129.5 170.173 129.5 170.173Z" fill="#33941B" stroke="#263238" stroke-miterlimit="10"/>
<path d="M115.466 112.974C115.466 112.974 109.11 112.655 106.406 115.993C103.701 119.33 90.6752 139.356 90.0368 140.946C89.3984 142.537 90.9888 144.917 90.9888 144.917C90.9888 144.917 110.858 162.719 111.49 162.876C112.123 163.033 115.786 167.328 116.894 167.647C118.003 167.966 121.666 167.009 122.142 166.527C122.618 166.046 124.841 163.985 123.889 163.167C122.937 162.35 122.298 161.896 122.298 161.42C122.298 160.944 122.774 159.18 121.027 158.878C119.28 158.575 113.876 158.558 113.876 158.558C113.876 158.558 111.177 155.383 107.677 150.455C105.666 147.644 103.81 144.726 102.116 141.714L116.738 127.568" fill="white"/>
<path d="M115.466 112.974C115.466 112.974 109.11 112.655 106.406 115.993C103.701 119.33 90.6752 139.356 90.0368 140.946C89.3984 142.537 90.9888 144.917 90.9888 144.917C90.9888 144.917 110.858 162.719 111.49 162.876C112.123 163.033 115.786 167.328 116.894 167.647C118.003 167.966 121.666 167.009 122.142 166.527C122.618 166.046 124.841 163.985 123.889 163.167C122.937 162.35 122.298 161.896 122.298 161.42C122.298 160.944 122.774 159.18 121.027 158.878C119.28 158.575 113.876 158.558 113.876 158.558C113.876 158.558 111.177 155.383 107.677 150.455C105.666 147.644 103.81 144.726 102.116 141.714L116.738 127.568" stroke="#263238" stroke-miterlimit="10"/>
</svg>
