<svg width="117" height="50" viewBox="0 0 117 50" fill="none" xmlns="http://www.w3.org/2000/svg">
<path d="M31.5312 50H0.15625V5.1875H9.125V41.0312H31.5312V50ZM45.375 7.4375C45.375 8.22917 45.2188 8.96875 44.9062 9.65625C44.6146 10.3438 44.2083 10.9479 43.6875 11.4688C43.1667 11.9688 42.5521 12.375 41.8438 12.6875C41.1562 12.9792 40.4167 13.125 39.625 13.125C38.8333 13.125 38.0833 12.9792 37.375 12.6875C36.6875 12.375 36.0833 11.9688 35.5625 11.4688C35.0625 10.9479 34.6562 10.3438 34.3438 9.65625C34.0521 8.96875 33.9062 8.22917 33.9062 7.4375C33.9062 6.66667 34.0521 5.9375 34.3438 5.25C34.6562 4.54167 35.0625 3.9375 35.5625 3.4375C36.0833 2.91667 36.6875 2.51042 37.375 2.21875C38.0833 1.90625 38.8333 1.75 39.625 1.75C40.4167 1.75 41.1562 1.90625 41.8438 2.21875C42.5521 2.51042 43.1667 2.91667 43.6875 3.4375C44.2083 3.9375 44.6146 4.54167 44.9062 5.25C45.2188 5.9375 45.375 6.66667 45.375 7.4375ZM43.9062 50H35.3125V16.5312H43.9062V50ZM61.2812 50H52.75V25.0312H48.5938V16.5312H52.75V14.9375C52.75 12.875 53.1354 10.9375 53.9062 9.125C54.6979 7.3125 55.7708 5.73958 57.125 4.40625C58.5 3.05208 60.0938 1.98958 61.9062 1.21875C63.7188 0.427083 65.6562 0.03125 67.7188 0.03125H74.125V8.53125H67.7188C66.8021 8.53125 65.9479 8.69792 65.1562 9.03125C64.3854 9.34375 63.7083 9.79167 63.125 10.375C62.5625 10.9375 62.1146 11.6146 61.7812 12.4062C61.4479 13.1771 61.2812 14.0208 61.2812 14.9375V16.5312H71.75V25.0312H61.2812V50Z" fill="#259444"/>
<path d="M85.6875 50H76.7188V5.1875H85.6875V50ZM109.906 50C107.844 50 105.906 49.6146 104.094 48.8438C102.281 48.0521 100.688 46.9792 99.3125 45.625C97.9583 44.25 96.8854 42.6562 96.0938 40.8438C95.3229 39.0312 94.9375 37.0938 94.9375 35.0312V25.0938H90.7812V16.5938H94.9375V3.21875H103.438V16.5938H116.375V25.0938H103.438V35.0312C103.438 35.9271 103.604 36.7708 103.938 37.5625C104.271 38.3333 104.729 39.0104 105.312 39.5938C105.896 40.1771 106.583 40.6458 107.375 41C108.167 41.3333 109.01 41.5 109.906 41.5H116.375V50H109.906Z" fill="#5748B7"/>
</svg>
